<?xml version="1.0" encoding="UTF-8" standalone="no"?>
<!-- Created with Inkscape (http://www.inkscape.org/) -->

<svg
   version="1.1"
   id="svg1"
   width="1104"
   height="1104"
   viewBox="0 0 1104 1104"
   sodipodi:docname="achievement.svg"
   inkscape:version="1.4.2 (f4327f4, 2025-05-13)"
   xmlns:inkscape="http://www.inkscape.org/namespaces/inkscape"
   xmlns:sodipodi="http://sodipodi.sourceforge.net/DTD/sodipodi-0.dtd"
   xmlns="http://www.w3.org/2000/svg"
   xmlns:svg="http://www.w3.org/2000/svg">
  <defs
     id="defs1" />
  <sodipodi:namedview
     id="namedview1"
     pagecolor="#000000"
     bordercolor="#000000"
     borderopacity="0.25"
     inkscape:showpageshadow="2"
     inkscape:pageopacity="0.0"
     inkscape:pagecheckerboard="0"
     inkscape:deskcolor="#d1d1d1"
     inkscape:zoom="0.43785213"
     inkscape:cx="551.55607"
     inkscape:cy="946.66663"
     inkscape:window-width="1920"
     inkscape:window-height="1009"
     inkscape:window-x="-8"
     inkscape:window-y="-8"
     inkscape:window-maximized="1"
     inkscape:current-layer="g1" />
  <g
     inkscape:groupmode="layer"
     inkscape:label="Image"
     id="g1">
    <path
       style="fill:#ffffff;stroke-width:11.5671"
       d="M 393.09564,1070.9386 C 163.13775,998.15473 11.155353,792.58059 10.907256,553.98361 10.630202,287.64657 198.73602,64.511092 460.80192,20.307931 744.4446,-27.534606 996.10963,137.84488 1079.2955,426.74547 c 23.7171,82.36863 23.8663,154.6407 0.5064,245.2428 C 999.43139,983.70783 688.40008,1164.4052 393.09564,1070.9386 Z M 698.9687,876.15916 c 8.25457,-6.85071 19.46007,-11.0355 24.90116,-9.29963 5.44108,1.73593 27.01566,-4.00346 47.94359,-12.75412 L 809.86412,838.19512 808.31865,666.2815 806.77311,494.36787 H 663.27224 519.77136 v 69.40258 69.40263 h 63.61906 63.61901 v 60.82205 60.82209 l -73.30035,-1.0241 c -81.26862,-1.13538 -117.9495,-20.2659 -153.64057,-80.12941 -28.01171,-46.98326 -29.42228,-57.90194 -23.53656,-182.18761 0.52722,-11.13333 5.04841,-20.24247 10.04704,-20.24247 4.99865,0 9.08841,-6.78669 9.08841,-15.08157 0,-30.49964 78.10106,-91.60409 128.97503,-100.90705 52.89477,-9.67248 181.68405,5.85274 200.10905,24.12266 22.96875,22.77541 29.49609,8.54836 29.49609,-64.28989 0,-71.71319 -4.91197,-81.71612 -37.59309,-76.55597 -4.77138,0.75342 -8.6753,-3.08835 -8.6753,-8.53718 0,-5.4489 -14.31428,-10.25533 -31.80954,-10.68096 -180.83583,-4.39984 -215.54391,-2.2949 -241.38887,14.63935 -15.15044,9.92694 -27.54625,15.19274 -27.54625,11.70175 0,-3.49098 -15.61557,1.72787 -34.70129,11.5975 -19.08569,9.86961 -34.70133,23.88378 -34.70133,31.14262 0,7.25887 -3.22225,9.97566 -7.1606,6.03736 -7.66685,-7.66692 -34.11498,14.35245 -36.28245,30.20692 -0.71817,5.25322 -12.85452,19.56754 -26.96964,31.80947 -14.11514,12.24199 -22.14485,22.2582 -17.84377,22.2582 4.30103,0 -0.53781,12.75576 -10.75301,28.34617 -23.23908,35.4673 -31.22974,75.56856 -31.22974,156.72744 0,82.85827 6.53895,112.12673 37.51631,167.92353 42.34723,76.27624 122.21348,145.74325 143.30838,124.64841 3.98752,-3.98754 7.25002,-0.87018 7.25002,6.92751 0,7.79767 4.84554,11.18291 10.76788,7.52272 5.92228,-3.66019 13.66051,-1.97446 17.19595,3.74603 9.38485,15.18508 237.25068,16.6312 255.33747,1.62051 z"
       id="path1" />
  </g>
</svg>
