<?xml version="1.0" encoding="UTF-8" standalone="no"?>
<!-- Created with Inkscape (http://www.inkscape.org/) -->

<svg
   version="1.1"
   id="svg1"
   width="512"
   height="512"
   viewBox="0 0 512 512"
   sodipodi:docname="clock.svg"
   inkscape:version="1.4.2 (f4327f4, 2025-05-13)"
   xmlns:inkscape="http://www.inkscape.org/namespaces/inkscape"
   xmlns:sodipodi="http://sodipodi.sourceforge.net/DTD/sodipodi-0.dtd"
   xmlns="http://www.w3.org/2000/svg"
   xmlns:svg="http://www.w3.org/2000/svg">
  <defs
     id="defs1" />
  <sodipodi:namedview
     id="namedview1"
     pagecolor="#000000"
     bordercolor="#000000"
     borderopacity="0.25"
     inkscape:showpageshadow="2"
     inkscape:pageopacity="0.0"
     inkscape:pagecheckerboard="0"
     inkscape:deskcolor="#d1d1d1"
     inkscape:zoom="1.6191406"
     inkscape:cx="220.79614"
     inkscape:cy="256"
     inkscape:window-width="1920"
     inkscape:window-height="1009"
     inkscape:window-x="-8"
     inkscape:window-y="-8"
     inkscape:window-maximized="1"
     inkscape:current-layer="g1" />
  <g
     inkscape:groupmode="layer"
     inkscape:label="Image"
     id="g1">
    <path
       style="fill:#ffffff;stroke-width:0.617612"
       d="m 233.76598,510.14717 c -0.20994,-0.33969 -2.43334,-0.61762 -4.94089,-0.61762 -2.50755,0 -4.71233,-0.24778 -4.8995,-0.55063 -0.18717,-0.30285 -3.12179,-0.74972 -6.52137,-0.99304 -3.39958,-0.24332 -6.18106,-0.65499 -6.18106,-0.91482 0,-0.25982 -1.32014,-0.64484 -2.93365,-0.8556 -4.49737,-0.58746 -10.88664,-1.88674 -11.6157,-2.3621 -0.35921,-0.23421 -2.10248,-0.6181 -3.87394,-0.85308 -1.77146,-0.235 -3.36997,-0.66856 -3.55223,-0.96347 -0.18227,-0.29491 -1.14877,-0.53621 -2.14778,-0.53621 -0.99901,0 -1.81639,-0.24637 -1.81639,-0.54748 0,-0.30112 -1.32014,-0.74402 -2.93365,-0.98422 -1.61351,-0.2402 -3.21158,-0.65656 -3.55127,-0.92522 -0.33968,-0.26868 -1.58123,-0.6949 -2.75898,-0.94715 -1.17775,-0.25227 -2.63686,-0.70125 -3.24246,-0.99774 -0.6056,-0.29649 -1.64481,-0.81178 -2.30934,-1.14508 -0.66453,-0.3333 -2.33209,-0.78571 -3.70567,-1.00535 -1.37358,-0.21965 -2.49742,-0.59662 -2.49742,-0.83772 0,-0.2411 -1.52859,-0.95794 -3.39686,-1.59299 -1.86828,-0.63504 -3.39687,-1.35057 -3.39687,-1.59006 0,-0.23948 -1.1117,-0.62324 -2.47044,-0.8528 -1.35875,-0.22956 -2.47045,-0.60532 -2.47045,-0.83501 0,-0.45624 -4.57207,-2.56185 -5.56274,-2.56185 -0.33736,0 -0.61338,-0.21675 -0.61338,-0.48166 0,-0.2649 -1.38962,-1.0209 -3.08805,-1.67999 -1.69844,-0.65908 -3.08806,-1.38495 -3.08806,-1.61303 0,-0.22808 -0.76151,-0.60583 -1.69224,-0.83943 -0.93074,-0.2336 -1.834,-0.62073 -2.00724,-0.86031 -0.17325,-0.23956 -2.26047,-1.39871 -4.63828,-2.57587 -2.3778,-1.17717 -4.41592,-2.34875 -4.52915,-2.60351 -0.11323,-0.25477 -0.5996,-0.46321 -1.08082,-0.46321 -0.48122,0 -0.87495,-0.2592 -0.87495,-0.57599 0,-0.3168 -0.60397,-0.76769 -1.34215,-1.00198 -0.73818,-0.23429 -1.91383,-0.95858 -2.61256,-1.60955 -0.69872,-0.65096 -1.90127,-1.3419 -2.67232,-1.53543 -0.77106,-0.19352 -1.40192,-0.58092 -1.40192,-0.86089 0,-0.27997 -0.56478,-0.68829 -1.25507,-0.90738 -0.69028,-0.21909 -1.91449,-1.00212 -2.72045,-1.74006 -2.06547,-1.89114 -2.852,-2.47661 -5.13425,-3.8218 -1.10398,-0.6507 -2.00724,-1.40109 -2.00724,-1.66754 0,-0.26645 -0.30728,-0.48445 -0.68285,-0.48445 -0.37558,0 -1.4356,-0.62533 -2.35561,-1.38963 -0.92,-0.76429 -2.44663,-1.94547 -3.392511,-2.62484 -0.945879,-0.67938 -2.500376,-1.93004 -3.454444,-2.77926 -0.954062,-0.84921 -2.629037,-2.23884 -3.72216,-3.08805 -1.093129,-0.84922 -3.174394,-2.67229 -4.62504,-4.05128 -1.45064,-1.37898 -3.95826,-3.60238 -5.57248,-4.94089 -3.240812,-2.68727 -12.016375,-11.24491 -12.016375,-11.71798 0,-0.34095 -2.257623,-2.94886 -5.86731,-6.77763 -1.358745,-1.44123 -3.165259,-3.51478 -4.014475,-4.60791 -0.849216,-1.09312 -2.238842,-2.76809 -3.088058,-3.72215 -0.849216,-0.95407 -2.099879,-2.50857 -2.779252,-3.45445 -0.679373,-0.94588 -1.860555,-2.47251 -2.624849,-3.39251 -0.764295,-0.92001 -1.389626,-1.98003 -1.389626,-2.35561 0,-0.37557 -0.23416,-0.68285 -0.520356,-0.68285 -0.286196,0 -1.04421,-0.97274 -1.684476,-2.16164 -0.640267,-1.1889 -1.385724,-2.16164 -1.656572,-2.16164 -0.270848,0 -0.759325,-0.70194 -1.085506,-1.55986 -0.326182,-0.85792 -1.014116,-1.72143 -1.528743,-1.91891 -0.514627,-0.19748 -0.935686,-0.72636 -0.935686,-1.17528 0,-0.44893 -0.347407,-1.18772 -0.772015,-1.64178 -0.424608,-0.45405 -1.302149,-1.86353 -1.950091,-3.13217 -0.647941,-1.26864 -1.382106,-2.30662 -1.631477,-2.30662 -0.249371,0 -0.627789,-0.69482 -0.840929,-1.54403 -0.213139,-0.84922 -0.660157,-1.54403 -0.993371,-1.54403 -0.333214,0 -0.605845,-0.39373 -0.605845,-0.87495 0,-0.48122 -0.208444,-0.96759 -0.463208,-1.08082 -0.254765,-0.11323 -1.435947,-2.15135 -2.62485,-4.52915 -1.188902,-2.37781 -2.348049,-4.46503 -2.575882,-4.63828 -0.227833,-0.17324 -0.605369,-1.0765 -0.838969,-2.00724 -0.2336,-0.93073 -0.611339,-1.69224 -0.839422,-1.69224 -0.228083,0 -0.953949,-1.38962 -1.613037,-3.08806 -0.659087,-1.69843 -1.415082,-3.08805 -1.67999,-3.08805 -0.264907,0 -0.48165,-0.27602 -0.48165,-0.61338 0,-0.99067 -2.105615,-5.56274 -2.561854,-5.56274 -0.229697,0 -0.605451,-1.1117 -0.83501,-2.47045 -0.229559,-1.35874 -0.613321,-2.47044 -0.852805,-2.47044 -0.239485,0 -0.95501,-1.52859 -1.590056,-3.39687 -0.635046,-1.86827 -1.351893,-3.39686 -1.592992,-3.39686 -0.241099,0 -0.618071,-1.12384 -0.837716,-2.49742 -0.219644,-1.37358 -0.715445,-3.11062 -1.101779,-3.86007 -1.331212,-2.58245 -1.589206,-3.26292 -2.046387,-5.3974 -0.252261,-1.17775 -0.678478,-2.4193 -0.94715,-2.75898 -0.268672,-0.33969 -0.685024,-1.93776 -0.925226,-3.55127 -0.240203,-1.61351 -0.683101,-2.93365 -0.984218,-2.93365 -0.301117,0 -0.547485,-0.81738 -0.547485,-1.81639 0,-0.99901 -0.241292,-1.96551 -0.5362056,-2.14778 -0.2949126,-0.18226 -0.7284722,-1.78077 -0.9634648,-3.55223 -0.2349931,-1.77146 -0.6188826,-3.51473 -0.8530877,-3.87394 -0.4753608,-0.72906 -1.7746433,-7.11833 -2.3620938,-11.6157 -0.2107587,-1.61351 -0.5957827,-2.93365 -0.8556093,-2.93365 -0.2598265,0 -0.671493,-2.78148 -0.9148144,-6.18106 -0.2433213,-3.39958 -0.6901888,-6.3342 -0.9930388,-6.52137 -0.30285,-0.18717 -0.5506363,-2.39195 -0.5506363,-4.8995 0,-2.50755 -0.2779252,-4.73095 -0.6176116,-4.94089 -0.3724156,-0.23017 -0.6176115,-4.53557 -0.6176115,-10.84466 0,-6.56355 -0.230175,-10.46294 -0.61761162,-10.46294 C 0.27792521,256.92642 0,256.50953 0,256 c 0,-0.50953 0.27792521,-0.92642 0.61761158,-0.92642 0.38752102,0 0.61761162,-3.91154 0.61761162,-10.49939 0,-6.58786 0.2300905,-10.4994 0.6176115,-10.4994 0.359891,0 0.6176116,-2.04656 0.6176116,-4.90444 0,-2.69745 0.2477863,-5.05759 0.5506363,-5.24476 0.30285,-0.18717 0.7497175,-3.12179 0.9930388,-6.52137 0.2433214,-3.39958 0.6549879,-6.18106 0.9148144,-6.18106 0.2598266,0 0.6448506,-1.32014 0.8556093,-2.93365 0.5874505,-4.49737 1.886733,-10.88664 2.3620938,-11.6157 0.2342051,-0.35921 0.6180946,-2.10248 0.8530877,-3.87394 0.2349926,-1.77146 0.6685522,-3.36997 0.9634648,-3.55223 0.2949136,-0.18227 0.5362056,-1.14877 0.5362056,-2.14778 0,-0.99901 0.246368,-1.81639 0.547485,-1.81639 0.301117,0 0.744015,-1.32014 0.984218,-2.93365 0.240202,-1.61351 0.656554,-3.21158 0.925226,-3.55127 0.268672,-0.33968 0.694889,-1.58123 0.94715,-2.75898 0.25226,-1.17775 0.701241,-2.63686 0.997734,-3.24246 0.296494,-0.6056 0.811779,-1.64481 1.145079,-2.30934 0.3333,-0.66453 0.785709,-2.33209 1.005353,-3.70567 0.219645,-1.37358 0.596617,-2.49742 0.837716,-2.49742 0.241099,0 0.957946,-1.52859 1.592992,-3.39686 0.635046,-1.86828 1.350571,-3.39687 1.590056,-3.39687 0.239484,0 0.623246,-1.1117 0.852805,-2.47044 0.229559,-1.35875 0.605313,-2.47045 0.83501,-2.47045 0.456239,0 2.561854,-4.57207 2.561854,-5.56274 0,-0.33736 0.216743,-0.61338 0.48165,-0.61338 0.264908,0 1.020903,-1.38962 1.67999,-3.08805 0.659088,-1.69844 1.384954,-3.08806 1.613037,-3.08806 0.228083,0 0.605822,-0.76151 0.839422,-1.69224 0.2336,-0.93074 0.611136,-1.834 0.838969,-2.00724 0.227833,-0.17325 1.38698,-2.26047 2.575882,-4.63828 1.188903,-2.3778 2.370085,-4.41592 2.62485,-4.52915 0.254764,-0.11323 0.463208,-0.5996 0.463208,-1.08082 0,-0.48122 0.259197,-0.87495 0.575992,-0.87495 0.316796,0 0.767684,-0.60397 1.001974,-1.34215 0.234289,-0.73818 0.958587,-1.91383 1.609549,-2.61256 0.650963,-0.69872 1.341905,-1.90127 1.535428,-2.67232 0.193521,-0.77106 0.580925,-1.40192 0.860896,-1.40192 0.279971,0 0.688293,-0.56478 0.907381,-1.25507 0.219089,-0.69028 1.002112,-1.91449 1.740052,-2.72045 1.891147,-2.06547 2.476615,-2.852 3.821804,-5.13425 0.6507,-1.10398 1.401093,-2.00724 1.667541,-2.00724 0.266447,0 0.48445,-0.30728 0.48445,-0.68285 0,-0.37558 0.625331,-1.4356 1.389626,-2.35561 0.764294,-0.92 1.945476,-2.44663 2.624849,-3.392511 0.679373,-0.945879 1.930036,-2.500376 2.779252,-3.454444 0.849216,-0.954062 2.238842,-2.629037 3.088058,-3.72216 0.849216,-1.093129 2.65573,-3.16668 4.014475,-4.607901 3.609687,-3.828778 5.86731,-6.436686 5.86731,-6.777639 0,-0.473065 8.775563,-9.030704 12.016375,-11.717975 1.61422,-1.338506 4.12184,-3.561908 5.57248,-4.940893 1.450646,-1.378984 3.531911,-3.202056 4.62504,-4.051272 1.093123,-0.849216 2.768098,-2.238842 3.72216,-3.088058 0.954068,-0.849216 2.508565,-2.099879 3.454444,-2.779252 0.945881,-0.679373 2.472511,-1.860555 3.392511,-2.624849 0.92001,-0.764295 1.98003,-1.389626 2.35561,-1.389626 0.37557,0 0.68285,-0.218003 0.68285,-0.48445 0,-0.266448 0.90326,-1.016841 2.00724,-1.667541 2.28225,-1.345189 3.06878,-1.930657 5.13425,-3.821804 0.80596,-0.73794 2.03017,-1.520963 2.72045,-1.740052 0.69029,-0.219088 1.25507,-0.62741 1.25507,-0.907381 0,-0.279971 0.63086,-0.667375 1.40192,-0.860896 0.77105,-0.193523 1.9736,-0.884465 2.67232,-1.535428 0.69873,-0.650962 1.87438,-1.37526 2.61256,-1.609549 0.73818,-0.23429 1.34215,-0.685178 1.34215,-1.001974 0,-0.316795 0.39373,-0.575992 0.87495,-0.575992 0.48122,0 0.96759,-0.208444 1.08082,-0.463208 0.11323,-0.254765 2.15135,-1.426345 4.52915,-2.60351 2.37781,-1.177165 4.46503,-2.336313 4.63828,-2.575882 0.17324,-0.23957 1.0765,-0.626709 2.00724,-0.860309 0.93073,-0.2336 1.69224,-0.611339 1.69224,-0.839422 0,-0.228083 1.38962,-0.953949 3.08806,-1.613037 1.69843,-0.659087 3.08805,-1.415082 3.08805,-1.67999 0,-0.264907 0.27602,-0.48165 0.61338,-0.48165 0.99067,0 5.56274,-2.105615 5.56274,-2.561854 0,-0.229697 1.1117,-0.605451 2.47045,-0.83501 1.35874,-0.229559 2.47044,-0.613321 2.47044,-0.852805 0,-0.239485 1.52859,-0.95501 3.39687,-1.590056 1.86827,-0.635046 3.39686,-1.351893 3.39686,-1.592992 0,-0.241099 1.12384,-0.618071 2.49742,-0.837716 1.37358,-0.219644 3.11062,-0.715445 3.86007,-1.101779 2.58245,-1.331212 3.26292,-1.589206 5.3974,-2.046387 1.17775,-0.252261 2.4193,-0.678478 2.75898,-0.94715 0.33969,-0.268672 1.93776,-0.685024 3.55127,-0.925226 1.61351,-0.240203 2.93365,-0.683101 2.93365,-0.984218 0,-0.301117 0.81738,-0.547485 1.81639,-0.547485 0.99901,0 1.96551,-0.241292 2.14778,-0.5362056 0.18226,-0.2949126 1.78077,-0.7284722 3.55223,-0.9634648 1.77146,-0.2349931 3.51473,-0.6188826 3.87394,-0.8530877 0.72906,-0.4753608 7.11833,-1.7746431 11.6157,-2.3620935 1.61351,-0.2107588 2.93365,-0.5957831 2.93365,-0.8556096 0,-0.2598265 2.78148,-0.671493 6.18106,-0.9148144 3.39958,-0.2433213 6.3342,-0.6901888 6.52137,-0.9930388 0.18717,-0.30285 2.54731,-0.5506363 5.24476,-0.5506363 2.85788,0 4.90444,-0.2577206 4.90444,-0.6176116 0,-0.8471904 43.63563,-0.8471904 44.15923,0 0.20994,0.3396864 2.43334,0.6176116 4.94089,0.6176116 2.50755,0 4.71233,0.2477863 4.8995,0.5506363 0.18717,0.30285 3.12179,0.7497175 6.52137,0.9930388 3.39958,0.2433214 6.18106,0.6549879 6.18106,0.9148144 0,0.2598265 1.32014,0.6448508 2.93365,0.8556096 4.49737,0.5874504 10.88664,1.8867327 11.6157,2.3620935 0.35921,0.2342051 2.10248,0.6180946 3.87394,0.8530877 1.77146,0.2349926 3.36997,0.6685522 3.55223,0.9634648 0.18227,0.2949136 1.14877,0.5362056 2.14778,0.5362056 0.99901,0 1.81639,0.246368 1.81639,0.547485 0,0.301117 1.32014,0.744015 2.93365,0.984218 1.61351,0.240202 3.21158,0.656554 3.55127,0.925226 0.33968,0.268672 1.58123,0.694889 2.75898,0.94715 1.17775,0.25226 2.63686,0.701241 3.24246,0.997734 0.6056,0.296494 1.64481,0.811779 2.30934,1.145079 0.66453,0.3333 2.33209,0.785709 3.70567,1.005353 1.37358,0.219645 2.49742,0.596617 2.49742,0.837716 0,0.241099 1.52859,0.957946 3.39686,1.592992 1.86828,0.635046 3.39687,1.350571 3.39687,1.590056 0,0.239484 1.1117,0.623246 2.47044,0.852805 1.35875,0.229559 2.47045,0.605313 2.47045,0.83501 0,0.456239 4.57207,2.561854 5.56274,2.561854 0.33736,0 0.61338,0.216743 0.61338,0.48165 0,0.264908 1.38962,1.020903 3.08805,1.67999 1.69844,0.659088 3.08806,1.384954 3.08806,1.613037 0,0.228083 0.76151,0.605822 1.69224,0.839422 0.93074,0.2336 1.834,0.611136 2.00724,0.838969 0.17325,0.227833 2.26047,1.38698 4.63828,2.575882 2.3778,1.188903 4.41592,2.370085 4.52915,2.62485 0.11323,0.254764 0.5996,0.463208 1.08082,0.463208 0.48122,0 0.87495,0.272631 0.87495,0.605845 0,0.333214 0.69481,0.780232 1.54403,0.993371 0.84921,0.21314 1.54403,0.591558 1.54403,0.840929 0,0.249371 1.03798,0.983536 2.30662,1.631477 1.26864,0.647942 2.67812,1.525483 3.13217,1.950091 0.45406,0.424608 1.19285,0.772015 1.64178,0.772015 0.44892,0 0.9778,0.421059 1.17528,0.935686 0.19748,0.514627 1.06099,1.202561 1.91891,1.528743 0.85792,0.326181 1.55986,0.814658 1.55986,1.085506 0,0.270848 0.97274,1.016305 2.16164,1.656572 1.1889,0.640266 2.16164,1.39828 2.16164,1.684476 0,0.286196 0.30728,0.520356 0.68285,0.520356 0.37558,0 1.4356,0.625331 2.35561,1.389626 0.92,0.764294 2.44663,1.945476 3.39251,2.624849 0.94588,0.679373 2.50038,1.930036 3.45445,2.779252 0.95406,0.849216 2.62903,2.238842 3.72215,3.088058 1.09313,0.849216 3.1744,2.672288 4.62504,4.051272 1.45064,1.378985 3.9607,3.602387 5.5779,4.940893 3.76657,3.117475 9.78311,9.134006 12.90058,12.900578 1.33851,1.617204 3.56191,4.127257 4.94089,5.577897 1.37899,1.450646 3.20206,3.531911 4.05128,4.62504 0.84921,1.093123 2.23884,2.768098 3.08805,3.72216 0.84922,0.954068 2.09988,2.508565 2.77926,3.454444 0.67937,0.945881 1.86055,2.472511 2.62484,3.392511 0.7643,0.92001 1.38963,1.98003 1.38963,2.35561 0,0.37557 0.218,0.68285 0.48445,0.68285 0.26645,0 1.01684,0.90326 1.66754,2.00724 1.34519,2.28225 1.93066,3.06878 3.8218,5.13425 0.73794,0.80596 1.52097,2.03017 1.74006,2.72045 0.21909,0.69029 0.62741,1.25507 0.90738,1.25507 0.27997,0 0.66737,0.63086 0.86089,1.40192 0.19353,0.77105 0.88447,1.9736 1.53543,2.67232 0.65097,0.69873 1.37526,1.87438 1.60955,2.61256 0.23429,0.73818 0.68518,1.34215 1.00198,1.34215 0.31679,0 0.57599,0.39373 0.57599,0.87495 0,0.48122 0.20844,0.96759 0.46321,1.08082 0.25476,0.11323 1.43594,2.15135 2.62484,4.52915 1.18891,2.37781 2.34805,4.46503 2.57589,4.63828 0.22783,0.17324 0.60536,1.0765 0.83896,2.00724 0.2336,0.93073 0.61135,1.69224 0.83943,1.69224 0.22808,0 0.95395,1.38962 1.61303,3.08806 0.65909,1.69843 1.41509,3.08805 1.67999,3.08805 0.26491,0 0.48166,0.27602 0.48166,0.61338 0,0.99067 2.10561,5.56274 2.56185,5.56274 0.22969,0 0.60545,1.1117 0.83501,2.47045 0.22956,1.35874 0.61332,2.47044 0.8528,2.47044 0.23949,0 0.95502,1.52859 1.59006,3.39687 0.63505,1.86827 1.35189,3.39686 1.59299,3.39686 0.2411,0 0.61807,1.12384 0.83772,2.49742 0.38054,2.37977 0.57966,2.94791 2.05401,5.86061 0.34952,0.69052 0.84189,2.21911 1.09416,3.39686 0.25225,1.17775 0.67847,2.4193 0.94715,2.75898 0.26866,0.33969 0.68502,1.93776 0.92522,3.55127 0.2402,1.61351 0.6831,2.93365 0.98422,2.93365 0.30111,0 0.54748,0.81738 0.54748,1.81639 0,0.99901 0.24545,1.96808 0.54543,2.15348 0.29998,0.1854 0.73633,1.86497 0.96964,3.73238 0.23332,1.86741 0.68269,3.55504 0.99861,3.75028 0.3159,0.19525 0.57438,1.01984 0.57438,1.83244 0,0.81259 0.41689,3.07799 0.92642,5.0342 0.50953,1.95622 0.92642,4.4711 0.92642,5.58864 0,1.11753 0.24794,2.03188 0.55099,2.03188 0.30304,0 0.75007,2.78148 0.99339,6.18106 0.24332,3.39958 0.69019,6.3342 0.99304,6.52137 0.30285,0.18717 0.55063,2.39195 0.55063,4.8995 0,2.50755 0.27793,4.73095 0.61762,4.94089 0.39291,0.24284 0.61761,8.33202 0.61761,22.23402 0,13.902 -0.2247,21.99118 -0.61761,22.23402 -0.33969,0.20994 -0.61762,2.43334 -0.61762,4.94089 0,2.50755 -0.24778,4.71233 -0.55063,4.8995 -0.30285,0.18717 -0.74972,3.12179 -0.99304,6.52137 -0.24332,3.39958 -0.69035,6.18106 -0.99339,6.18106 -0.30305,0 -0.55099,0.91435 -0.55099,2.03188 0,1.11754 -0.41689,3.63242 -0.92642,5.58864 -0.50953,1.95621 -0.92642,4.22161 -0.92642,5.0342 0,0.8126 -0.25848,1.63719 -0.57438,1.83244 -0.31592,0.19524 -0.76529,1.88287 -0.99861,3.75028 -0.23331,1.86741 -0.66966,3.54698 -0.96964,3.73238 -0.29998,0.1854 -0.54543,1.15447 -0.54543,2.15348 0,0.99901 -0.24637,1.81639 -0.54748,1.81639 -0.30112,0 -0.74402,1.32014 -0.98422,2.93365 -0.2402,1.61351 -0.65656,3.21158 -0.92522,3.55127 -0.26868,0.33968 -0.6949,1.58123 -0.94715,2.75898 -0.25227,1.17775 -0.70125,2.63686 -0.99774,3.24246 -0.29649,0.6056 -0.81178,1.64481 -1.14508,2.30934 -0.3333,0.66453 -0.78571,2.33209 -1.00535,3.70567 -0.21965,1.37358 -0.59662,2.49742 -0.83772,2.49742 -0.2411,0 -0.95794,1.52859 -1.59299,3.39686 -0.63504,1.86828 -1.35057,3.39687 -1.59006,3.39687 -0.23948,0 -0.62324,1.1117 -0.8528,2.47044 -0.22956,1.35875 -0.60532,2.47045 -0.83501,2.47045 -0.45624,0 -2.56185,4.57207 -2.56185,5.56274 0,0.33736 -0.21675,0.61338 -0.48166,0.61338 -0.2649,0 -1.0209,1.38962 -1.67999,3.08805 -0.65908,1.69844 -1.38495,3.08806 -1.61303,3.08806 -0.22808,0 -0.60583,0.76151 -0.83943,1.69224 -0.2336,0.93074 -0.61113,1.834 -0.83896,2.00724 -0.22784,0.17325 -1.38698,2.26047 -2.57589,4.63828 -1.1889,2.3778 -2.37008,4.41592 -2.62484,4.52915 -0.25477,0.11323 -0.46321,0.5996 -0.46321,1.08082 0,0.48122 -0.27264,0.87495 -0.60585,0.87495 -0.33321,0 -0.78023,0.69481 -0.99337,1.54403 -0.21314,0.84921 -0.59156,1.54403 -0.84093,1.54403 -0.24937,0 -0.98353,1.03798 -1.63148,2.30662 -0.64794,1.26864 -1.52548,2.67812 -1.95009,3.13217 -0.4246,0.45406 -0.77201,1.19285 -0.77201,1.64178 0,0.44892 -0.42106,0.9778 -0.93569,1.17528 -0.51462,0.19748 -1.20256,1.06099 -1.52874,1.91891 -0.32618,0.85792 -0.81466,1.55986 -1.08551,1.55986 -0.27085,0 -1.0163,0.97274 -1.65657,2.16164 -0.64027,1.1889 -1.39828,2.16164 -1.68447,2.16164 -0.2862,0 -0.52036,0.30728 -0.52036,0.68285 0,0.37558 -0.62533,1.4356 -1.38963,2.35561 -0.76429,0.92 -1.94547,2.44179 -2.62484,3.38176 -0.67938,0.93996 -1.65212,2.20571 -2.16165,2.81278 -0.50952,0.60707 -1.89915,2.28248 -3.08805,3.72313 -1.18891,1.44065 -3.2899,3.81066 -4.66889,5.2667 -1.37898,1.45602 -3.60238,3.97048 -4.94089,5.58768 -3.11747,3.76657 -9.13401,9.78311 -12.90058,12.90058 -1.6172,1.33851 -4.13166,3.56191 -5.58768,4.94089 -1.45604,1.37899 -3.82605,3.47998 -5.2667,4.66889 -1.44065,1.1889 -3.11606,2.57853 -3.72313,3.08805 -0.60707,0.50953 -1.87282,1.48227 -2.81278,2.16165 -0.93997,0.67937 -2.46176,1.86055 -3.38176,2.62484 -0.92001,0.7643 -1.98003,1.38963 -2.35561,1.38963 -0.37557,0 -0.68285,0.23416 -0.68285,0.52036 0,0.28619 -0.97274,1.0442 -2.16164,1.68447 -1.1889,0.64027 -2.16164,1.38572 -2.16164,1.65657 0,0.27085 -0.70194,0.75933 -1.55986,1.08551 -0.85792,0.32618 -1.72143,1.01412 -1.91891,1.52874 -0.19748,0.51463 -0.72636,0.93569 -1.17528,0.93569 -0.44893,0 -1.18772,0.34741 -1.64178,0.77201 -0.45405,0.42461 -1.86353,1.30215 -3.13217,1.95009 -1.26864,0.64795 -2.30662,1.38211 -2.30662,1.63148 0,0.24937 -0.69482,0.62779 -1.54403,0.84093 -0.84922,0.21314 -1.54403,0.66016 -1.54403,0.99337 0,0.33321 -0.39373,0.60585 -0.87495,0.60585 -0.48122,0 -0.96759,0.20844 -1.08082,0.46321 -0.11323,0.25476 -2.15135,1.43594 -4.52915,2.62484 -2.37781,1.18891 -4.46503,2.34805 -4.63828,2.57589 -0.17324,0.22783 -1.0765,0.60536 -2.00724,0.83896 -0.93073,0.2336 -1.69224,0.61135 -1.69224,0.83943 0,0.22808 -1.38962,0.95395 -3.08806,1.61303 -1.69843,0.65909 -3.08805,1.41509 -3.08805,1.67999 0,0.26491 -0.27602,0.48166 -0.61338,0.48166 -0.99067,0 -5.56274,2.10561 -5.56274,2.56185 0,0.22969 -1.1117,0.60545 -2.47045,0.83501 -1.35874,0.22956 -2.47044,0.61332 -2.47044,0.8528 0,0.23949 -1.52859,0.95502 -3.39687,1.59006 -1.86827,0.63505 -3.39686,1.35189 -3.39686,1.59299 0,0.2411 -1.12384,0.61807 -2.49742,0.83772 -1.37358,0.21964 -3.04114,0.67205 -3.70567,1.00535 -0.66453,0.3333 -1.70374,0.84859 -2.30934,1.14508 -0.6056,0.29649 -2.06471,0.74547 -3.24246,0.99774 -1.17775,0.25225 -2.4193,0.67847 -2.75898,0.94715 -0.33969,0.26866 -1.93776,0.68502 -3.55127,0.92522 -1.61351,0.2402 -2.93365,0.6831 -2.93365,0.98422 0,0.30111 -0.81738,0.54748 -1.81639,0.54748 -0.99901,0 -1.96551,0.2413 -2.14778,0.53621 -0.18226,0.29491 -1.78077,0.72847 -3.55223,0.96347 -1.77146,0.23498 -3.51473,0.61887 -3.87394,0.85308 -0.72906,0.47536 -7.11833,1.77464 -11.6157,2.3621 -1.61351,0.21076 -2.93365,0.59578 -2.93365,0.8556 0,0.25983 -2.78148,0.6715 -6.18106,0.91482 -3.39958,0.24332 -6.3342,0.69019 -6.52137,0.99304 -0.18717,0.30285 -2.39195,0.55063 -4.8995,0.55063 -2.50755,0 -4.73095,0.27793 -4.94089,0.61762 -0.24284,0.39291 -8.33202,0.61761 -22.23402,0.61761 -13.902,0 -21.99118,-0.2247 -22.23402,-0.61761 z m 41.32178,-56.10849 c 0.17792,-0.28788 3.4549,-0.71362 7.28216,-0.94607 3.82727,-0.23245 7.22774,-0.69172 7.55661,-1.02059 0.32888,-0.32887 1.65407,-0.59795 2.94488,-0.59795 1.29081,0 2.34693,-0.24528 2.34693,-0.54505 0,-0.29978 2.08443,-0.74038 4.63208,-0.97912 2.54765,-0.23873 4.63209,-0.63536 4.63209,-0.88139 0,-0.24604 1.73703,-0.78571 3.86007,-1.19927 6.60073,-1.28579 7.25694,-1.46245 7.25694,-1.95365 0,-0.26256 1.24418,-0.66397 2.76485,-0.892 1.52067,-0.22804 2.9267,-0.67649 3.12451,-0.99655 0.19781,-0.32006 0.8991,-0.58193 1.55843,-0.58193 0.65932,0 1.19877,-0.2424 1.19877,-0.53867 0,-0.29627 1.1117,-0.71645 2.47045,-0.93372 1.35874,-0.21727 2.47044,-0.66968 2.47044,-1.00535 0,-0.33567 0.55394,-0.61031 1.23099,-0.61031 1.52223,0 6.18035,-1.97178 6.18035,-2.61614 0,-0.25956 0.47238,-0.47192 1.04972,-0.47192 1.29722,0 15.00818,-6.81867 15.00818,-7.46381 0,-0.25685 0.83378,-0.65013 1.85284,-0.87395 1.01906,-0.22382 1.85283,-0.63266 1.85283,-0.90854 0,-0.27586 0.69481,-0.67596 1.54403,-0.8891 0.84922,-0.21315 1.54403,-0.66016 1.54403,-0.99338 0,-0.33321 0.41689,-0.60584 0.92642,-0.60584 0.50953,0 0.92641,-0.2478 0.92641,-0.55066 0,-0.30286 0.69482,-0.72504 1.54403,-0.93818 0.84922,-0.21314 1.54403,-0.66016 1.54403,-0.99337 0,-0.33322 0.39373,-0.60585 0.87495,-0.60585 0.48122,0 0.96759,-0.22028 1.08082,-0.48951 0.11323,-0.26924 1.24809,-1.12568 2.52192,-1.90321 1.27382,-0.77753 2.31604,-1.66895 2.31604,-1.98093 0,-0.31198 0.29647,-0.56724 0.65882,-0.56724 0.79115,0 4.67322,-2.82189 6.56862,-4.77475 0.74808,-0.77075 1.64011,-1.40137 1.98229,-1.40137 0.34218,0 1.69035,-1.04222 2.99592,-2.31604 1.30557,-1.27382 3.67232,-3.28878 5.25944,-4.47768 1.58711,-1.18891 3.05019,-2.64801 3.2513,-3.24247 0.2011,-0.59445 0.60671,-1.08082 0.90136,-1.08082 0.69865,0 7.40999,-6.71134 7.40999,-7.40999 0,-0.29465 0.48637,-0.70026 1.08082,-0.90136 0.59446,-0.20111 2.05356,-1.66419 3.24247,-3.2513 1.1889,-1.58712 3.20386,-3.95387 4.47768,-5.25944 1.27382,-1.30557 2.31604,-2.65374 2.31604,-2.99592 0,-0.34218 0.63062,-1.23421 1.40137,-1.98229 1.95286,-1.8954 4.77475,-5.77747 4.77475,-6.56862 0,-0.36235 0.25408,-0.65882 0.56464,-0.65882 0.31054,0 1.44732,-1.43455 2.52616,-3.1879 1.07884,-1.75333 2.35335,-3.5797 2.83223,-4.05859 0.47888,-0.47888 0.8707,-1.26772 0.8707,-1.75299 0,-0.48527 0.27792,-0.88231 0.61761,-0.88231 0.33968,0 0.61761,-0.41688 0.61761,-0.92641 0,-0.50953 0.27263,-0.92642 0.60584,-0.92642 0.33322,0 0.78023,-0.69481 0.99338,-1.54403 0.21314,-0.84922 0.61324,-1.54403 0.8891,-1.54403 0.27588,0 0.68472,-0.83377 0.90854,-1.85283 0.22382,-1.01906 0.6171,-1.85284 0.87395,-1.85284 0.64514,0 7.46381,-13.71096 7.46381,-15.00818 0,-0.57734 0.21236,-1.04972 0.47192,-1.04972 0.64436,0 2.61614,-4.65812 2.61614,-6.18035 0,-0.67705 0.27464,-1.23099 0.61031,-1.23099 0.33567,0 0.78808,-1.1117 1.00535,-2.47044 0.21727,-1.35875 0.63745,-2.47045 0.93372,-2.47045 0.29627,0 0.53867,-0.69481 0.53867,-1.54403 0,-0.84922 0.2609,-1.54403 0.57978,-1.54403 0.31887,0 0.76731,-1.25066 0.99654,-2.77925 0.22922,-1.52859 0.6316,-2.77925 0.89416,-2.77925 0.4912,0 0.66786,-0.65621 1.95365,-7.25694 0.41356,-2.12304 0.95323,-3.86007 1.19927,-3.86007 0.24603,0 0.64266,-2.08444 0.88139,-4.63209 0.23874,-2.54765 0.67934,-4.63208 0.97912,-4.63208 0.29977,0 0.54505,-0.97652 0.54505,-2.17003 0,-1.19351 0.27271,-2.65261 0.60602,-3.24246 1.21437,-2.14896 2.02662,-15.69813 2.02662,-33.80585 0,-18.10772 -0.81225,-31.65689 -2.02662,-33.80585 -0.33331,-0.58985 -0.60602,-2.04895 -0.60602,-3.24246 0,-1.19351 -0.24528,-2.17003 -0.54505,-2.17003 -0.29978,0 -0.74038,-2.08443 -0.97912,-4.63208 -0.23873,-2.54765 -0.65625,-4.63209 -0.92781,-4.63209 -0.27157,0 -0.68419,-1.52421 -0.91695,-3.38713 -0.23276,-1.86292 -0.68167,-3.54687 -0.99758,-3.74211 -0.31591,-0.19525 -0.57439,-1.17237 -0.57439,-2.17138 0,-0.99902 -0.24637,-1.81639 -0.54749,-1.81639 -0.30111,0 -0.73503,-1.25066 -0.96425,-2.77925 -0.22923,-1.52859 -0.67767,-2.77925 -0.99654,-2.77925 -0.31888,0 -0.57978,-0.69481 -0.57978,-1.54403 0,-0.84922 -0.2424,-1.54403 -0.53867,-1.54403 -0.29627,0 -0.71645,-1.1117 -0.93372,-2.47045 -0.21727,-1.35874 -0.66968,-2.47044 -1.00535,-2.47044 -0.33567,0 -0.61031,-0.55394 -0.61031,-1.23099 0,-1.52223 -1.97178,-6.18035 -2.61614,-6.18035 -0.25956,0 -0.47192,-0.47238 -0.47192,-1.04972 0,-1.29722 -6.81867,-15.00818 -7.46381,-15.00818 -0.25685,0 -0.65013,-0.83378 -0.87395,-1.85284 -0.22382,-1.01906 -0.63266,-1.85283 -0.90854,-1.85283 -0.27586,0 -0.67596,-0.69481 -0.8891,-1.54403 -0.21315,-0.84922 -0.66016,-1.54403 -0.99338,-1.54403 -0.33321,0 -0.60584,-0.41689 -0.60584,-0.92642 0,-0.50953 -0.27793,-0.92641 -0.61761,-0.92641 -0.33969,0 -0.61761,-0.39704 -0.61761,-0.88231 0,-0.48527 -0.39182,-1.27411 -0.8707,-1.75299 -0.47888,-0.47889 -1.75339,-2.30526 -2.83223,-4.05859 -1.07884,-1.75335 -2.21562,-3.1879 -2.52616,-3.1879 -0.31056,0 -0.56464,-0.35025 -0.56464,-0.77833 0,-0.42808 -0.69481,-1.52765 -1.54403,-2.44348 -0.84922,-0.91585 -1.54403,-1.85388 -1.54403,-2.08452 0,-0.23063 -0.69481,-1.06326 -1.54403,-1.85029 -0.84921,-0.78703 -1.54403,-1.71093 -1.54403,-2.05311 0,-0.34218 -1.04222,-1.69035 -2.31604,-2.99592 -1.27382,-1.30557 -3.28878,-3.67232 -4.47768,-5.25944 -1.18891,-1.58711 -2.64801,-3.05019 -3.24247,-3.2513 -0.59445,-0.2011 -1.08082,-0.60671 -1.08082,-0.90136 0,-0.69865 -6.71134,-7.40999 -7.40999,-7.40999 -0.29465,0 -0.70026,-0.48637 -0.90136,-1.08082 -0.20111,-0.59446 -1.65934,-2.05356 -3.24053,-3.24247 -1.58119,-1.1889 -3.99389,-3.20386 -5.36156,-4.47768 -1.36767,-1.27382 -2.72068,-2.31604 -3.0067,-2.31604 -0.28601,0 -1.16395,-0.694815 -1.95098,-1.544031 -0.78703,-0.849216 -1.61966,-1.544029 -1.85029,-1.544029 -0.23064,0 -1.16867,-0.694813 -2.08452,-1.544029 -0.91583,-0.849216 -2.0154,-1.544029 -2.44348,-1.544029 -0.42808,0 -0.77833,-0.254086 -0.77833,-0.564639 0,-0.310548 -1.43455,-1.447324 -3.1879,-2.526167 -1.75333,-1.078838 -3.5797,-2.353341 -4.05859,-2.832225 -0.47888,-0.478884 -1.26772,-0.870697 -1.75299,-0.870697 -0.48527,0 -0.88549,-0.208444 -0.88939,-0.463208 -0.004,-0.254765 -1.1156,-0.994293 -2.47045,-1.643391 -1.35484,-0.649103 -2.46336,-1.391312 -2.46336,-1.649362 0,-0.258044 -0.83377,-0.652303 -1.85283,-0.876125 -1.01906,-0.223823 -1.85284,-0.615358 -1.85284,-0.870073 0,-0.532171 -7.4475,-4.379626 -8.47764,-4.379626 -0.37597,0 -0.77624,-0.208444 -0.88947,-0.463209 -0.28204,-0.634614 -4.66865,-2.624849 -5.78533,-2.624849 -0.498,0 -0.90546,-0.212359 -0.90546,-0.471917 0,-0.64436 -4.65812,-2.616141 -6.18035,-2.616141 -0.67705,0 -1.23099,-0.274639 -1.23099,-0.610311 0,-0.335672 -1.1117,-0.788085 -2.47044,-1.005354 -1.35875,-0.21727 -2.47045,-0.637444 -2.47045,-0.933718 0,-0.296268 -0.69481,-0.538675 -1.54403,-0.538675 -0.84922,0 -1.54403,-0.260897 -1.54403,-0.57977 0,-0.318873 -1.25066,-0.767315 -2.77925,-0.996541 -1.52859,-0.229227 -2.77925,-0.663142 -2.77925,-0.964259 0,-0.301116 -0.81737,-0.547487 -1.81639,-0.547487 -0.99901,0 -1.97613,-0.258477 -2.17138,-0.574385 -0.19524,-0.315915 -1.87919,-0.764826 -3.74211,-0.997585 -1.86292,-0.232753 -3.38713,-0.64538 -3.38713,-0.916943 0,-0.271564 -2.08444,-0.689084 -4.63209,-0.927819 -2.54765,-0.238734 -4.63208,-0.679334 -4.63208,-0.979112 0,-0.299776 -0.97652,-0.545049 -2.17003,-0.545049 -1.19351,0 -2.65261,-0.272712 -3.24246,-0.606026 -4.79165,-2.707717 -62.82005,-2.707717 -67.6117,0 -0.58985,0.333314 -2.04895,0.606026 -3.24246,0.606026 -1.19351,0 -2.17003,0.245273 -2.17003,0.545049 0,0.299778 -2.08443,0.740378 -4.63208,0.979112 -2.54765,0.238735 -4.63209,0.656255 -4.63209,0.927819 0,0.271563 -1.52421,0.68419 -3.38713,0.916943 -1.86292,0.232759 -3.54687,0.68167 -3.74211,0.997585 -0.19525,0.315908 -1.17237,0.574385 -2.17138,0.574385 -0.99902,0 -1.81639,0.246371 -1.81639,0.547487 0,0.301117 -1.25066,0.735032 -2.77925,0.964259 -1.52859,0.229226 -2.77925,0.677668 -2.77925,0.996541 0,0.318873 -0.69481,0.57977 -1.54403,0.57977 -0.84922,0 -1.54403,0.242407 -1.54403,0.538675 0,0.296274 -1.1117,0.716448 -2.47045,0.933718 -1.35874,0.217269 -2.47044,0.669682 -2.47044,1.005354 0,0.335672 -0.55394,0.610311 -1.23099,0.610311 -1.52223,0 -6.18035,1.971781 -6.18035,2.616141 0,0.259558 -0.41498,0.471917 -0.92218,0.471917 -1.28713,0 -5.87155,2.042646 -5.87155,2.616141 0,0.259558 -0.33078,0.471917 -0.73507,0.471917 -1.06682,0 -8.5291,3.831823 -8.5291,4.379626 0,0.254715 -0.83378,0.64625 -1.85284,0.870073 -1.01906,0.223822 -1.85283,0.618081 -1.85283,0.876125 0,0.25805 -1.10852,1.000259 -2.46336,1.649362 -1.35485,0.649098 -2.46655,1.388626 -2.47045,1.643391 -0.004,0.254764 -0.40412,0.463208 -0.88939,0.463208 -0.48527,0 -1.27411,0.391813 -1.75299,0.870697 -0.47889,0.478884 -2.30526,1.753387 -4.05859,2.832225 -1.75335,1.078843 -3.1879,2.215619 -3.1879,2.526167 0,0.310553 -0.35025,0.564639 -0.77833,0.564639 -0.42808,0 -1.52765,0.694813 -2.44348,1.544029 -0.91585,0.849216 -1.85388,1.544029 -2.08452,1.544029 -0.23063,0 -1.06326,0.694813 -1.85029,1.544029 -0.78703,0.849216 -1.66497,1.544031 -1.95098,1.544031 -0.28602,0 -1.63903,1.04222 -3.0067,2.31604 -1.36767,1.27382 -3.78037,3.28878 -5.36156,4.47768 -1.58119,1.18891 -3.03942,2.64801 -3.24053,3.24247 -0.2011,0.59445 -0.60671,1.08082 -0.90136,1.08082 -0.69865,0 -7.40999,6.71134 -7.40999,7.40999 0,0.29465 -0.48637,0.70026 -1.08082,0.90136 -0.59446,0.20111 -2.05356,1.65934 -3.24247,3.24053 -1.1889,1.58119 -3.20386,3.99389 -4.47768,5.36156 -1.27382,1.36767 -2.31604,2.72068 -2.31604,3.0067 0,0.28601 -0.694815,1.16395 -1.544031,1.95098 -0.849216,0.78703 -1.544029,1.61966 -1.544029,1.85029 0,0.23064 -0.694813,1.16867 -1.544029,2.08452 -0.849216,0.91583 -1.544029,2.0154 -1.544029,2.44348 0,0.42808 -0.254086,0.77833 -0.564639,0.77833 -0.310548,0 -1.447324,1.43455 -2.526167,3.1879 -1.078838,1.75333 -2.353341,3.5797 -2.832225,4.05859 -0.478884,0.47888 -0.870697,1.26772 -0.870697,1.75299 0,0.48527 -0.245513,0.88231 -0.545579,0.88231 -0.300067,0 -0.708889,0.48636 -0.908488,1.08082 -0.410261,1.22185 -1.733216,3.39189 -2.357041,3.86626 -0.22783,0.17324 -0.605364,1.0765 -0.838963,2.00723 -0.2336,0.93074 -0.625085,1.69225 -0.869968,1.69225 -0.535117,0 -4.361746,7.48271 -4.361746,8.5291 0,0.40429 -0.212359,0.73507 -0.471917,0.73507 -0.573495,0 -2.616141,4.58442 -2.616141,5.87155 0,0.5072 -0.212359,0.92218 -0.471917,0.92218 -0.64436,0 -2.616141,4.65812 -2.616141,6.18035 0,0.67705 -0.274639,1.23099 -0.610311,1.23099 -0.335672,0 -0.788085,1.1117 -1.005354,2.47044 -0.21727,1.35875 -0.637444,2.47045 -0.933718,2.47045 -0.296268,0 -0.538675,0.69481 -0.538675,1.54403 0,0.84922 -0.260897,1.54403 -0.57977,1.54403 -0.318873,0 -0.767315,1.25066 -0.996541,2.77925 -0.229227,1.52859 -0.631601,2.77925 -0.89416,2.77925 -0.491205,0 -0.66786,0.65621 -1.953653,7.25694 -0.413565,2.12304 -0.953228,3.86007 -1.199266,3.86007 -0.246038,0 -0.642662,2.08444 -0.8814,4.63209 -0.238731,2.54765 -0.679335,4.63208 -0.979112,4.63208 -0.299776,0 -0.545048,0.97652 -0.545048,2.17003 0,1.19351 -0.272712,2.65261 -0.606026,3.24246 -2.707717,4.79165 -2.707717,62.82005 0,67.6117 0.333314,0.58985 0.606026,2.04895 0.606026,3.24246 0,1.19351 0.245272,2.17003 0.545048,2.17003 0.299777,0 0.740381,2.08443 0.979112,4.63208 0.238738,2.54765 0.635362,4.63209 0.8814,4.63209 0.246038,0 0.785701,1.73703 1.199266,3.86007 1.285793,6.60073 1.462448,7.25694 1.953653,7.25694 0.262559,0 0.663964,1.24418 0.891998,2.76485 0.228041,1.52067 0.676489,2.9267 0.996547,3.12451 0.320059,0.19781 0.581926,0.8991 0.581926,1.55843 0,0.65932 0.242407,1.19877 0.538675,1.19877 0.296274,0 0.716448,1.1117 0.933718,2.47045 0.217269,1.35874 0.669682,2.47044 1.005354,2.47044 0.335672,0 0.610311,0.55394 0.610311,1.23099 0,1.52223 1.971781,6.18035 2.616141,6.18035 0.259558,0 0.471917,0.41498 0.471917,0.92218 0,1.28713 2.042646,5.87155 2.616141,5.87155 0.259558,0 0.471917,0.33078 0.471917,0.73507 0,1.04639 3.826629,8.5291 4.361746,8.5291 0.244883,0 0.636368,0.76151 0.869968,1.69225 0.233599,0.93073 0.611133,1.83399 0.838963,2.00723 0.623825,0.47437 1.94678,2.64441 2.357041,3.86626 0.199599,0.59446 0.608421,1.08082 0.908488,1.08082 0.300066,0 0.545579,0.39704 0.545579,0.88231 0,0.48527 0.391813,1.27411 0.870697,1.75299 0.478884,0.47889 1.753387,2.30526 2.832225,4.05859 1.078843,1.75335 2.215619,3.1879 2.526167,3.1879 0.310553,0 0.564639,0.29647 0.564639,0.65882 0,0.79115 2.821886,4.67322 4.774749,6.56862 0.770749,0.74808 1.401369,1.64011 1.401369,1.98229 0,0.34218 1.04222,1.69035 2.31604,2.99592 1.27382,1.30557 3.28878,3.67232 4.47768,5.25944 1.18891,1.58711 2.64801,3.05019 3.24247,3.2513 0.59445,0.2011 1.08082,0.60671 1.08082,0.90136 0,0.43878 3.42525,4.00087 7.54232,7.84363 0.43749,0.40833 1.10137,1.10314 1.47529,1.54402 0.95971,1.13157 4.50133,4.19846 4.84835,4.19846 0.15906,0 1.42336,1.1117 2.80955,2.47045 1.38619,1.35874 2.80032,2.47044 3.1425,2.47044 0.34218,0 1.23421,0.63062 1.98229,1.40137 1.8954,1.95286 5.77747,4.77475 6.56862,4.77475 0.36235,0 0.65882,0.25526 0.65882,0.56724 0,0.31198 1.04222,1.2034 2.31604,1.98093 1.27383,0.77753 2.40869,1.63397 2.52192,1.90321 0.11323,0.26923 0.5996,0.48951 1.08082,0.48951 0.48122,0 0.87495,0.27263 0.87495,0.60585 0,0.33321 0.69481,0.78023 1.54403,0.99337 0.84921,0.21314 1.54403,0.63532 1.54403,0.93818 0,0.30286 0.41688,0.55066 0.92641,0.55066 0.50953,0 0.92642,0.27263 0.92642,0.60584 0,0.33322 0.69481,0.78023 1.54403,0.99338 0.84922,0.21314 1.54403,0.61324 1.54403,0.8891 0,0.27588 0.83377,0.68472 1.85283,0.90854 1.01906,0.22382 1.85284,0.6171 1.85284,0.87395 0,0.64514 13.71096,7.46381 15.00818,7.46381 0.57734,0 1.04972,0.21236 1.04972,0.47192 0,0.64436 4.65812,2.61614 6.18035,2.61614 0.67705,0 1.23099,0.27464 1.23099,0.61031 0,0.33567 1.1117,0.78808 2.47044,1.00535 1.35875,0.21727 2.47045,0.63745 2.47045,0.93372 0,0.29627 0.69481,0.53867 1.54403,0.53867 0.84922,0 1.54403,0.2609 1.54403,0.57978 0,0.31887 1.25066,0.76731 2.77925,0.99654 1.52859,0.22922 2.77925,0.6316 2.77925,0.89416 0,0.4912 0.65621,0.66786 7.25694,1.95365 2.12304,0.41356 3.86007,0.95323 3.86007,1.19927 0,0.24603 2.08444,0.64266 4.63209,0.88139 2.54765,0.23874 4.63208,0.67934 4.63208,0.97912 0,0.29977 1.05612,0.54505 2.34693,0.54505 1.29081,0 2.616,0.26908 2.94488,0.59795 0.32887,0.32887 3.72934,0.78814 7.55661,1.02059 3.82726,0.23245 7.10424,0.65819 7.28216,0.94607 0.17793,0.2879 8.76742,0.52344 19.08776,0.52344 10.32034,0 18.90983,-0.23554 19.08776,-0.52344 z"
       id="path1" />
    <path
       style="fill:#ffffff;stroke-width:0.617612"
       d="m 211.22316,221.7314 c 0,-58.06139 0.20877,-87.70969 0.61761,-87.70969 0.33969,0 0.61761,-0.27792 0.61761,-0.61761 0,-0.77257 1.66887,-2.44644 3.84854,-3.86007 1.49467,-0.96937 3.61115,-1.08082 20.52539,-1.08082 11.91666,0 18.85888,0.22302 18.85888,0.60584 0,0.33322 0.69482,0.78024 1.54403,0.99337 0.84922,0.21314 1.54403,0.75444 1.54403,1.20288 0,0.44844 0.48637,1.30163 1.08082,1.89596 1.01093,1.01074 1.10079,5.11707 1.38963,63.50371 l 0.3088,62.42309 56.97467,0.15762 c 37.26695,0.1031 56.97467,0.37014 56.97467,0.77201 0,0.33792 0.40426,0.6144 0.89835,0.6144 1.16383,0 4.04254,2.87871 4.04254,4.04254 0,0.49409 0.27793,0.89835 0.61761,0.89835 0.3978,0 0.61762,6.48901 0.61762,18.23181 0,18.1851 -0.004,18.23772 -1.48021,20.53559 -0.81412,1.26707 -2.13427,2.85962 -2.93366,3.53899 -1.43548,1.21996 -2.47048,1.23725 -83.75019,1.39847 l -82.29674,0.16323 z"
       id="path2" />
  </g>
</svg>
