<?xml version="1.0" encoding="UTF-8" standalone="no"?>
<!-- Created with Inkscape (http://www.inkscape.org/) -->

<svg
   version="1.1"
   id="svg1"
   width="857.33331"
   height="213.33333"
   viewBox="0 0 857.33331 213.33333"
   sodipodi:docname="colorglass.svg"
   inkscape:version="1.4.2 (f4327f4, 2025-05-13)"
   xmlns:inkscape="http://www.inkscape.org/namespaces/inkscape"
   xmlns:sodipodi="http://sodipodi.sourceforge.net/DTD/sodipodi-0.dtd"
   xmlns="http://www.w3.org/2000/svg"
   xmlns:svg="http://www.w3.org/2000/svg">
  <defs
     id="defs1" />
  <sodipodi:namedview
     id="namedview1"
     pagecolor="#ffffff"
     bordercolor="#000000"
     borderopacity="0.25"
     inkscape:showpageshadow="2"
     inkscape:pageopacity="0.0"
     inkscape:pagecheckerboard="0"
     inkscape:deskcolor="#d1d1d1"
     inkscape:zoom="1.0486003"
     inkscape:cx="396.24248"
     inkscape:cy="98.703001"
     inkscape:window-width="1920"
     inkscape:window-height="1009"
     inkscape:window-x="-8"
     inkscape:window-y="-8"
     inkscape:window-maximized="1"
     inkscape:current-layer="g1" />
  <g
     inkscape:groupmode="layer"
     inkscape:label="Image"
     id="g1">
    <path
       style="fill:#ffffff;stroke-width:0.953652"
       d="m 189.77678,212.62391 c -4.98283,-0.37712 -45.01743,-0.73818 -88.96579,-0.80236 -68.277346,-0.0997 -80.351659,-0.32166 -82.96774,-1.52504 C 11.326701,207.29893 9.1179535,205.1766 5.3033605,198.24722 L 2.8790487,193.84335 2.873207,107.65026 C 2.869994,60.244063 3.1457694,20.384315 3.4860409,19.073044 3.8263125,17.761772 4.7904433,15.614213 5.628554,14.300692 6.4666645,12.987169 7.6195795,11.069857 8.1905873,10.039999 9.5154808,7.6504448 15.00547,4.2309789 20.503522,2.3708289 22.936955,1.547528 837.30662,1.2131774 837.30662,2.0354792 c 0,0.3372665 1.39471,0.8772038 3.09937,1.1998608 2.77782,0.525788 6.77321,3.7114915 11.3819,9.075325 0.88383,1.028649 2.06158,3.507425 2.61722,5.50839 0.67705,2.438151 1.01202,32.296462 1.01558,90.525795 l 0.005,86.88769 -2.38413,3.51321 c -1.31127,1.93227 -2.38413,3.86628 -2.38413,4.29779 0,0.90976 -7.1538,5.80629 -8.48296,5.80629 -0.49204,0 -1.07305,0.53643 -1.29113,1.19206 -0.71128,2.1384 -45.68564,2.56722 -330.91816,3.15525 -198.10038,0.4084 -277.27437,0.2778 -277.27437,-0.45736 0,-0.59902 -1.99245,-1.029 -4.76826,-1.029 -2.62254,0 -4.76826,0.42915 -4.76826,0.95366 0,1.07628 -18.92495,1.0533 -33.37783,-0.0405 z m 642.76158,-7.69208 c 0,-0.63933 0.90374,-0.83021 2.28705,-0.48301 3.71271,0.93182 8.55863,-2.34183 12.54283,-8.4733 1.80851,-2.78322 1.85903,-5.22968 1.85903,-90.04066 0,-68.896069 -0.25,-87.263035 -1.19207,-87.577055 -0.65563,-0.218546 -1.19206,-0.874541 -1.19206,-1.457767 0,-1.463599 -4.85971,-6.409864 -6.29769,-6.409864 -0.64492,0 -1.35139,-0.5364293 -1.56994,-1.1920652 C 838.39747,7.5640073 21.13541,7.5417501 19.049603,9.2757788 11.790243,15.310823 11.225961,16.066378 10.736778,20.4064 c -0.272059,2.413706 -0.8679856,4.388557 -1.3242809,4.388557 -0.4639706,0 -0.8296275,36.147571 -0.8296275,82.014083 0,54.0403 0.3252768,82.01409 0.9536522,82.01409 0.5245092,0 0.9536522,1.4329 0.9536522,3.18422 0,5.34243 6.323665,11.89463 12.874304,13.33956 1.049018,0.2314 183.542282,0.47049 405.540592,0.53134 294.83791,0.0808 403.63329,-0.17429 403.63329,-0.94642 z"
       id="path1" />
  </g>
</svg>
