<?xml version="1.0" encoding="UTF-8" standalone="no"?>
<!-- Created with Inkscape (http://www.inkscape.org/) -->

<svg
   version="1.0"
   width="450.349"
   height="265.009"
   id="svg1340"
   sodipodi:version="0.32"
   inkscape:version="1.4.2 (f4327f4, 2025-05-13)"
   sodipodi:docname="gun.svg"
   inkscape:output_extension="org.inkscape.output.svg.inkscape"
   sodipodi:modified="true"
   xmlns:inkscape="http://www.inkscape.org/namespaces/inkscape"
   xmlns:sodipodi="http://sodipodi.sourceforge.net/DTD/sodipodi-0.dtd"
   xmlns="http://www.w3.org/2000/svg"
   xmlns:svg="http://www.w3.org/2000/svg"
   xmlns:rdf="http://www.w3.org/1999/02/22-rdf-syntax-ns#"
   xmlns:cc="http://creativecommons.org/ns#"
   xmlns:dc="http://purl.org/dc/elements/1.1/">
  <metadata
     id="metadata6">
    <rdf:RDF>
      <cc:Work
         rdf:about="">
        <dc:format>image/svg+xml</dc:format>
        <dc:type
           rdf:resource="http://purl.org/dc/dcmitype/StillImage" />
      </cc:Work>
    </rdf:RDF>
  </metadata>
  <sodipodi:namedview
     inkscape:window-height="1009"
     inkscape:window-width="1920"
     inkscape:pageshadow="2"
     inkscape:pageopacity="0.0"
     guidetolerance="10.0"
     gridtolerance="10.0"
     objecttolerance="10.0"
     borderopacity="1.0"
     bordercolor="#666666"
     pagecolor="#000000"
     id="base"
     inkscape:zoom="2.026521"
     inkscape:cx="286.45151"
     inkscape:cy="142.85566"
     inkscape:window-x="-8"
     inkscape:window-y="-8"
     inkscape:current-layer="svg1340"
     inkscape:showpageshadow="2"
     inkscape:pagecheckerboard="0"
     inkscape:deskcolor="#d1d1d1"
     inkscape:window-maximized="1" />
  <defs
     id="defs1343" />
  <path
     d="m 357.4845,3.3984274 2.17503,4.395976 h 15.55149 l 0.0272,7.8303306 c 0,3.773919 3.0353,6.841237 6.76979,6.841237 3.73449,1.8e-5 6.76979,-3.067336 6.76979,-6.841237 V 7.7944034 h 19.84719 l 0.0544,7.6380066 c 2e-5,3.429274 2.75102,6.209316 6.14446,6.209316 3.39346,9e-6 6.14447,-2.780059 6.14447,-6.209316 V 7.7944034 h 19.90156 v 8.7919506 c 4.35008,9e-6 5.79103,2.197988 5.79103,4.395975 v 26.375854 c 0,2.197997 -1.44096,4.395976 -5.79103,4.395976 v 21.979877 c 10e-6,2.197997 -2.17503,2.197988 -2.17503,2.197988 H 303.10866 c -4.82904,-9e-6 -8.70013,8.729027 -8.70013,15.385913 1e-5,1e-5 -62.26034,-2e-5 -73.13551,0 -17.13603,-1e-5 -20.77158,9.179753 -20.77158,14.094603 -1e-5,12.93919 -9.57497,27.66717 -27.75887,27.66717 -3.89187,-1e-5 -32.76144,0 -37.11151,0 -2.17502,1e-5 -8.70013,0 -10.87516,6.59396 -2.17503,6.59398 -28.275437,90.1175 -28.275437,90.1175 9e-6,-1e-5 6.260977,1.56466 6.525097,2.19799 l -8.700135,21.97988 C 93.5788,254.4218 11.654147,234.18715 11.654147,234.18715 -0.30857091,230.89018 5.1290422,225.3952 9.4791181,214.40526 21.564468,183.87296 46.45469,117.6938 52.979786,104.50587 59.504864,91.317947 39.062225,91.383347 26.689064,90.246417 14.300285,89.108057 11.278553,78.920356 14.29137,72.085546 23.803438,73.849809 34.226786,75.77005 42.050235,61.782478 44.225263,57.38652 46.45469,47.358183 46.45469,47.358183 35.579492,31.972277 24.704347,34.170256 18.179252,34.170256 14.523199,25.303187 14.431777,21.672717 17.472357,18.592018 c 0.428399,1.571886 1.47038,2.694513 2.664422,3.709104 -2.905912,3.321749 -0.668034,5.212818 2.039097,7.583058 3.972353,-7.690021 12.774497,-0.777244 15.741803,0.576972 4.788091,-9e-6 1.453788,-5.487356 2.963476,-5.604869 2.572672,-0.200272 5.654069,2.291982 5.682286,-0.741821 -6.519755,-0.429751 -6.009749,-1.342874 -7.286361,-2.967284 0.879077,-0.653734 1.506567,-1.534028 2.093459,-2.445261 0.662539,2.906918 1.10201,2.280412 7.25918,2.280412 l 6.525105,-4.395975 V 9.9923904 h 23.925363 l 2.175038,-6.593963 h 28.275425 l 2.17504,4.395976 h 25.55665 c 4.35008,8e-6 8.94482,1.75839 8.94482,8.3523526 h 48.99264 l 3.50724,-8.3523526 h 121.80189 l 2.17503,-2.197988 h 15.22523 l 2.17504,-2.197988 z m -2.57497,2.374029 h -12.20691 l -2.20203,2.021947 h 15.39582 z M 103.27744,7.9317774 H 86.067486 l -2.120658,8.2149786 h 15.279618 c -0.09272,-0.416773 -0.13595,-2.110226 -0.13595,-2.555161 9e-6,-2.678766 1.762424,-4.9478986 4.186944,-5.6598176 z m 1.19626,2.3353616 c -1.75378,0 -3.18098,1.442258 -3.18098,3.214557 0,0.713186 0.23557,1.362691 0.62533,1.895765 l 4.43163,-4.478401 c -0.52816,-0.395541 -1.16858,-0.631921 -1.87598,-0.631921 z m 2.52848,1.318793 -4.40443,4.4784 c 0.5251,0.387777 1.17625,0.631921 1.87595,0.631921 1.75381,0 3.181,-1.442258 3.181,-3.214557 10e-6,-0.717872 -0.25808,-1.360853 -0.65252,-1.895764 z m 108.942,0.357173 h -14.46397 l -0.27188,19.287342 h 14.73585 c 1.70592,9e-6 2.66442,-0.615445 2.66442,-3.928903 V 14.58069 c 0,-1.38206 -0.29468,-2.637585 -2.66442,-2.637585 z m -76.47962,0.02747 h -29.6892 v 4.176177 h 32.76143 c 2e-5,-2.470811 -0.21083,-4.176177 -3.07223,-4.176177 z m 220.98342,0.302228 c -46.50574,-9e-6 -93.03653,0 -139.52841,0 2.38319,1.603414 1.46764,6.491801 1.44096,9.231548 h 138.08745 z m 77.83902,0.109899 h -9.4614 v 1.86829 c 0,3.188005 -1.2562,6.084285 -3.28974,8.214979 H 438.287 Z m -32.8702,0 h -9.54296 v 2.555161 c 1e-5,2.857349 -0.99747,5.480489 -2.66441,7.528108 h 15.49711 c -2.02833,-2.130923 -3.28974,-5.025708 -3.28974,-8.214979 z m -32.97894,0 h -5.27446 v 10.083269 h 7.99325 c -1.67279,-2.04761 -2.69161,-4.670768 -2.69161,-7.528108 z M 30.821629,13.67402 c 1.264968,0.07726 2.464113,0.25545 3.58881,0.494547 -9.1e-4,0.644565 -0.09728,1.374587 -0.326262,2.115563 -0.661639,2.140586 -2.067497,3.603821 -3.126616,3.269507 -1.059137,-0.334305 -1.368516,-2.337797 -0.706877,-4.4784 0.158537,-0.513019 0.344337,-0.980214 0.570945,-1.401217 z m -2.419721,0 c 0.170927,0.597554 0.271891,1.294492 0.271882,2.033139 -3.6e-5,2.242571 -0.902319,4.066277 -2.011907,4.066277 -1.109615,-9e-6 -2.011925,-1.823688 -2.011907,-4.066277 -3.6e-5,-0.560654 0.06113,-1.107206 0.163122,-1.593541 1.168716,-0.261834 2.378286,-0.392473 3.58881,-0.439598 z m 8.808885,1.318793 c 1.49889,0.575521 2.590065,1.278402 2.936295,1.978189 0.04494,0.09088 0.06768,0.16382 0.108751,0.247273 -0.246866,0.458738 -0.565278,0.925995 -0.951578,1.373743 -1.458382,1.690323 -3.323432,2.467795 -4.159755,1.730915 -0.836368,-0.736889 -0.316438,-2.705653 1.14189,-4.395976 0.30141,-0.349383 0.602801,-0.668355 0.924397,-0.934144 z M 21.52336,15.267561 c 0.494997,0.351124 0.988174,0.812851 1.440962,1.373742 1.402765,1.737694 1.83857,3.714653 0.978759,4.423451 -0.859792,0.708789 -2.702564,-0.103121 -4.105374,-1.840815 -0.517248,-0.640722 -0.876876,-1.315794 -1.114709,-1.950714 0.804029,-0.82989 1.755552,-1.483202 2.800362,-2.005664 z m 54.892414,0.686871 H 63.419945 l -2.066287,6.209316 H 142.53679 V 18.179895 H 76.415774 Z m -14.681483,0 H 59.858334 L 44.252472,62.689148 c -4.128736,11.217334 -16.074797,14.650028 -24.360385,12.803279 -2.165905,3.761926 -0.499418,9.790338 11.364555,9.973369 2.440334,1.8e-5 1.907623,-1.895764 0.190312,-1.895764 -6.104173,0 -6.785916,-3.966779 -2.555662,-6.429114 -3.6e-5,0 4.892321,-1.143587 9.080767,-3.571731 4.188427,-2.428117 7.440178,-7.583471 8.455432,-10.934989 z m 129.251379,2.225463 h -44.77851 v 4.203652 h 44.77851 z m 249.85699,1.978189 v 8.324879 l 2.74599,9.066699 V 23.097893 c 0.3083,-2.499069 -0.66367,-2.939809 -2.74599,-2.939809 z M 71.141319,23.482541 H 60.973034 L 50.260993,57.084279 h 6.144472 c 0.14975,-1.362172 1.640798,-3.654155 4.186936,-3.654155 H 71.141319 V 46.94606 c -0.620885,0.134781 -1.269816,0.219799 -1.930336,0.219799 -5.04319,9e-6 -9.135165,-4.135171 -9.135147,-9.231549 -2.7e-5,-5.096369 4.091957,-9.23154 9.135147,-9.231548 0.660483,8e-6 1.309469,0.08503 1.930336,0.219798 z m 42.168471,0.439597 h -3.45287 v 33.684163 h 3.45287 z m -5.79103,0 h -3.45287 v 33.684163 h 3.45287 z m -5.81822,0 h -3.425672 v 33.684163 h 3.425672 z m -5.791022,0 H 92.45665 v 33.684163 h 3.452868 z m -5.818218,0 H 86.665621 V 57.606301 H 90.0913 Z m -5.791029,0 h -3.452869 v 33.684163 h 3.452869 z m -5.81821,0 H 75.056382 V 30.8458 c 1.997025,1.694059 3.262557,4.249449 3.262548,7.08851 -2.7e-5,2.839071 -1.265505,5.366994 -3.262548,7.061036 v 12.610955 h 3.425679 z M 360.25767,24.059512 H 222.52366 c 1e-5,4.574514 0.21446,10.660241 -6.85136,10.660241 h -64.19068 c -9.0802,9e-6 -8.94483,-9.174401 -8.94483,-10.660241 h -26.83447 v 33.546789 h 181.91437 c 1.44993,-1.733465 3.89696,-4.26669 6.96011,-6.731338 h 55.68087 z m -169.272,0 h -44.77851 c 1e-5,9e-6 -0.4095,6.97862 4.40445,6.978612 h 37.54652 c 3.35336,-9e-6 2.82754,-2.302428 2.82754,-6.978612 z m 247.49164,0.329698 h -15.36117 c -1.7606,1.069673 -3.80825,1.703441 -6.00853,1.703441 -2.20027,9e-6 -4.25208,-0.633777 -6.00853,-1.703441 h -19.90156 c -1.9528,1.485682 -4.38211,2.390312 -7.01448,2.390312 -2.63237,9e-6 -5.05633,-0.904639 -7.01448,-2.390312 h -10.19548 v 26.485753 h 71.50423 z M 69.156603,30.461152 c -1.305886,9e-6 -2.519112,0.395664 -3.53443,1.071519 l 8.917635,9.01175 c 0.662176,-1.022645 1.060357,-2.259206 1.06032,-3.57173 -3.6e-5,-3.592515 -2.888492,-6.511539 -6.443525,-6.511539 z m -5.383206,2.967283 c -0.660984,1.022029 -1.060311,2.233077 -1.060329,3.544256 -3.7e-5,3.59254 2.888555,6.511538 6.443535,6.511538 1.311097,9e-6 2.516673,-0.390644 3.534429,-1.071519 z M 301.04237,57.468927 c -2.11809,1.177268 -9.21384,12.949682 -9.10794,20.441286 v 10.907514 c 0,-6.857941 6.03319,-15.19359 9.10794,-15.19359 z M 139.11112,60.710959 H 48.955972 c -1.8e-5,9e-6 -0.543582,4.194086 -3.724741,8.434778 l 10.358597,-5.852143 h 83.521292 z m 156.16741,1.016569 h -86.70228 c 3.72469,1.592908 6.36199,5.301529 6.36198,9.643672 1e-5,3.082642 -1.32822,5.855852 -3.42567,7.775381 1.64093,-1.111003 3.6086,-1.75839 5.73664,-1.75839 l 72.67332,0.522022 c 10e-6,-4.796326 1.75522,-10.082372 5.35601,-16.182685 z m -144.83005,0.192324 c -4.65004,0.336459 -8.31949,4.254847 -8.3195,9.039225 0,4.784395 3.66947,8.702774 8.3195,9.039225 v -2.033139 c -3.53408,-0.335044 -6.30759,-3.347579 -6.3076,-7.006086 1e-5,-3.658498 2.77354,-6.671034 6.3076,-7.006086 z m 216.90523,0.137374 v 6.374165 h 57.93746 c -17.9637,-4.070251 -38.77532,-5.27605 -57.93746,-6.374165 z m -6.85135,0 h -56.38775 v 6.374165 h 56.38775 z M 177.85391,63.26612 c -0.0731,0.103261 -0.14711,0.196948 -0.2175,0.302223 h -22.53879 v 1.373742 h 21.75033 c -0.21271,0.409573 -0.42465,0.832185 -0.59813,1.263843 h -22.94661 v 1.401217 h 22.45722 c -0.11876,0.414787 -0.2173,0.83455 -0.29906,1.263843 h -24.17006 v 1.373743 h 24.00693 c -0.0376,0.411841 -0.0792,0.8427 -0.0815,1.263843 h -21.91346 v 1.401217 h 21.99502 c 0.0389,0.427043 0.088,0.848441 0.16314,1.263843 h -20.36376 v 1.401217 h 20.66282 c 0.12299,0.429443 0.27437,0.851984 0.43501,1.263843 H 157.5174 v 1.373743 h 19.33063 c 0.29663,0.571494 0.63889,1.124851 1.00595,1.64849 z m 26.37228,0.302223 h -0.21751 -24.7682 v 14.561669 h 24.7682 0.21751 v -0.02747 c 3.87322,-0.118102 6.98729,-3.310811 6.98729,-7.25336 2e-5,-3.942926 -3.11356,-7.163321 -6.98729,-7.280834 z M 71.630703,65.134409 H 56.677338 v 4.231127 h 14.953365 z m 67.398847,0.05495 H 73.234787 c 9.718509,5.567468 20.935325,8.764476 32.897383,8.764476 11.96207,9e-6 23.17885,-3.197017 32.89738,-8.764476 z m -86.076945,1.785865 c -5.84167,2.603578 -18.351836,9.726087 -18.351854,9.726096 -2.533066,1.477874 -2.926189,3.132133 0.407823,3.132133 17.868201,0.712781 22.593161,10.412964 22.593161,10.412964 4.264058,-2.53073 11.616434,-9.821284 12.452065,-16.979453 -1.827489,1.641563 -24.614155,5.81475 -17.101195,-6.29174 z m 53.505825,12.913178 c -3.22308,1.8e-5 -5.84541,2.650009 -5.84541,5.907092 10e-6,1.565213 0.61885,2.954813 1.60409,4.011333 l 5.57352,-9.753576 c -0.4304,-0.102276 -0.87105,-0.164849 -1.3322,-0.164849 z m 4.2413,1.840815 -5.6007,9.78105 c 0.43327,0.10373 0.89489,0.16484 1.3594,0.16484 3.22306,1e-5 5.81821,-2.62253 5.81821,-5.879613 1e-5,-1.570664 -0.58552,-3.00864 -1.57691,-4.066277 z m 93.06427,0.02747 h -19.73844 c -0.72298,9e-6 -1.30502,0.588181 -1.30502,1.318793 0,0.73062 0.58204,1.318792 1.30502,1.318792 H 203.764 c 0.72299,9e-6 1.30502,-0.588181 1.30502,-1.318792 1e-5,-0.730603 -0.58204,-1.318793 -1.30502,-1.318793 z m -28.41138,0 h -33.54989 c -0.72297,9e-6 -1.30502,0.588181 -1.30502,1.318793 0,0.73062 0.58204,1.318792 1.30502,1.318792 h 33.54989 c 0.72299,9e-6 1.30501,-0.588181 1.30501,-1.318792 10e-6,-0.730603 -0.58203,-1.318793 -1.30501,-1.318793 z m 29.96108,8.819425 h -20.77156 c 5.66601,3.31763 9.46139,9.504448 9.46139,16.622288 10e-6,10.6369 -8.47855,19.20492 -19.00435,19.20492 l -47.66043,-0.0275 -1.3594,3.37939 h 46.8176 c 13.32359,0 24.18237,-10.81775 24.38756,-24.23281 0.47723,-6.099248 3.55926,-11.460378 8.12919,-14.946318 z m -32.21768,0 h -9.84203 c -5.45992,8.44639 -6.5821,18.473408 -3.94225,28.051828 -4.75853,-8.68588 -5.61578,-18.54478 -3.26254,-28.051828 h -7.34074 c -9.1149,1e-5 -16.44869,7.41118 -16.44869,16.622288 0,9.21112 7.33377,16.62228 16.44869,16.62228 h 24.38756 c 9.11492,2e-5 16.47587,-7.41118 16.47587,-16.62228 1e-5,-9.211108 -7.36096,-16.622288 -16.47587,-16.622288 z M 48.330647,210.39393 c -6.449638,-0.0936 -12.787606,0.76913 -18.841229,2.47274 l 63.837239,16.07278 C 85.227906,221.16327 75.108916,215.32136 63.501515,212.39959 58.423258,211.12131 53.34702,210.46672 48.330647,210.39393 Z m -28.139488,4.56083 -5.546337,16.15521 5.763829,1.37374 5.92697,-16.23764 z m 12.642377,3.10465 -5.546337,16.15521 65.359762,15.46834 5.95416,-15.08369 z"
     style="fill:#808080;fill-opacity:1;fill-rule:evenodd;stroke:none;stroke-width:0.994768px;stroke-linecap:butt;stroke-linejoin:miter;stroke-opacity:1"
     id="path9249" />
  <path
     style="fill:#ffffff;stroke-width:0.347099"
     d="M 438.3741,37.649869 V 24.565127 h -7.55233 c -7.04191,0 -7.66613,0.0519 -9.2363,0.767974 -2.39707,1.093172 -6.5552,1.099809 -8.89249,0.0142 -1.61813,-0.75158 -2.06495,-0.782169 -11.4255,-0.782169 h -9.74151 l -2.07204,1.046342 c -3.63216,1.834164 -8.03666,1.687242 -11.37238,-0.379351 -0.92638,-0.573914 -1.75752,-0.666991 -5.95614,-0.666991 h -4.87951 v 13.084737 13.084743 h 35.5641 35.5641 z"
     id="path1" />
  <path
     style="fill:#ffffff;stroke-width:0.347099"
     d="m 443.51912,28.893556 c 0.0312,-6.713491 -0.0213,-7.411377 -0.59722,-7.938077 -0.34728,-0.317608 -0.89111,-0.577469 -1.20848,-0.577469 -0.50801,0 -0.57666,0.511519 -0.57369,4.274349 0.003,3.90087 0.10567,4.594474 1.17427,7.938077 l 1.17091,3.663728 z"
     id="path2" />
  <path
     style="fill:#ffffff;stroke-width:0.347099"
     d="m 438.02882,17.586598 v -4.88497 h -4.48867 -4.48868 v 1.204068 c 0,2.148653 -0.71027,4.627332 -1.89631,6.61775 l -1.16085,1.948123 h 6.01725 6.01726 z"
     id="path3" />
  <path
     style="fill:#ffffff;stroke-width:0.347099"
     d="m 407.88624,21.851483 c -1.11793,-1.248333 -2.3996,-4.690622 -2.57673,-6.920507 l -0.17708,-2.229348 h -4.57074 -4.57074 l -0.15019,2.891574 c -0.12445,2.396231 -0.3332,3.233056 -1.21858,4.884971 l -1.06838,1.993396 h 7.44387 c 7.11082,0 7.41903,-0.02775 6.88857,-0.620086 z"
     id="path4" />
  <path
     style="fill:#ffffff;stroke-width:0.347099"
     d="m 373.7073,20.478173 c -0.88537,-1.651915 -1.09412,-2.48874 -1.21858,-4.884971 l -0.15018,-2.891574 h -2.54632 -2.54632 v 4.88497 4.884971 h 3.7649 3.7649 z"
     id="path5" />
  <path
     style="fill:#ffffff;stroke-width:0.347099"
     d="m 422.46231,68.035531 c -0.30482,-0.30804 -12.89371,-2.29644 -18.80178,-2.969719 -8.72314,-0.994083 -31.85471,-2.816627 -35.74839,-2.816627 -0.17653,0 -0.32097,1.334643 -0.32097,2.965875 v 2.965874 h 27.50752 c 15.12913,0 27.44276,-0.06543 27.36362,-0.145403 z"
     id="path6" />
  <path
     style="fill:#ffffff;stroke-width:0.347099"
     d="m 360.34025,65.21506 v -2.965875 h -27.9679 -27.96788 v 2.965875 2.965874 h 27.96788 27.9679 z"
     id="path7" />
  <path
     style="fill:#ffffff;stroke-width:0.347099"
     d="m 300.93026,53.982427 3.2588,-3.247815 h 27.90295 27.90295 V 37.475406 24.216201 h -68.66899 -68.66899 l -0.15302,3.053106 c -0.19328,3.856153 -1.02497,5.662871 -3.12996,6.79937 l -1.4628,0.789781 -32.28392,0.108795 c -17.75615,0.05984 -33.3988,0.0083 -34.76143,-0.114559 -4.90104,-0.441846 -7.8507,-3.458319 -8.30221,-8.490292 l -0.19258,-2.146201 h -13.24542 -13.24542 v 16.574007 16.574006 l 90.89562,-0.06699 90.89563,-0.06699 z"
     id="path8" />
  <path
     style="fill:#ffffff;stroke-width:0.347099"
     d="m 360.34025,16.888745 v -4.536044 h -69.41066 -69.41066 l 0.5268,1.029452 c 0.36967,0.722418 0.52679,2.075291 0.52679,4.536044 v 3.506592 h 68.88386 68.88387 z"
     id="path9" />
  <path
     style="fill:#ffffff;stroke-width:0.347099"
     d="m 355.16101,6.7698784 c -0.34835,-0.65775 -0.72296,-0.697853 -6.51901,-0.697853 -5.71091,0 -6.19397,0.04976 -6.77437,0.697853 -0.62304,0.695716 -0.60307,0.697853 6.519,0.697853 7.03697,0 7.13842,-0.01045 6.77438,-0.697853 z"
     id="path10" />
  <path
     style="fill:#ffffff;stroke-width:0.347099"
     d="m 292.45491,84.507314 c 0.68384,-3.455253 5.0406,-9.730458 7.45831,-10.742476 l 1.03843,-0.434671 -0.0144,-7.721281 -0.0144,-7.721282 -1.21474,1.390722 c -2.35199,2.692712 -5.60836,9.237478 -6.94687,13.962042 -0.46864,1.654137 -1.0784,12.386889 -0.70373,12.386889 0.0966,0 0.27544,-0.503974 0.39735,-1.119943 z"
     id="path11" />
  <path
     style="fill:#ffffff;stroke-width:0.347099"
     d="m 214.45837,77.590644 c 0.40038,-0.180418 16.39705,-0.220384 38.0674,-0.09511 l 37.37684,0.216075 v -1.585967 c 0,-2.267526 1.51413,-7.259483 3.30002,-10.879857 0.84367,-1.710286 1.53393,-3.162692 1.53393,-3.22757 0,-0.06488 -19.13327,-0.117959 -42.51836,-0.117959 h -42.51836 l 1.60784,1.430214 c 0.88431,0.786618 2.03267,2.160516 2.5519,3.053107 0.84963,1.460535 0.94408,1.954512 0.94408,4.937694 0,2.950068 -0.1018,3.497167 -0.92523,4.972202 -0.91801,1.644482 -0.79606,1.917227 0.57994,1.297169 z"
     id="path12" />
  <path
     style="fill:#ffffff;stroke-width:0.347099"
     d="m 206.10773,77.596066 c 1.53254,-0.464861 3.28348,-1.997739 4.10162,-3.590827 1.67673,-3.264885 0.47119,-7.302297 -2.75213,-9.217064 l -1.63091,-0.968821 -13.20705,-0.10276 -13.20707,-0.10276 v 7.168521 7.16852 l 12.86177,-0.02999 c 7.07399,-0.0165 13.29917,-0.162663 13.83377,-0.324819 z"
     id="path13" />
  <path
     style="fill:#ffffff;stroke-width:0.347099"
     d="m 204.54382,83.817845 c 0.60972,-0.616153 0.5145,-1.254877 -0.24857,-1.667576 -0.41538,-0.224642 -4.37194,-0.361203 -10.46513,-0.361203 -7.99158,0 -9.92078,0.0927 -10.4675,0.502954 -0.53656,0.40264 -0.5939,0.628817 -0.28748,1.134011 0.3534,0.582663 1.17519,0.638131 10.71606,0.723294 7.74783,0.06916 10.43824,-0.01378 10.75262,-0.33148 z"
     id="path14" />
  <path
     style="fill:#ffffff;stroke-width:0.347099"
     d="m 216.9667,30.833053 c 0.43004,-0.174594 0.93502,-0.724422 1.12217,-1.221841 0.18713,-0.497418 0.34025,-4.318537 0.34025,-8.491374 0,-5.997608 -0.10256,-7.728865 -0.48956,-8.264288 -0.45608,-0.630964 -1.03494,-0.684529 -8.45942,-0.782778 l -7.96986,-0.105467 v 9.613713 9.613712 l 7.33725,-0.02212 c 4.03549,-0.01216 7.68911,-0.164967 8.11917,-0.33956 z"
     id="path15" />
  <path
     style="fill:#ffffff;stroke-width:0.347099"
     d="m 190.11596,30.147951 c 0.56779,-0.57379 0.69056,-1.163088 0.69056,-3.314802 v -2.616948 h -22.30914 -22.30916 l 0.22836,1.308474 c 0.42174,2.41651 0.92414,3.548301 1.96973,4.437393 l 1.03928,0.883736 h 19.99991 c 19.53952,0 20.01579,-0.01606 20.69046,-0.697853 z"
     id="path16" />
  <path
     style="fill:#ffffff;stroke-width:0.347099"
     d="M 190.80652,20.203547 V 18.284451 H 168.5358 146.26507 v 1.919096 1.919095 h 22.27073 22.27072 z"
     id="path17" />
  <path
     style="fill:#ffffff;stroke-width:0.347099"
     d="m 142.46697,15.370644 c 0,-1.313146 -0.79869,-2.638842 -1.80299,-2.992632 -0.69217,-0.243841 -6.21759,-0.374237 -15.85794,-0.374237 h -14.79563 v 1.919095 1.919096 h 16.22828 c 13.39816,0 16.22828,-0.0822 16.22828,-0.471322 z"
     id="path18" />
  <path
     style="fill:#ffffff;stroke-width:0.347099"
     d="m 98.961369,14.120049 c 0,-2.186031 0.455635,-3.395939 1.815331,-4.8204536 l 1.0824,-1.134011 h -7.823292 -7.823275 l -0.379132,1.482937 c -0.208515,0.8156156 -0.668662,2.5428016 -1.022542,3.8381906 l -0.643436,2.355254 h 7.396977 7.396969 z"
     id="path19" />
  <path
     style="fill:#ffffff;stroke-width:0.347099"
     d="m 104.06608,12.95235 c 0.99051,-1.013559 1.80094,-1.955661 1.80094,-2.093558 0,-0.137898 -0.6077,-0.250723 -1.35044,-0.250723 -1.08409,0 -1.52673,0.211737 -2.24433,1.073551 -0.91709,1.101389 -1.04995,1.598764 -0.68432,2.561639 0.31254,0.823063 0.51563,0.71727 2.47815,-1.290909 z"
     id="path20" />
  <path
     style="fill:#ffffff;stroke-width:0.347099"
     d="m 105.76262,16.186777 c 1.02061,-0.415351 1.90178,-2.205592 1.62806,-3.307675 -0.11957,-0.48143 -0.32238,-0.875327 -0.45072,-0.875327 -0.52931,0 -3.89943,3.799812 -3.6834,4.153037 0.2759,0.451121 1.43707,0.465006 2.50606,0.02997 z"
     id="path21" />
  <path
     style="fill:#ffffff;stroke-width:0.347099"
     d="M 142.46697,20.203547 V 18.284451 H 109.31984 76.17272 v -1.046779 -1.04678 h -6.319765 -6.319756 l -0.804403,2.529717 c -0.442418,1.391344 -0.878068,2.725988 -0.968107,2.965875 -0.130401,0.347385 8.066158,0.436158 40.271291,0.436158 h 40.43499 z"
     id="path22" />
  <path
     style="fill:#ffffff;stroke-width:0.347099"
     d="m 32.513078,84.899002 c 0.372027,-0.608301 -0.218294,-0.909902 -2.57814,-1.317207 -2.672409,-0.46125 -3.82818,-1.386055 -3.82818,-3.063163 0,-1.736272 1.743636,-3.313001 4.512524,-4.080555 3.905366,-1.082601 8.21488,-3.433342 10.441596,-5.695656 3.607313,-3.664987 3.824587,-4.193419 12.354503,-30.047081 4.350604,-13.186453 7.910195,-24.094412 7.910195,-24.239908 0,-0.145497 -0.292313,-0.26454 -0.649586,-0.26454 -0.701701,0 -0.714208,0.03513 -11.586815,32.540417 -2.744736,8.205798 -5.488309,15.863624 -6.09685,17.017395 -1.440344,2.730901 -5.140488,6.256356 -8.201098,7.813919 -3.635795,1.85028 -6.182433,2.421103 -10.915852,2.446763 l -4.130427,0.02239 -0.32417,1.14212 c -0.66425,2.34027 0.962694,5.173735 3.733665,6.502527 2.650741,1.271132 8.834865,2.079001 9.358635,1.222575 z"
     id="path23" />
  <path
     style="fill:#ffffff;stroke-width:0.347099"
     d="m 56.734165,55.738784 c 1.15136,-2.242023 2.229891,-2.561687 8.643097,-2.561687 h 5.616227 v -2.965875 -2.965875 l -1.985381,-0.0077 c -3.383115,-0.01306 -6.486962,-1.939708 -8.138422,-5.051771 -1.061766,-2.000812 -1.052951,-6.383823 0.01692,-8.421149 1.696725,-3.231007 4.647847,-5.103168 8.121502,-5.152196 l 1.985381,-0.02802 v -2.5331 -2.533099 h -4.926715 -4.926716 l -5.136039,16.137849 c -2.824815,8.875816 -5.209541,16.412628 -5.299398,16.748469 -0.145656,0.544502 0.13645,0.610622 2.60533,0.610622 h 2.768679 z"
     id="path24" />
  <path
     style="fill:#ffffff;stroke-width:0.347099"
     d="m 70.907161,43.032001 c 0.617193,-0.188458 1.122178,-0.458379 1.122178,-0.599824 0,-0.141445 -1.848258,-2.120067 -4.10724,-4.396938 -3.81861,-3.848855 -4.134038,-4.089152 -4.488673,-3.419517 -0.594451,1.122467 -0.456791,3.948662 0.258528,5.307613 1.301601,2.472759 4.618119,3.90168 7.215207,3.108666 z"
     id="path25" />
  <path
     style="fill:#ffffff;stroke-width:0.347099"
     d="m 75.103094,38.819044 c 0.533648,-1.546987 0.461939,-2.695693 -0.269945,-4.323948 -1.291339,-2.872844 -4.202709,-4.35519 -7.103854,-3.616965 -0.863368,0.219695 -1.569762,0.496209 -1.569762,0.614476 0,0.292739 8.044353,8.425284 8.333918,8.425284 0.126818,0 0.401165,-0.494481 0.609643,-1.098847 z"
     id="path26" />
  <path
     style="fill:#ffffff;stroke-width:0.347099"
     d="m 78.230901,29.711793 0.01355,-5.495592 h -1.55377 -1.553779 v 3.181506 c 0,3.0648 0.03948,3.227 1.077531,4.421694 0.59265,0.682103 1.285763,1.723441 1.540252,2.314085 0.412781,0.957958 0.464196,0.480584 0.476249,-4.421693 z"
     id="path27" />
  <path
     style="fill:#ffffff;stroke-width:0.347099"
     d="m 60.308866,87.951777 c 4.150849,-3.474452 7.188554,-7.455091 8.601571,-11.271584 1.084581,-2.929386 1.093077,-2.92018 -1.974019,-2.13831 -3.306922,0.843006 -10.625595,1.036322 -12.591518,0.332594 -2.537123,-0.9082 -3.691257,-3.455056 -2.631155,-5.806283 0.220758,-0.489615 0.306858,-0.985722 0.191339,-1.102461 -0.115518,-0.116739 -2.898707,1.194378 -6.184861,2.913594 -14.726275,7.704356 -15.4656,8.452001 -8.84387,8.943339 8.139377,0.603949 14.060243,2.990291 18.509809,7.460191 1.386,1.39233 2.559937,2.53152 2.608759,2.53152 0.04876,0 1.090085,-0.83817 2.313945,-1.8626 z"
     id="path28" />
  <path
     style="fill:#ffffff;stroke-width:0.347099"
     d="m 50.921586,65.725441 4.270507,-2.429477 h 41.91103 41.911017 V 62.07342 60.850875 l -44.925653,0.08853 -44.925647,0.08853 -0.604548,1.974551 c -0.332502,1.086004 -1.003247,2.695427 -1.490548,3.576497 -0.487292,0.881069 -0.780387,1.596091 -0.651332,1.588936 0.129054,-0.0072 2.15638,-1.106273 4.505174,-2.442485 z"
     id="path29" />
  <path
     style="fill:#ffffff;stroke-width:0.347099"
     d="m 71.338763,67.308618 v -1.919095 h -7.25093 -7.250939 v 1.919095 1.919096 h 7.250939 7.25093 z"
     id="path30" />
  <path
     style="fill:#ffffff;stroke-width:0.347099"
     d="m 113.63587,73.355721 c 6.94688,-0.796626 14.51133,-3.003561 20.71695,-6.044182 l 3.79811,-1.860992 -31.8523,-0.03051 c -17.518783,-0.01678 -31.852318,0.0571 -31.852318,0.164187 0,0.391121 6.811296,3.375333 10.710367,4.692503 9.054186,3.05865 19.144011,4.1495 28.479191,3.078996 z"
     id="path31" />
  <path
     style="fill:#ffffff;stroke-width:0.347099"
     d="m 104.89472,84.751175 2.65316,-4.706741 h -1.02416 c -2.52717,0 -5.23332,2.313069 -5.65466,4.833289 -0.17396,1.040517 -0.0549,1.810054 0.46344,2.994094 0.38367,0.8765 0.74516,1.59194 0.80331,1.58986 0.0582,-0.002 1.29966,-2.12179 2.75891,-4.710502 z"
     id="path32" />
  <path
     style="fill:#ffffff;stroke-width:0.347099"
     d="m 109.00658,90.747747 c 2.75186,-1.46704 3.83852,-4.839717 2.42382,-7.522878 l -0.62276,-1.181147 -1.21508,2.053463 c -2.18581,3.693952 -4.07083,7.056202 -4.07083,7.261002 0,0.49496 2.10204,0.12674 3.48485,-0.61044 z"
     id="path33" />
  <path
     style="fill:#ffffff;stroke-width:0.347099"
     d="m 150.40846,78.823191 c 0,-0.661503 -0.18041,-0.872316 -0.74654,-0.872316 -0.4106,0 -1.41643,-0.396715 -2.23517,-0.88159 -3.18268,-1.88486 -4.33699,-6.285531 -2.51403,-9.584496 0.96062,-1.738423 2.03571,-2.633866 3.96194,-3.299899 1.55342,-0.537127 2.17201,-1.935705 0.85616,-1.935705 -2.13763,0 -5.44492,2.532675 -6.60687,5.059433 -0.89996,1.957061 -0.87462,5.431569 0.0538,7.369572 1.19183,2.487979 4.4833,5.017318 6.52911,5.017318 0.51824,0 0.70165,-0.228022 0.70165,-0.872317 z"
     id="path34" />
  <path
     style="fill:#ffffff;stroke-width:0.347099"
     d="m 177.67529,71.408504 0.0105,-7.763614 h -11.22168 c -9.74465,0 -11.22169,0.06889 -11.22169,0.52339 0,0.454158 1.43868,0.52339 10.87641,0.52339 5.98202,0 10.87639,0.08883 10.87639,0.197402 0,0.108571 -0.16084,0.501113 -0.35742,0.872316 -0.34229,0.646314 -0.83977,0.674914 -11.73961,0.674914 -9.8873,0 -11.38218,0.06874 -11.38218,0.52339 0,0.454534 1.48115,0.52339 11.25862,0.52339 10.12453,0 11.23752,0.05559 11.04905,0.551927 -0.11528,0.30356 -0.20959,0.617594 -0.20959,0.697853 0,0.08026 -5.4382,0.145925 -12.08489,0.145925 -10.51194,0 -12.08488,0.06812 -12.08488,0.52339 0,0.455072 1.54737,0.52339 11.8547,0.52339 6.52007,0 11.94139,0.0876 12.04734,0.194668 0.10594,0.107067 0.11371,0.499609 0.0172,0.872316 -0.16892,0.652754 -0.57344,0.677648 -11.01149,0.677648 -9.40192,0 -10.83613,0.06927 -10.83613,0.52339 0,0.454331 1.45786,0.523389 11.04905,0.523389 h 11.04909 v 0.872317 0.872316 H 165.4282 c -8.82389,0 -10.18583,0.06998 -10.18583,0.523389 0,0.453563 1.37703,0.52339 10.32152,0.52339 9.09338,0 10.34648,0.06567 10.53113,0.551927 0.11527,0.303561 0.20959,0.617595 0.20959,0.697853 0,0.08026 -4.19519,0.145926 -9.32264,0.145926 -8.05659,0 -9.32262,0.07108 -9.32262,0.52339 0,0.452751 1.30249,0.523389 9.65075,0.523389 8.82694,0 9.68079,0.05213 10.00269,0.610622 0.24683,0.428257 0.35508,-1.708007 0.36244,-7.152993 z"
     id="path35" />
  <path
     style="fill:#ffffff;stroke-width:0.347099"
     d="m 176.29183,83.55793 c 0.26955,-0.508987 0.22352,-0.808253 -0.18837,-1.224484 -0.48443,-0.489544 -2.44994,-0.540791 -17.65748,-0.460389 -15.53432,0.08213 -17.14582,0.144085 -17.47519,0.671846 -0.26328,0.421849 -0.2383,0.733013 0.091,1.134011 0.40299,0.490706 2.38247,0.552637 17.66355,0.552637 16.64996,0 17.22131,-0.02191 17.56646,-0.673621 z"
     id="path36" />
  <path
     style="fill:#ffffff;stroke-width:0.347099"
     d="m 176.96926,129.21262 c 5.13847,-1.01879 9.03759,-3.12984 12.84622,-6.95517 2.52831,-2.53939 3.21574,-3.49236 4.53769,-6.29058 1.80555,-3.82185 2.197,-5.29638 2.68695,-10.12118 0.56104,-5.52488 2.16823,-9.308403 5.53577,-13.031923 l 1.76594,-1.95261 -9.44359,0.011 -9.44359,0.0111 1.03585,0.75056 c 3.07751,2.22994 5.74423,6.15372 6.94482,10.218513 0.95477,3.23255 0.83186,8.38695 -0.27546,11.55018 -2.16373,6.18106 -7.18829,10.90928 -13.27958,12.49637 -1.84125,0.47974 -5.44644,0.55277 -27.28916,0.55277 H 127.4235 l -0.57588,1.57016 -0.57587,1.57017 24.58485,-0.0382 c 13.52167,-0.021 25.27237,-0.17454 26.11266,-0.34114 z"
     id="path37" />
  <path
     style="fill:#ffffff;stroke-width:0.347099"
     d="M 90.329306,226.58621 C 87.586352,223.98824 80.826989,219.51678 76.368535,217.35087 62.411212,210.57045 47.2979,208.88641 31.976564,212.4044 l -1.899063,0.43605 30.212225,7.58314 c 16.616715,4.17072 30.600664,7.66822 31.075429,7.77221 0.708715,0.15524 0.523315,-0.13283 -1.035849,-1.60959 z"
     id="path38" />
  <path
     style="fill:#ffffff;stroke-width:0.347099"
     d="m 95.459387,242.07653 c 1.56142,-3.95848 2.782588,-7.25419 2.713698,-7.3238 -0.117338,-0.11858 -63.205765,-15.97989 -64.591746,-16.23926 -0.546439,-0.10227 -1.034294,1.02137 -3.350877,7.71786 -1.491239,4.31065 -2.679522,7.85554 -2.640634,7.87751 0.239889,0.13559 64.363083,15.18536 64.661928,15.17621 0.202774,-0.006 1.64621,-3.25004 3.207631,-7.20852 z"
     id="path39" />
  <path
     style="fill:#ffffff;stroke-width:0.347099"
     d="m 20.338325,231.94295 c 0.228845,-0.37553 5.342753,-14.44027 5.486508,-15.0895 0.07978,-0.36016 -0.653661,-0.65173 -2.713608,-1.07883 l -2.822895,-0.58528 -2.620485,7.70843 c -1.441263,4.23964 -2.618157,7.81318 -2.615309,7.94121 0.0027,0.12803 0.818211,0.40899 1.811907,0.62435 0.993704,0.21536 2.142089,0.47662 2.55195,0.58058 0.409879,0.10395 0.824734,0.0585 0.921932,-0.10096 z"
     id="path40" />
  <path
     style="fill:#ffffff;stroke-width:0.347099"
     d="m 78.236832,48.902748 -0.0082,-8.461467 -0.629591,1.395706 c -0.346284,0.767638 -1.042063,1.889423 -1.546192,2.492855 -0.9139,1.093925 -0.916602,1.114684 -0.916602,7.06576 v 5.968612 h 1.55377 1.55378 z"
     id="path41" />
  <path
     style="fill:#ffffff;stroke-width:0.347099"
     d="M 84.114216,40.790208 V 24.216201 h -1.55377 -1.55377 v 16.574007 16.574006 h 1.55377 1.55377 z"
     id="path42" />
  <path
     style="fill:#ffffff;stroke-width:0.347099"
     d="M 89.984022,40.790208 V 24.216201 h -1.55377 -1.553779 v 16.574007 16.574006 h 1.553779 1.55377 z"
     id="path43" />
  <path
     style="fill:#ffffff;stroke-width:0.347099"
     d="M 95.853828,40.790208 V 24.216201 h -1.553779 -1.55377 v 16.574007 16.574006 h 1.55377 1.553779 z"
     id="path44" />
  <path
     style="fill:#ffffff;stroke-width:0.347099"
     d="M 101.37834,40.790208 V 24.216201 h -1.553759 -1.55377 v 16.574007 16.574006 h 1.55377 1.553759 z"
     id="path45" />
  <path
     style="fill:#ffffff;stroke-width:0.347099"
     d="M 107.24815,40.790208 V 24.216201 h -1.55377 -1.55377 v 16.574007 16.574006 h 1.55377 1.55377 z"
     id="path46" />
  <path
     style="fill:#ffffff;stroke-width:0.347099"
     d="M 113.11795,40.790208 V 24.216201 h -1.55377 -1.55377 v 16.574007 16.574006 h 1.55377 1.55377 z"
     id="path47" />
</svg>
