<?xml version="1.0" encoding="UTF-8" standalone="no"?>
<svg
   width="465.92099mm"
   height="475.83701mm"
   viewBox="0 0 465.92099 475.83701"
   version="1.1"
   id="svg5"
   xml:space="preserve"
   sodipodi:docname="wheel.svg"
   inkscape:version="1.4.2 (f4327f4, 2025-05-13)"
   xmlns:inkscape="http://www.inkscape.org/namespaces/inkscape"
   xmlns:sodipodi="http://sodipodi.sourceforge.net/DTD/sodipodi-0.dtd"
   xmlns="http://www.w3.org/2000/svg"
   xmlns:svg="http://www.w3.org/2000/svg"><sodipodi:namedview
     id="namedview1"
     pagecolor="#000000"
     bordercolor="#000000"
     borderopacity="0.25"
     inkscape:showpageshadow="2"
     inkscape:pageopacity="0.0"
     inkscape:pagecheckerboard="0"
     inkscape:deskcolor="#d1d1d1"
     inkscape:document-units="mm"
     inkscape:zoom="0.23243176"
     inkscape:cx="-109.70962"
     inkscape:cy="385.05926"
     inkscape:window-width="1920"
     inkscape:window-height="1009"
     inkscape:window-x="-8"
     inkscape:window-y="-8"
     inkscape:window-maximized="1"
     inkscape:current-layer="svg5" /><defs
     id="defs2" /><g
     id="layer1"
     transform="translate(2.2766539,2.8458174)"
     style="fill:#999999"><path
       style="fill:#999999"
       d="m 219.538,471.7277 c -14.21,-1.091 -22.78,-2.203 -33.833,-4.393 -29.965,-5.937 -54.705,-16.138 -78.617,-32.415 -13.098,-8.916 -23.746,-17.862 -35.557,-29.874 -16.024,-16.297 -29.495,-34.439 -41.355,-55.691 -10.866,-19.471 -18.419,-37.83 -22.834,-55.495 -4.745,-18.992 -6.942,-36.315 -7.299,-57.57 -0.5,-29.787 3.318,-54.51 12.503,-80.963 4.228,-12.175 11.833,-28.791 18.245,-39.864 15.424,-26.632 37.014,-50.536 62.982,-69.732 13.636,-10.08 27.272,-17.898 45.035,-25.82 39.249,-17.504 84.023,-23.712 127.296,-17.649 33.467,4.689 65.902,17.115 95.603,36.628 12.428,8.165 22.427,16.43 34.789,28.757 12.258,12.223 19.952,21.456 28.124,33.752 5.702,8.581 9.356,14.907 13.824,23.942 5.296,10.707 8.101,17.479 11.835,28.575 5.994,17.809 9.217,33.501 10.975,53.446 0.888,10.064 0.891,38.681 0,48.331 -2.804,30.559 -10.926,58.456 -25.469,87.488 -14.163,28.271 -36.284,56 -61.206,76.72 -7.626,6.341 -20.141,15.302 -28.932,20.718 -9.242,5.692 -22.987,12.767 -31.746,16.34 -17.212,7.02 -38.607,11.925 -61.736,14.154 -5.147,0.495 -28.458,0.935 -32.632,0.615 z m 30.163,-2.467 c 25.256,-2.052 48.346,-7.534 67.717,-16.077 26.835,-11.836 54.37,-31.233 74.88,-52.749 20.951,-21.978 35.534,-43.78 47.971,-71.717 10.003,-22.47 16.198,-46.154 18.826,-71.967 0.77,-7.57 1.086,-32.829 0.535,-42.732 -1.215,-21.794 -4.457,-39.101 -10.981,-58.624 -9.233,-27.627 -22.299,-50.724 -41.779,-73.852 -7.232,-8.587 -21.198,-21.925 -31.581,-30.164 -24.547,-19.477 -56.444,-35.129 -86.816,-42.602 -19.876,-4.891 -34.777,-6.732 -54.453,-6.731 -14.69,0 -25.899,0.941 -40.411,3.387 -30.102,5.073 -61.204,17.26 -86.965,34.077 -21.959,14.335 -39.807,30.391 -55.019,49.495 -16.089,20.206 -29.713,45.031 -37.655,68.615 -6.033,17.916 -8.912,31.277 -11.061,51.33 -0.765,7.143 -1.075,29.091 -0.537,38.027 1.49,24.754 5.918,47.004 13.066,65.651 7.498,19.561 18.425,40.444 29.741,56.835 9.647,13.974 16.752,22.616 27.944,33.988 10.059,10.222 17.265,16.563 27.41,24.121 26.369,19.647 53.133,31.382 86.714,38.022 20.733,4.1 41.858,5.34 62.454,3.667 z m -34.925,-2.659 c -17.088,-1.283 -36.925,-4.951 -54.228,-10.028 -25.609,-7.513 -48.431,-20.466 -72.949,-41.404 -8.122,-6.936 -21.835,-20.784 -28.667,-28.95 -7.994,-9.554 -16.254,-21.157 -21.895,-30.753 -11.117,-18.913 -17.07,-32.204 -22.961,-51.267 -6.712,-21.719 -9.978,-44.986 -10.002,-71.262 -0.01,-11.909 0.231,-16.092 1.709,-29.457 0.821,-7.419 2.313,-16.56 3.71,-22.72 5.849,-25.803 18.016,-55.644 30.577,-74.999 7.672,-11.822 17.376,-23.693 28.28,-34.594 15.641,-15.638 30.62,-26.801 49.852,-37.151 16.591,-8.929 34.778,-16.241 51.418,-20.673 17.957,-4.783 32.729,-7.134 50.976,-8.113 51.558,-2.767 98.914,9.888 140.181,37.459 14.336,9.578 29.066,22.761 41.264,36.931 23.247,27.004 39.226,58.697 48.725,96.64 8.721,34.839 9.526,60.498 3.015,96.022 -5.427,29.607 -19.681,66.266 -35.799,92.072 -7.331,11.738 -14.419,20.489 -25.722,31.756 -22.04,21.971 -53.418,43.422 -80.471,55.015 -18.174,7.788 -44.315,13.811 -67.38,15.525 -5.611,0.417 -23.831,0.387 -29.633,-0.05 z m 35.101,-14.961 c 33.569,-2.952 60.498,-12.214 86.96,-29.908 17.1,-11.435 33.434,-26.791 48.653,-45.743 5.441,-6.775 14.081,-19.663 19.157,-28.575 7.859,-13.8 13.385,-25.717 17.749,-38.278 4.076,-11.732 5.971,-19.371 7.733,-31.173 1.148,-7.685 1.095,-8.547 -0.154,-2.516 -2.964,14.321 -9.788,33.788 -17.558,50.095 -2.258,4.738 -8.002,15.256 -11.462,20.99 -15.48,25.647 -37.653,49.533 -61.649,66.409 -27.112,19.069 -54.459,29.062 -89.076,32.553 -6.125,0.617 -26.337,0.846 -33.177,0.376 -38.623,-2.658 -71.165,-12.725 -101.408,-31.371 -13.479,-8.311 -24.574,-16.787 -35.101,-26.817 -17.704,-16.867 -31.381,-35.265 -42.001,-56.496 -11.271,-22.535 -17.666,-44.972 -20.067,-70.408 -1.341,-14.203 -1.584,-34.456 -0.55,-45.832 1.042,-11.46 3.492,-24.975 6.707,-36.991 8.637,-32.277 28.535,-65.583 56.057,-93.832 3.723,-3.822 12.74,-12.067 12.713,-11.625 -0.02,0.379 -3.149,4.63 -13.738,18.683 -9.511,12.622 -17.891,24.848 -22.52,32.853 -10.715,18.528 -18.563,37.372 -23.284,55.901 -1.767,6.937 -3.052,13.264 -2.754,13.561 0.09,0.09 0.752,-1.712 1.468,-4.009 2.497,-8.005 8.889,-25.035 12.143,-32.346 14.23,-31.983 30.08,-54.981 50.819,-73.738 23.561,-21.309 54.791,-37.889 85.824,-45.566 18.938,-4.684 34.98,-6.638 54.405,-6.627 41.572,0.02 77.699,10.713 110.037,32.563 9.963,6.732 17.297,12.821 26.328,21.859 11.966,11.975 21.461,24.035 30.221,38.385 4.373,7.163 10.545,19.44 13.683,27.217 l 2.47,6.119 3.293,3.555 c 4.104,4.428 6.843,8.53 9.939,14.879 5.657,11.604 9.17,24.762 10.738,40.217 2.073,20.43 1.275,40.916 -2.316,59.443 -9.191,47.429 -34.561,92.437 -71.355,126.593 -12.66,11.751 -24.156,20.417 -35.211,26.539 -5.813,3.22 -3.515,2.352 3.839,-1.449 22.893,-11.833 41.833,-26.209 58.78,-44.615 16.171,-17.564 29.61,-38.677 39.406,-61.907 5.638,-13.369 11.008,-30.93 14.08,-46.043 4.182,-20.574 4.647,-47.44 1.236,-71.437 -4.021,-28.298 -14.534,-57.977 -29.178,-82.374 -19.954,-33.243 -44.234,-58.131 -73.459,-75.296 -6.799,-3.994 -30.498,-15.632 -28.923,-14.204 0.194,0.176 3.29,2.034 6.879,4.129 23.635,13.791 41.26,27.639 61.076,47.988 19.167,19.682 34.739,42.296 43.962,63.841 1.824,4.263 6.46,17.064 6.429,17.754 -0.01,0.131 -2.353,-4.366 -5.215,-9.992 -10.361,-20.363 -18.613,-33.397 -30.6,-48.331 -20.593,-25.655 -44.942,-44.888 -73.888,-58.364 -22.289,-10.377 -46.59,-16.821 -74.192,-19.675 -8.643,-0.894 -33.234,-0.89 -42.577,0 -28.022,2.688 -50.751,8.237 -73.554,17.956 -9.036,3.851 -24.503,11.734 -29.987,15.283 -3.335,2.158 4.488,-4.575 9.525,-8.198 9.997,-7.19 27.652,-15.841 43.322,-21.229 13.963,-4.8 32.648,-8.826 45.326,-9.766 1.802,-0.134 3.191,-0.328 3.088,-0.431 -0.357,-0.358 -11.335,-0.05 -17.123,0.488 -29.575,2.724 -55.81,12.282 -82.712,30.135 -31.279,20.756 -56.649,50.139 -75.081,86.956 -25.09,50.113 -29.247,108.22 -11.551,161.417 6.602,19.847 14.596,36.036 26.379,53.425 5.679,8.38 8.778,12.395 16.94,21.947 24.329,28.473 57.247,51.446 90.819,63.382 20.474,7.279 42.754,11.466 65.721,12.352 5.96,0.229 21.509,-0.159 27.517,-0.687 z m 14.817,-22.524 c -5.284,-1.675 -8.538,-4.807 -10.099,-9.721 -0.607,-1.91 -0.728,-3.159 -0.701,-7.246 0.03,-5.315 0.209,-7.284 1.834,-20.814 1.911,-15.903 4.425,-31.855 8.119,-51.506 2.289,-12.182 2.439,-12.887 3.727,-17.589 1.524,-5.562 1.7,-5.797 6.94,-9.254 2.554,-1.684 5.675,-3.87 6.937,-4.856 8.109,-6.34 16.788,-16.033 25.142,-28.079 4.835,-6.971 8.242,-11.608 9.537,-12.977 0.594,-0.628 0.98,-1.24 0.859,-1.361 -0.654,-0.654 -5.268,4.356 -13.677,14.849 -11.942,14.902 -17.906,20.569 -30.519,29.002 -4.884,3.265 -6.133,4.548 -7.799,8.013 -2.725,5.669 -4.233,12.465 -7.521,33.894 -2.943,19.182 -5.186,37.152 -6.541,52.387 -0.938,10.55 -0.568,14.569 1.698,18.435 2.268,3.87 8.079,7.273 12.416,7.271 0.991,0 0.969,-0.03 -0.352,-0.448 z m -66.15,-2.156 c 2.675,-0.88 5.587,-3.797 6.689,-6.7 1.451,-3.824 1.36,-6.619 -0.645,-19.93 -2.302,-15.279 -5.413,-37.378 -6.555,-46.566 -0.494,-3.978 -1.056,-8.343 -1.248,-9.702 -0.193,-1.358 -0.598,-4.374 -0.901,-6.702 -1.368,-10.52 -1.709,-11.091 -11.085,-18.574 -6.718,-5.361 -10.764,-9.196 -16.697,-15.822 -7.655,-8.55 -10.572,-12.336 -17.856,-23.18 -4.666,-6.947 -7.958,-10.653 -10.789,-12.147 -0.97,-0.512 -5.891,-2.232 -10.936,-3.821 -5.044,-1.59 -13.855,-4.554 -19.579,-6.589 -37.103,-13.187 -45.754,-15.467 -55.386,-14.596 -5.247,0.475 -8.387,1.95 -11.486,5.397 -2.226,2.476 -2.759,3.59 -0.928,1.941 1.712,-1.542 4.73,-3.13 7.67,-4.036 1.692,-0.521 3.258,-0.644 8.095,-0.636 6.906,0.01 7.362,0.107 18.521,3.876 3.784,1.278 9.578,3.124 12.877,4.101 3.298,0.977 10.363,3.121 15.698,4.763 5.336,1.643 13.591,4.103 18.345,5.468 4.753,1.364 9.833,3.045 11.289,3.735 3.882,1.839 7.264,5.41 12.618,13.322 6.826,10.09 10.158,14.156 18.238,22.254 7.348,7.364 13.207,12.379 19.486,16.677 5.119,3.504 6.383,5.207 7.35,9.909 0.377,1.831 3.825,26.057 6.154,43.235 0.211,1.553 0.93,6.791 1.598,11.642 2.188,15.874 3.343,26.047 3.345,29.471 0,6.504 -1.716,10.373 -6.003,13.5 -0.947,0.69 -0.794,0.669 2.121,-0.29 z m 70.912,0.168 c -3.156,-0.376 -6.008,-1.524 -7.581,-3.051 -2.527,-2.454 -3.186,-5.565 -2.657,-12.532 2.661,-35.007 6.848,-70.125 9.927,-83.271 1.208,-5.159 1.988,-5.989 14.052,-14.959 9.514,-7.075 15.344,-13.702 25.244,-28.696 3.523,-5.335 7.612,-11.222 9.086,-13.081 5.608,-7.07 11.899,-10.948 28.482,-17.556 18.597,-7.41 36.097,-13.583 62.442,-22.024 0.829,-0.266 1.032,-0.439 0.617,-0.528 -1.378,-0.294 -17.002,3.267 -28.316,6.455 -17.173,4.838 -45.424,16.704 -55.237,23.2 -4.833,3.2 -7.572,6.381 -15.854,18.419 -13.662,19.857 -20.149,26.48 -35.557,36.305 -3.033,1.934 -3.455,2.678 -4.846,8.542 -1.754,7.392 -6.322,31.622 -7.573,40.173 -0.398,2.716 -1.031,6.843 -1.408,9.172 -0.677,4.188 -2.608,19.754 -3.72,29.986 -0.846,7.79 -0.792,13.251 0.156,15.726 1.85,4.83 6.975,8.103 12.567,8.027 l 2.469,-0.03 z m -74.347,-1.234 c 3.188,-2.339 5.118,-6.085 5.445,-10.57 0.17,-2.327 -1.364,-16.045 -3.41,-30.516 -0.371,-2.619 -1.243,-8.969 -1.939,-14.111 -2.735,-20.205 -5.541,-39.437 -6.049,-41.451 -0.948,-3.761 -1.361,-4.209 -9.482,-10.26 -6.396,-4.768 -9.792,-7.671 -15.642,-13.376 -7.609,-7.42 -13.176,-14.258 -20.537,-25.224 -4.367,-6.506 -7.289,-9.58 -10.647,-11.202 -1.307,-0.631 -5.673,-2.109 -9.702,-3.285 -4.028,-1.175 -11.135,-3.305 -15.791,-4.732 -4.657,-1.428 -11.483,-3.491 -15.17,-4.585 -3.686,-1.095 -10.989,-3.401 -16.228,-5.125 -13.251,-4.362 -13.281,-4.369 -18.873,-4.381 -6.897,-0.01 -11.444,1.443 -15.461,4.957 l -1.825,1.597 v 2.538 c 0,3.454 1.533,16.585 2.643,22.631 2.955,16.1 7.598,29.9 15.136,44.979 16.011,32.03 43.427,61.451 75.001,80.487 18.195,10.969 35.251,17.704 57.327,22.637 2.147,0.48 3.545,0.209 5.204,-1.008 z m 83.696,-1.814 c 21.951,-5.338 41.356,-14.074 58.845,-26.492 18.359,-13.036 34.145,-28.815 46.49,-46.47 14.651,-20.952 25.632,-43.529 32,-65.793 4.277,-14.95 6.634,-31.371 5.726,-39.894 -0.717,-6.725 -2.065,-9.645 -5.253,-11.376 -2.24,-1.217 -3.886,-1.27 -7.281,-0.232 -13.096,4.001 -41.972,14.066 -56.444,19.673 -8.144,3.155 -18.501,7.583 -20.99,8.975 -5.898,3.298 -9.638,6.416 -13.218,11.021 -1.213,1.56 -5.231,7.361 -8.928,12.891 -7.949,11.891 -10.057,14.599 -15.937,20.477 -4.545,4.542 -7.321,6.821 -14.613,11.993 -5.924,4.202 -7.181,5.893 -8.336,11.209 -2.168,9.975 -5.764,37.341 -7.936,60.391 -0.32,3.395 -0.8,8.396 -1.067,11.112 -0.898,9.129 -1.042,15.644 -0.396,17.866 0.914,3.146 3.838,5.362 7.989,6.056 1.501,0.25 4.211,-0.157 9.349,-1.407 z m -34.69,-12.824 c 0.714,-0.198 1.768,-0.899 2.351,-1.563 0.871,-0.992 1.098,-1.627 1.29,-3.607 0.128,-1.322 0.459,-4.389 0.736,-6.814 1.915,-16.777 3.785,-33.553 4.563,-40.922 0.502,-4.754 1.223,-11.174 1.601,-14.267 0.379,-3.094 0.689,-6.885 0.689,-8.425 0,-2.749 -0.02,-2.823 -1.245,-3.976 -0.685,-0.646 -1.836,-1.338 -2.558,-1.539 -0.84,-0.233 -9.501,-0.365 -24.072,-0.366 -21.488,0 -22.828,0.03 -23.989,0.652 -1.685,0.897 -2.804,2.952 -2.811,5.167 -0.01,1.712 0.949,9.088 3.149,24.341 0.588,4.075 1.382,9.711 1.764,12.524 1.362,10.016 4.984,34.059 5.318,35.299 0.393,1.463 1.433,2.544 3.171,3.297 1.03,0.447 3.498,0.537 14.991,0.547 8.298,0 14.272,-0.131 15.052,-0.348 z m -26.994,-2.462 c -3.283,-0.42 -3.239,-0.325 -4.843,-10.611 -2.609,-16.742 -3.873,-25.334 -5.082,-34.541 -0.318,-2.426 -0.96,-7.188 -1.425,-10.584 -2.322,-16.948 -2.366,-17.354 -1.985,-18.191 0.936,-2.055 0.163,-1.991 24.028,-1.966 24.33,0.02 23.556,-0.05 24.568,2.373 0.453,1.083 0.431,1.836 -0.193,6.768 -0.387,3.051 -1.181,9.834 -1.766,15.073 -0.584,5.239 -1.148,10.24 -1.252,11.113 -0.524,4.399 -2.029,18.225 -2.304,21.166 -0.866,9.264 -1.801,17.196 -2.112,17.922 -0.724,1.691 -1.89,1.838 -14.181,1.788 -6.264,-0.03 -12.318,-0.165 -13.453,-0.31 z m 4.886,-2.819 c 0.12,-0.194 -0.01,-0.353 -0.279,-0.353 -0.274,0 -1.235,-0.392 -2.137,-0.872 l -1.64,-0.872 v 0.802 c 0,0.44 0.19,0.992 0.423,1.224 0.511,0.512 3.327,0.566 3.633,0.07 z m 9.053,-0.617 c -0.384,-0.534 -1.186,-1.434 -1.782,-2 l -1.084,-1.03 -2.016,1.591 c -1.109,0.875 -2.078,1.775 -2.153,2 -0.1,0.293 0.973,0.409 3.798,0.409 h 3.934 z m 9.821,0.694 c 0,-0.151 -1.203,-1.287 -2.674,-2.524 l -2.675,-2.249 -1.608,1.608 -1.609,1.609 0.916,0.916 c 0.857,0.858 1.128,0.916 4.283,0.916 1.852,0 3.367,-0.124 3.367,-0.276 z m -16.045,-2.577 c 0.967,-0.793 1.895,-1.573 2.063,-1.734 0.168,-0.161 -0.416,-1.046 -1.299,-1.967 l -1.605,-1.675 -2.493,2.21 c -1.371,1.216 -2.493,2.414 -2.493,2.663 0,0.397 1.166,1.098 2.822,1.697 0.981,0.355 1.243,0.251 3.005,-1.194 z m 18.126,-2.725 0.411,-3.285 -2.005,-2.283 c -1.103,-1.256 -2.132,-2.238 -2.287,-2.183 -0.156,0.05 -1.411,1.04 -2.789,2.19 l -2.505,2.091 1.049,1.048 1.048,1.049 1.529,-1.176 c 0.84,-0.647 1.766,-1.339 2.057,-1.538 0.649,-0.445 -1.314,1.849 -2.291,2.676 -0.697,0.59 -0.694,0.607 0.352,1.72 2.018,2.148 4.51,3.943 4.776,3.44 0.135,-0.255 0.43,-1.942 0.655,-3.749 z m -8.892,-1.213 c -0.866,-1.303 -1.414,-1.226 -3.169,0.443 l -1.485,1.413 1.127,1.034 1.128,1.034 1.522,-1.477 1.522,-1.477 z m -17.648,0.742 c -0.233,-3.028 -0.379,-3.473 -0.952,-2.901 -0.439,0.439 0.33,5.775 0.832,5.775 0.211,0 0.257,-1.102 0.12,-2.874 z m 6.076,-2.548 c 0.335,-0.403 0.08,-0.867 -1.337,-2.39 l -1.753,-1.89 -1.08,1.063 -1.079,1.064 0.397,3.076 0.397,3.077 2.02,-1.75 c 1.111,-0.962 2.207,-1.975 2.435,-2.25 z m 7.677,1.392 1.71,-1.56 -1.734,-1.775 -1.734,-1.774 -1.359,1.076 c -2.289,1.813 -2.356,2.258 -0.601,4.046 0.835,0.851 1.629,1.547 1.763,1.547 0.135,0 1.015,-0.702 1.955,-1.56 z m -3.324,-5.388 c 0.586,-0.649 0.535,-0.749 -1.323,-2.584 l -1.932,-1.908 -1.765,1.739 -1.766,1.739 1.824,1.847 1.824,1.847 1.264,-1.002 c 0.695,-0.551 1.538,-1.306 1.874,-1.678 z m 8.761,0.51 c 1.342,-1.213 2.441,-2.364 2.443,-2.558 0,-0.194 -0.786,-1.032 -1.751,-1.863 l -1.754,-1.511 -2.54,2.423 -2.54,2.422 1.517,1.646 c 0.835,0.905 1.667,1.646 1.851,1.646 0.184,0 1.432,-0.992 2.774,-2.205 z m -20.017,-1.415 c -0.04,-1.64 -0.28,-3.086 -0.627,-3.757 -0.599,-1.159 -1.425,-1.51 -1.112,-0.472 0.171,0.562 0.92,6.184 0.92,6.899 0,0.167 0.198,0.234 0.44,0.149 0.309,-0.107 0.423,-0.957 0.379,-2.819 z m 28.259,-0.966 c 0.131,-1.261 0.33,-2.764 0.442,-3.34 0.198,-1.022 0.154,-1.002 -1.871,0.84 -1.14,1.038 -2.126,2.024 -2.191,2.193 -0.07,0.168 0.571,1.08 1.412,2.025 1.75,1.969 1.829,1.908 2.208,-1.718 z m -25.975,0.823 c 0.06,-0.39 -0.14,-0.913 -0.441,-1.162 -0.476,-0.395 -0.546,-0.286 -0.546,0.854 0,1.396 0.789,1.642 0.987,0.308 z m 13.419,-2.956 2.518,-2.309 -2.024,-1.997 -2.023,-1.997 -2.646,2.425 -2.646,2.426 1.931,1.972 c 1.062,1.084 2.03,1.931 2.151,1.88 0.122,-0.05 1.354,-1.13 2.739,-2.4 z m -10.274,0.137 1.643,-1.644 -2.389,-2.263 c -2.248,-2.129 -2.428,-2.23 -3.027,-1.687 -0.828,0.749 -1.237,3.423 -0.688,4.49 0.513,0.996 2.12,2.747 2.521,2.747 0.163,0 1.036,-0.739 1.94,-1.643 z m 20.4,-1.198 1.75,-1.783 -1.683,-1.595 -1.683,-1.595 -1.792,1.5 c -0.985,0.824 -1.872,1.712 -1.972,1.971 -0.183,0.477 2.577,3.243 3.263,3.27 0.201,0 1.154,-0.788 2.117,-1.768 z m -26.407,-1.811 c -0.113,-0.282 -0.197,-0.198 -0.214,0.213 -0.01,0.372 0.07,0.58 0.186,0.463 0.117,-0.117 0.129,-0.422 0.03,-0.676 z m 13.517,-4.347 c 0,-0.205 -0.937,-1.299 -2.082,-2.432 -1.43,-1.415 -2.23,-1.97 -2.557,-1.773 -0.262,0.157 -1.55,1.242 -2.862,2.41 l -2.385,2.125 2.351,2.369 2.35,2.368 2.592,-2.348 c 1.426,-1.291 2.593,-2.515 2.593,-2.719 z m 9.876,0.711 c 0.25,-0.302 0.389,-0.584 0.308,-0.628 -0.08,-0.04 -1.055,-0.948 -2.167,-2.008 l -2.02,-1.928 -1.941,1.917 -1.941,1.917 2.001,2.022 2.001,2.022 1.652,-1.382 c 0.908,-0.761 1.856,-1.63 2.107,-1.932 z m -24.321,2.065 c 0.266,-0.7 0.208,-1.315 -0.233,-2.47 -0.791,-2.07 -1.128,-1.939 -0.807,0.315 0.145,1.018 0.275,2.129 0.29,2.469 0.04,0.888 0.341,0.761 0.75,-0.314 z m 30.447,-0.04 c 0.384,-1.353 0.634,-5.732 0.329,-5.732 -0.177,0 -1.185,0.774 -2.241,1.721 l -1.919,1.722 1.587,1.453 c 1.782,1.632 1.996,1.712 2.244,0.836 z m -28.112,-2.413 c 0.217,-0.566 -1.788,-2.944 -2.166,-2.567 -0.102,0.103 0.09,0.847 0.43,1.654 0.636,1.514 1.36,1.894 1.736,0.913 z m 25.515,-2.636 1.941,-1.755 -2.117,-1.92 c -1.164,-1.056 -2.281,-1.926 -2.483,-1.934 -0.201,0 -1.144,0.777 -2.095,1.742 l -1.729,1.755 2.095,1.933 c 1.153,1.063 2.175,1.933 2.272,1.934 0.1,0 1.049,-0.789 2.116,-1.755 z m -21.478,-0.72 c 1.336,-1.184 2.428,-2.267 2.428,-2.406 0,-0.398 -2.488,-3.202 -2.842,-3.202 -0.386,0 -5.039,4.164 -5.23,4.679 -0.138,0.373 2.356,2.984 2.91,3.047 0.168,0.02 1.398,-0.934 2.734,-2.118 z m 10.805,-3.549 c -1.212,-1.114 -2.368,-2.033 -2.57,-2.042 -0.446,-0.02 -3.334,2.87 -3.345,3.348 0,0.187 0.987,1.242 2.205,2.345 l 2.213,2.006 1.85,-1.816 1.85,-1.816 z m -18.758,2.607 c -0.609,-0.582 -0.619,-0.573 -0.215,0.215 0.233,0.453 0.52,0.727 0.638,0.609 0.118,-0.118 -0.07,-0.489 -0.423,-0.824 z m 4.024,-3.435 2.285,-2.28 -1.92,-1.945 c -2.944,-2.981 -3.18,-2.811 -3.18,2.289 0,2.328 0.119,4.229 0.265,4.225 0.145,0 1.293,-1.034 2.55,-2.289 z m 29.08,-0.663 c 0.316,-2.682 0.305,-2.748 -0.619,-3.672 l -0.941,-0.941 -1.849,1.849 -1.849,1.849 2.116,1.92 c 1.163,1.056 2.274,1.876 2.468,1.823 0.194,-0.05 0.498,-1.326 0.674,-2.828 z m -9.017,0.777 1.887,-1.815 -1.358,-1.184 c -0.747,-0.652 -1.885,-1.605 -2.529,-2.118 l -1.17,-0.934 -1.821,1.82 -1.82,1.821 2.098,2.12 c 1.154,1.166 2.262,2.117 2.462,2.113 0.2,0 1.213,-0.825 2.251,-1.823 z m -24.113,-2.709 c -0.207,-1.926 -0.312,-2.179 -0.734,-1.757 -0.401,0.401 -0.423,0.918 -0.118,2.777 0.207,1.257 0.473,2.523 0.593,2.814 0.366,0.89 0.52,-1.394 0.259,-3.834 z m 13.416,1.926 1.754,-1.555 -1.213,-1.265 c -1.836,-1.913 -2.324,-1.934 -4.118,-0.173 l -1.55,1.521 1.486,1.513 c 0.817,0.833 1.575,1.514 1.686,1.514 0.11,0 0.99,-0.7 1.955,-1.555 z m 16.216,-4.432 1.057,-1.112 -0.75,-0.596 c -0.412,-0.327 -1.487,-1.213 -2.389,-1.968 l -1.639,-1.373 -1.666,1.411 c -0.917,0.777 -1.714,1.652 -1.772,1.946 -0.06,0.301 0.838,1.322 2.06,2.343 l 2.167,1.81 0.938,-0.674 c 0.515,-0.371 1.413,-1.175 1.994,-1.787 z m -20.345,0.229 1.496,-1.525 -2.1,-1.826 c -1.155,-1.005 -2.232,-1.821 -2.393,-1.813 -0.161,0 -1.002,0.656 -1.87,1.441 l -1.579,1.426 1.988,1.911 c 1.094,1.051 2.208,1.91 2.475,1.91 0.268,0 1.16,-0.686 1.983,-1.524 z m 8.999,-0.18 1.679,-1.704 -1.596,-1.471 c -0.878,-0.809 -1.724,-1.471 -1.882,-1.471 -0.157,0 -1.073,0.803 -2.036,1.784 l -1.751,1.784 1.486,1.391 c 0.817,0.765 1.696,1.391 1.954,1.391 0.257,0 1.223,-0.766 2.146,-1.704 z m -19.18,-3.906 c -0.62,-1.008 -1.181,-1.78 -1.246,-1.715 -0.07,0.06 0.06,1.278 0.265,2.696 l 0.383,2.578 0.863,-0.863 0.863,-0.863 z m 34.938,2.935 c 0,-0.307 -0.189,-0.496 -0.419,-0.419 -0.655,0.218 -0.763,0.978 -0.14,0.978 0.307,0 0.559,-0.252 0.559,-0.559 z m 0.2,-4.983 c 0.222,-1.775 0.168,-1.988 -0.752,-2.948 -0.545,-0.569 -1.086,-1.035 -1.202,-1.035 -0.361,0 -4.949,3.918 -4.949,4.227 0,0.161 0.992,1.09 2.205,2.064 l 2.204,1.771 1.128,-1.083 c 0.894,-0.859 1.177,-1.48 1.366,-2.996 z m -20.472,1.985 1.751,-1.793 -1.941,-1.731 c -1.067,-0.952 -2.184,-1.733 -2.482,-1.735 -0.299,0 -1.306,0.771 -2.239,1.719 l -1.697,1.722 2.169,1.806 c 1.193,0.993 2.286,1.805 2.429,1.805 0.143,0 1.047,-0.807 2.01,-1.793 z m 9.312,-0.239 1.874,-1.679 -1.623,-1.496 c -0.893,-0.823 -1.78,-1.496 -1.972,-1.496 -0.192,0 -1.152,0.713 -2.133,1.585 l -1.785,1.585 1.66,1.59 c 0.912,0.875 1.759,1.59 1.882,1.59 0.122,0 1.066,-0.755 2.097,-1.679 z m -19.379,-0.419 1.587,-1.372 -0.882,-0.946 c -1.528,-1.637 -2.856,-2.449 -3.172,-1.939 -0.936,1.516 -0.572,5.668 0.495,5.639 0.211,0 1.099,-0.628 1.972,-1.382 z m 4.85,-4.398 c 0.631,-0.578 1.147,-1.224 1.147,-1.436 0,-0.212 -0.697,-0.968 -1.549,-1.68 l -1.549,-1.295 -1.944,1.701 -1.944,1.701 1.625,1.625 c 1.816,1.816 1.511,1.86 4.214,-0.616 z m 10.143,0.637 1.764,-1.594 -2.045,-1.918 c -1.125,-1.055 -2.163,-1.918 -2.307,-1.918 -0.143,0 -1.049,0.807 -2.012,1.793 l -1.75,1.793 1.94,1.731 c 1.067,0.952 2.099,1.726 2.293,1.719 0.194,0 1.147,-0.729 2.117,-1.606 z m 10.232,-0.491 2.307,-1.94 -1.796,-1.676 c -0.988,-0.921 -1.905,-1.673 -2.037,-1.67 -0.132,0 -1.272,0.942 -2.533,2.087 l -2.293,2.081 1.583,1.627 c 0.87,0.895 1.78,1.583 2.022,1.529 0.242,-0.05 1.479,-0.971 2.747,-2.038 z m -30.583,-1.92 c -0.348,-2.547 -0.777,-3.724 -1.358,-3.724 -0.786,0 -0.05,4.6 0.906,5.656 0.347,0.384 0.666,0.657 0.709,0.608 0.04,-0.05 -0.07,-1.193 -0.257,-2.54 z m 2.071,0.443 c -0.113,-0.282 -0.196,-0.198 -0.213,0.213 -0.01,0.372 0.07,0.58 0.185,0.463 0.117,-0.117 0.13,-0.421 0.03,-0.676 z m 34.625,-0.618 c 0.08,-0.548 -0.03,-0.756 -0.352,-0.651 -0.259,0.09 -0.524,0.518 -0.589,0.961 -0.08,0.547 0.03,0.756 0.353,0.65 0.259,-0.08 0.524,-0.517 0.588,-0.96 z m -31.225,-1.722 1.675,-1.7 -2.14,-1.861 c -2.087,-1.815 -2.161,-1.847 -3.005,-1.294 -0.961,0.629 -1.412,1.905 -1.103,3.116 0.213,0.837 2.216,3.439 2.646,3.439 0.139,0 1.006,-0.765 1.927,-1.7 z m 20.274,-0.316 2.297,-2.017 -2.082,-1.863 c -1.145,-1.025 -2.166,-1.864 -2.269,-1.864 -0.422,0 -4.952,3.983 -4.856,4.271 0.145,0.433 3.909,3.489 4.296,3.489 0.174,0 1.35,-0.907 2.614,-2.016 z m -10.807,-0.01 1.789,-1.673 -1.706,-1.502 c -0.939,-0.826 -1.796,-1.501 -1.906,-1.501 -0.109,0 -0.987,0.806 -1.95,1.791 l -1.75,1.792 1.544,1.383 c 0.85,0.761 1.69,1.384 1.867,1.384 0.178,0 1.128,-0.753 2.112,-1.674 z m 20.753,0 1.103,-1.323 -1.685,-1.499 c -0.928,-0.825 -1.863,-1.5 -2.078,-1.5 -0.216,0 -0.985,0.516 -1.709,1.147 l -1.318,1.147 2.003,1.675 c 1.101,0.922 2.132,1.676 2.291,1.676 0.159,0 0.786,-0.595 1.393,-1.323 z m -25.659,-3.646 c 0.922,-0.79 1.676,-1.647 1.676,-1.905 0,-0.692 -3.531,-3.748 -4.005,-3.466 -0.792,0.47 -3.756,3.046 -3.756,3.264 0,0.271 3.867,3.549 4.183,3.546 0.124,0 0.98,-0.649 1.902,-1.439 z m -10.811,-0.94 c -0.351,-3.002 -0.874,-4.674 -1.462,-4.674 -0.619,0 -0.635,0.472 -0.119,3.498 0.398,2.333 0.795,3.204 1.459,3.204 0.229,0 0.273,-0.735 0.122,-2.028 z m 20.979,0.02 c 1.344,-1.106 2.444,-2.055 2.444,-2.109 0,-0.194 -3.598,-2.936 -3.852,-2.936 -0.144,0 -1.262,0.906 -2.486,2.013 l -2.224,2.013 1.723,1.507 c 0.948,0.829 1.775,1.511 1.837,1.515 0.06,0 1.213,-0.897 2.558,-2.003 z m 10.545,0.393 1.4,-1.265 -2.163,-1.886 -2.163,-1.886 -1.577,1.292 -1.577,1.292 2.076,1.858 c 1.142,1.022 2.195,1.859 2.34,1.859 0.145,0 0.894,-0.569 1.664,-1.264 z m 6.533,-0.411 c 0.117,-0.922 0.293,-2.192 0.39,-2.822 0.259,-1.675 -0.322,-1.465 -2.48,0.896 l -1.038,1.135 1.195,1.234 c 0.658,0.678 1.313,1.233 1.457,1.233 0.145,0 0.358,-0.754 0.476,-1.676 z m -35.801,-1.462 c 0,-0.173 -0.238,-0.406 -0.529,-0.518 -0.322,-0.123 -0.529,0 -0.529,0.315 0,0.285 0.238,0.518 0.529,0.518 0.291,0 0.529,-0.141 0.529,-0.315 z m 33.16,-1.666 c 1.837,-1.66 1.799,-2.457 -0.19,-4.016 -0.867,-0.679 -1.694,-1.271 -1.839,-1.315 -0.145,-0.04 -1.057,0.629 -2.027,1.496 l -1.764,1.576 1.941,1.756 c 1.067,0.966 2.059,1.761 2.203,1.768 0.145,0 0.9,-0.563 1.676,-1.265 z m -28.422,-1.871 c 0.673,-0.745 0.673,-0.76 0,-1.236 -0.374,-0.265 -1.294,-0.972 -2.042,-1.569 -1.516,-1.211 -1.618,-1.191 -3.881,0.776 -1.197,1.041 -1.309,1.266 -0.928,1.876 0.238,0.381 1.153,1.194 2.033,1.806 l 1.6,1.114 1.269,-1.006 c 0.697,-0.553 1.575,-1.346 1.949,-1.761 z m 9.413,0.996 c 1.142,-0.989 1.983,-1.949 1.869,-2.133 -0.113,-0.184 -1,-0.961 -1.969,-1.728 l -1.762,-1.393 -2.072,1.595 c -1.14,0.877 -2.185,1.777 -2.323,2 -0.281,0.454 2.919,3.438 3.7,3.45 0.265,0 1.415,-0.802 2.557,-1.791 z m 9.691,-0.132 1.382,-1.225 -1.764,-1.584 c -0.97,-0.871 -1.9,-1.59 -2.066,-1.597 -0.458,-0.02 -3.095,2.149 -2.977,2.448 0.157,0.396 3.458,3.182 3.771,3.182 0.15,0 0.894,-0.551 1.654,-1.224 z m 12.847,-1.933 c 0,-0.184 -0.275,-0.489 -0.61,-0.677 -0.577,-0.322 -0.577,-0.378 0,-1.01 0.611,-0.675 1.774,-5.739 1.318,-5.739 -0.308,0 -4.815,3.399 -5.084,3.834 -0.109,0.176 0.554,0.928 1.474,1.67 0.919,0.743 1.799,1.554 1.954,1.804 0.329,0.528 0.953,0.606 0.953,0.118 z m -40.577,-0.908 c -0.245,-0.296 -0.518,-0.465 -0.607,-0.376 -0.245,0.244 0.252,0.914 0.679,0.914 0.233,0 0.207,-0.203 -0.07,-0.538 z m 12.577,-1.068 c 1.139,-0.882 2.116,-1.732 2.171,-1.887 0.05,-0.155 -0.796,-1.019 -1.89,-1.92 l -1.989,-1.638 -0.933,0.671 c -0.513,0.368 -1.561,1.216 -2.329,1.884 l -1.396,1.214 1.364,1.2 c 1.733,1.524 2.43,2.056 2.709,2.07 0.122,0 1.154,-0.711 2.293,-1.594 z m 19.66,0.165 c 0.9,-0.793 1.637,-1.563 1.637,-1.712 0,-0.149 -0.965,-1.03 -2.146,-1.957 l -2.145,-1.686 -1.751,1.722 -1.751,1.722 1.754,1.676 c 0.964,0.922 1.981,1.676 2.259,1.676 0.278,0 1.243,-0.649 2.143,-1.441 z m -8.417,-1.767 c 0,-0.289 -2.977,-2.79 -3.321,-2.79 -0.14,0 -0.922,0.513 -1.738,1.14 l -1.483,1.14 1.86,1.642 1.86,1.642 1.411,-1.273 c 0.776,-0.7 1.411,-1.376 1.411,-1.501 z m -20.99,0.731 1.234,-1.047 -0.741,-0.62 c -2.415,-2.015 -4.773,-3.689 -4.949,-3.512 -0.113,0.112 -0.09,1.192 0.05,2.4 0.186,1.604 0.476,2.417 1.079,3.02 1.083,1.083 1.829,1.028 3.326,-0.241 z m 24.901,-4.198 0.888,-1.055 -1.473,-1.067 -1.473,-1.067 -0.926,0.68 c -0.51,0.375 -1.403,1.087 -1.985,1.583 l -1.059,0.902 1.541,1.405 1.541,1.406 1.029,-0.866 c 0.566,-0.476 1.429,-1.341 1.917,-1.921 z m 10.024,0.636 c 1.455,-1.177 2.958,-2.363 3.34,-2.636 0.656,-0.468 0.661,-0.528 0.09,-1.101 -0.469,-0.469 -1.402,-0.638 -4.112,-0.747 l -3.506,-0.141 -1.611,1.539 -1.611,1.54 2.207,1.845 c 1.213,1.015 2.286,1.844 2.383,1.843 0.1,0 1.367,-0.966 2.822,-2.142 z m -29.351,-0.637 1.517,-1.262 -0.988,-0.812 c -1.995,-1.641 -2.833,-1.9 -5.284,-1.638 -1.575,0.169 -2.564,0.481 -3.153,0.995 l -0.859,0.75 2.743,2.176 c 3.103,2.462 2.798,2.473 6.024,-0.209 z m 9.686,0.869 1.326,-0.984 -2.031,-1.534 c -1.118,-0.844 -2.199,-1.539 -2.404,-1.544 -0.526,-0.01 -2.803,1.714 -2.803,2.126 0,0.567 3.854,3.464 4.234,3.182 0.194,-0.144 0.949,-0.704 1.678,-1.246 z m 4.474,-3.277 1.926,-1.323 -1.822,-0.106 c -1.001,-0.06 -2.739,-0.06 -3.862,0 l -2.042,0.106 1.727,1.323 c 0.949,0.727 1.821,1.323 1.937,1.323 0.116,0 1.077,-0.596 2.136,-1.323 z m 7.959,-0.441 1.014,-1.059 h -2.007 c -1.103,0 -2.006,0.109 -2.006,0.242 0,0.314 1.465,1.875 1.76,1.875 0.123,0 0.681,-0.476 1.239,-1.058 z m -18.276,-0.166 0.99,-0.87 -2.029,-0.01 c -2.182,-0.01 -2.345,0.113 -1.444,1.108 0.779,0.861 1.302,0.814 2.483,-0.226 z m -13.101,-0.374 c 0.663,-0.522 0.658,-0.536 -0.169,-0.441 -0.47,0.05 -0.92,0.297 -1,0.54 -0.197,0.6 0.34,0.554 1.169,-0.1 z m 176.898,18.531 c 0.414,-0.582 0.674,-1.058 0.577,-1.058 -0.1,0 -0.516,0.476 -0.93,1.058 -0.415,0.582 -0.674,1.059 -0.577,1.059 0.1,0 0.515,-0.477 0.93,-1.059 z m 6.474,-9.348 c 6.581,-9.899 10.296,-16.337 15.775,-27.341 8.438,-16.944 14.322,-32.985 17.728,-48.33 2.861,-12.892 2.834,-24.067 -0.08,-31.75 -1.75,-4.616 -5.201,-7.367 -9.639,-7.685 -1.822,-0.13 -2.428,-0.07 -2.246,0.225 0.138,0.223 0.544,0.404 0.903,0.404 1.255,0 4.586,1.51 5.999,2.72 1.791,1.533 2.951,3.517 3.775,6.453 0.543,1.935 0.64,3.586 0.622,10.583 -0.02,8.759 -0.316,11.399 -2.483,22.401 -5.081,25.798 -16.164,51.088 -33.628,76.729 -1.387,2.038 -2.116,3.228 -1.619,2.646 0.497,-0.582 2.698,-3.757 4.891,-7.055 z m -149.349,-28.258 c 8.99,-1.305 19.365,-4.718 27.34,-8.993 14.615,-7.834 26.241,-19.875 34.019,-35.232 7.106,-14.028 9.816,-27.97 8.472,-43.581 -1.852,-21.506 -12.997,-41.317 -31.555,-56.091 -8.175,-6.507 -19.298,-12.072 -29.261,-14.638 -11.335,-2.918 -22.721,-3.514 -33.181,-1.735 -7.598,1.292 -16.259,4.16 -23.06,7.634 -13.334,6.812 -25.76,18.394 -33.512,31.234 -8.227,13.627 -12.495,31.03 -11.311,46.119 1.164,14.831 5.6,27.785 13.632,39.812 13.335,19.969 34.472,32.975 57.956,35.661 7.021,0.804 14.069,0.738 20.461,-0.19 z m -20.991,-4.262 c -14.072,-1.885 -28.729,-8.338 -39.438,-17.366 -15.489,-13.056 -24.693,-30.451 -27.081,-51.179 -0.62,-5.385 -0.258,-16.048 0.713,-20.996 4.219,-21.496 16.581,-39.568 35.115,-51.337 13.671,-8.68 29.995,-12.881 45.332,-11.666 20.435,1.62 38.623,10.738 52.818,26.478 9.951,11.034 16.375,24.393 18.668,38.818 0.977,6.152 0.886,17.341 -0.191,23.459 -2.209,12.542 -7.07,23.636 -14.961,34.142 -14.361,19.12 -37.503,30.384 -62.053,30.203 -2.773,-0.02 -6.787,-0.271 -8.922,-0.556 z m 16.504,-42.971 c 10.407,-1.815 19.504,-8.126 25.069,-17.393 5.125,-8.533 6.187,-19.71 2.846,-29.943 -3.537,-10.836 -13.071,-19.956 -24.247,-23.195 -14.374,-4.166 -29.4,0.631 -38.505,12.292 -4.097,5.247 -6.73,11.275 -7.616,17.435 -0.652,4.53 -0.266,11.161 0.876,15.048 3.947,13.441 14.775,23.272 28.333,25.723 3.665,0.663 9.548,0.677 13.244,0.03 z m -12.326,-4.206 c -15.847,-3.026 -27.036,-17.029 -26.1,-32.663 0.849,-14.184 10.31,-26.04 23.686,-29.68 4.172,-1.135 11.875,-1.143 16.028,-0.02 9.688,2.628 16.986,8.616 21.173,17.374 2.27,4.75 2.946,7.805 2.957,13.38 0.01,3.28 -0.173,5.503 -0.577,7.14 -3.04,12.321 -11.309,20.766 -23.447,23.946 -3.541,0.927 -10.252,1.182 -13.72,0.519 z m 12.227,-7.315 c 3.384,-0.857 8.479,-3.356 10.819,-5.307 7.326,-6.109 10.147,-16.731 6.927,-26.076 -1.629,-4.724 -3.375,-7.523 -6.802,-10.898 -2.674,-2.635 -7.912,-6.325 -8.352,-5.885 -0.08,0.08 0.37,0.467 1.008,0.851 5.961,3.583 10.164,9.015 11.962,15.457 0.988,3.539 1.058,9.71 0.15,13.213 -2.789,10.76 -12.416,18.106 -23.682,18.071 -5.218,-0.02 -9.183,-1.383 -13.681,-4.718 -2.685,-1.989 -6.104,-6.28 -7.824,-9.818 -0.75,-1.541 -1.421,-2.744 -1.491,-2.673 -0.07,0.07 0.299,1.196 0.821,2.502 2.911,7.276 8.682,13.032 15.159,15.118 4.171,1.344 10.071,1.408 14.986,0.163 z m -100.76,-3.83 c 0.702,-0.776 1.276,-1.517 1.276,-1.645 0,-0.128 0.553,-6.518 1.228,-14.198 1.721,-19.578 2.935,-36.939 2.713,-38.791 -0.149,-1.24 -1.02,-2.388 -2.175,-2.866 -1.272,-0.527 -18.716,0.449 -41.63,2.33 -12.016,0.986 -15.57,1.388 -16.382,1.852 -2.087,1.194 -3.49,5.717 -5.344,17.227 -1.119,6.949 -1.589,17.74 -0.814,18.679 0.949,1.149 1.368,1.289 39.474,13.178 5.723,1.786 12.073,3.782 14.111,4.435 5.029,1.612 5.928,1.588 7.543,-0.201 z m -7.367,-2.686 c -1.552,-0.476 -6.553,-2.04 -11.112,-3.475 -4.56,-1.436 -10.434,-3.266 -13.053,-4.068 -2.62,-0.802 -7.382,-2.305 -10.583,-3.341 -3.202,-1.035 -7.667,-2.456 -9.923,-3.157 -2.257,-0.702 -4.638,-1.64 -5.292,-2.086 l -1.19,-0.81 0.105,-3.505 c 0.202,-6.78 2.844,-22.827 4.307,-26.158 0.437,-0.996 0.923,-1.541 1.472,-1.654 2.012,-0.411 48.468,-4.069 51.9,-4.087 0.597,0 1.348,0.358 1.904,0.914 l 0.919,0.918 -0.238,5.56 c -0.615,14.387 -3.005,44.053 -3.632,45.079 -0.629,1.029 -1.899,1 -5.584,-0.13 z m 1.94,-4.286 v -2.035 l -2.783,-1.879 c -3.172,-2.142 -2.794,-2.176 -6.694,0.594 l -2.246,1.594 1.654,0.65 c 0.91,0.357 2.873,0.968 4.363,1.357 1.489,0.389 3.343,0.935 4.119,1.215 0.776,0.279 1.451,0.515 1.499,0.523 0.05,0 0.09,-0.9 0.09,-2.019 z m 1.481,0.778 c 0.08,-0.69 0.02,-1.335 -0.138,-1.432 -0.156,-0.1 -0.284,0.469 -0.284,1.257 0,1.767 0.225,1.861 0.422,0.175 z m -10.212,-6.053 c 0.922,-0.67 1.667,-1.323 1.657,-1.452 -0.03,-0.34 -3.424,-2.527 -3.926,-2.527 -0.574,0 -5.933,3.538 -5.933,3.918 0,0.165 0.636,0.625 1.413,1.022 0.778,0.396 1.6,1.019 1.827,1.383 0.398,0.637 0.467,0.628 1.85,-0.233 0.79,-0.492 2.191,-1.442 3.112,-2.111 z m 10.701,-0.327 c -0.111,-0.287 -0.361,-0.423 -0.556,-0.302 -0.411,0.253 -0.485,3.105 -0.09,3.5 0.338,0.338 0.913,-2.503 0.646,-3.198 z m -18.082,2.503 c -0.616,-0.27 -1.221,-0.654 -1.344,-0.854 -0.123,-0.199 -0.564,-0.362 -0.979,-0.362 -1.038,0 -0.416,0.56 1.334,1.2 1.782,0.652 2.467,0.663 0.989,0.02 z m 15.997,-4.237 c -0.319,-0.667 -0.741,-1.213 -0.938,-1.213 -0.198,0 -1.091,0.455 -1.984,1.011 l -1.625,1.012 1.185,0.869 c 0.651,0.478 1.661,1.203 2.243,1.613 l 1.058,0.744 0.319,-1.412 c 0.246,-1.087 0.187,-1.691 -0.258,-2.624 z m -19.733,2.07 c 0.08,-0.243 -0.45,-0.58 -1.258,-0.797 -2.057,-0.554 -3.374,0.15 -1.912,1.023 0.798,0.476 2.991,0.32 3.17,-0.226 z m 4.551,-2.796 c 1.623,-1.091 2.949,-2.083 2.948,-2.205 0,-0.231 -5.076,-4.015 -5.656,-4.219 -0.283,-0.1 -4.885,2.688 -10.142,6.144 l -1.513,0.994 0.939,0.492 c 0.827,0.433 1.111,0.414 2.386,-0.159 1.874,-0.844 4.685,-0.782 6.462,0.141 0.744,0.386 1.414,0.723 1.489,0.749 0.08,0.02 1.465,-0.847 3.087,-1.937 z m 11.571,-0.364 1.376,-0.935 -1.559,-1.365 c -2.501,-2.192 -2.512,-2.194 -4.371,-0.774 l -1.656,1.265 1.881,1.361 c 1.035,0.748 2.123,1.366 2.417,1.372 0.295,0 1.155,-0.409 1.912,-0.924 z m 5.973,0.318 c 0.378,-1.311 0.648,-6.791 0.336,-6.791 -0.401,0 -1.657,6.555 -1.352,7.05 0.34,0.549 0.819,0.427 1.016,-0.259 z m -31.109,-1.312 c 1.225,-0.867 3.138,-2.049 4.251,-2.625 1.113,-0.577 2.769,-1.562 3.68,-2.189 l 1.657,-1.14 -1.387,-1.204 c -2.325,-2.019 -2.277,-2.02 -4.878,0.126 l -2.358,1.945 1.102,1.392 c 0.876,1.107 0.98,1.391 0.506,1.391 -0.328,0 -0.909,-0.397 -1.29,-0.882 -0.382,-0.485 -0.881,-0.875 -1.109,-0.868 -0.229,0 -1.527,1.029 -2.885,2.269 -2.132,1.947 -2.378,2.29 -1.797,2.514 0.503,0.195 0.933,-0.03 1.709,-0.9 0.941,-1.054 1.086,-1.109 1.59,-0.606 0.456,0.457 0.474,0.651 0.1,1.101 -0.25,0.301 -0.761,0.547 -1.137,0.547 -0.376,0 -0.585,0.159 -0.465,0.353 0.305,0.495 0.244,0.522 2.711,-1.224 z m -8.149,-0.879 c -2.138,-1.878 -3.11,-2.363 -3.825,-1.912 -1.155,0.729 -0.763,1.138 2.103,2.194 1.609,0.593 3.006,1.08 3.103,1.082 0.1,0 -0.525,-0.612 -1.381,-1.364 z m 4.547,-1.945 2.265,-2.285 -0.787,-0.837 c -1.806,-1.922 -2.236,-1.924 -5.155,-0.03 -1.46,0.95 -2.657,1.907 -2.66,2.125 0,0.351 3.406,3.234 3.887,3.287 0.102,0.01 1.205,-1.008 2.45,-2.264 z m 33.172,-1.607 c 0.327,-1.94 0.324,-2.595 -0.01,-2.999 -0.237,-0.285 -0.58,-0.518 -0.762,-0.518 -0.431,0 -5.181,3.621 -5.207,3.969 -0.01,0.146 0.969,0.993 2.176,1.882 2.191,1.612 2.197,1.614 2.791,0.881 0.327,-0.404 0.783,-1.851 1.013,-3.215 z m -11.009,2.337 c 0.524,-0.272 1.313,-0.881 1.753,-1.352 l 0.8,-0.857 -2.035,-1.738 c -3.516,-3.002 -3.032,-2.87 -5.214,-1.421 -1.065,0.707 -1.936,1.355 -1.936,1.44 0,0.155 5.376,4.421 5.574,4.423 0.06,0 0.534,-0.222 1.058,-0.495 z m -32.144,-1.004 c 0.641,-0.436 1.167,-0.879 1.168,-0.984 0,-0.106 -0.705,-0.886 -1.569,-1.734 l -1.571,-1.542 -1.45,0.96 c -0.798,0.528 -1.388,1.149 -1.312,1.38 0.142,0.43 2.963,2.714 3.352,2.714 0.119,0 0.74,-0.357 1.382,-0.794 z m -4.739,-0.685 c -0.425,-0.426 -0.897,-0.651 -1.048,-0.501 -0.15,0.151 0.03,0.499 0.411,0.774 1.063,0.777 1.5,0.589 0.637,-0.273 z m 44.78,-4.206 c 0.967,-0.837 1.078,-1.069 0.641,-1.341 -0.292,-0.181 -1.462,-1.055 -2.601,-1.943 -1.139,-0.888 -2.23,-1.614 -2.424,-1.614 -0.516,0 -4.853,3.153 -4.853,3.528 0,0.175 1.133,1.272 2.519,2.438 l 2.518,2.121 1.515,-1.088 c 0.834,-0.599 2.042,-1.544 2.685,-2.101 z m -47.163,1.813 c 0.292,-1.328 -0.105,-2.803 -0.56,-2.083 -0.411,0.649 -0.407,3.133 0.01,3.133 0.178,0 0.428,-0.473 0.555,-1.05 z m 12.41,-0.626 c 1.417,-0.921 2.578,-1.773 2.581,-1.893 0.01,-0.343 -3.24,-2.781 -3.705,-2.781 -0.231,0 -1.504,0.821 -2.83,1.825 l -2.41,1.825 1.521,1.35 c 0.837,0.742 1.689,1.35 1.894,1.35 0.205,0 1.532,-0.754 2.949,-1.676 z m 8.977,0.351 c 0.508,-0.339 1.605,-1.233 2.438,-1.989 l 1.515,-1.373 -1.204,-0.999 c -0.662,-0.549 -1.371,-1.002 -1.575,-1.007 -0.312,0 -4.379,2.684 -5.014,3.318 -0.184,0.184 2.337,2.624 2.74,2.652 0.1,0 0.592,-0.264 1.1,-0.602 z m -18.562,-0.88 c 0.674,-0.436 1.227,-0.885 1.23,-0.997 0.01,-0.533 -1.781,-1.804 -2.276,-1.614 -1.097,0.421 -1.547,3.405 -0.513,3.405 0.183,0 0.885,-0.357 1.559,-0.794 z m 30.64,-0.81 c 0.901,-0.688 1.632,-1.362 1.623,-1.499 -0.02,-0.3 -3.339,-2.894 -3.706,-2.894 -0.142,0 -1.043,0.595 -2.003,1.323 l -1.744,1.323 1.696,1.499 c 0.933,0.824 1.876,1.499 2.096,1.499 0.22,0 1.137,-0.563 2.038,-1.251 z m 19.374,-1.13 c 0.182,-2.208 -0.421,-2.513 -1.047,-0.529 -0.35,1.11 -0.326,1.463 0.151,2.197 0.642,0.987 0.684,0.908 0.896,-1.668 z m -2.213,0.462 c 0,-0.09 -0.159,-0.254 -0.353,-0.374 -0.194,-0.12 -0.353,-0.05 -0.353,0.156 0,0.205 0.159,0.373 0.353,0.373 0.194,0 0.353,-0.07 0.353,-0.155 z m -43.651,-1.344 c 0.832,-0.631 1.905,-1.42 2.385,-1.753 l 0.873,-0.607 -0.99,-0.892 c -0.545,-0.491 -1.18,-0.893 -1.411,-0.893 -0.232,0 -1.35,0.729 -2.485,1.62 l -2.063,1.62 0.983,1.026 c 0.54,0.564 1.031,1.025 1.09,1.025 0.06,0 0.787,-0.515 1.618,-1.146 z m 12.29,-1.024 c 1.144,-0.803 2.08,-1.574 2.08,-1.714 0,-0.376 -3.22,-2.818 -3.716,-2.818 -0.234,0 -1.476,0.766 -2.76,1.702 l -2.335,1.702 0.966,0.889 c 1.517,1.398 2.683,2.083 3.204,1.882 0.264,-0.101 1.416,-0.84 2.561,-1.643 z m 30.95,0.249 c 1.046,-1.534 0.828,-2.238 -1.207,-3.905 l -1.589,-1.303 -1.411,0.978 c -1.837,1.273 -1.957,1.518 -1.056,2.149 0.414,0.29 1.472,1.15 2.352,1.912 0.881,0.762 1.71,1.384 1.844,1.382 0.134,0 0.614,-0.547 1.067,-1.213 z m -49.463,-1.827 c 0.04,-1.324 -0.04,-1.523 -0.414,-1.134 -0.252,0.26 -0.567,1.266 -0.701,2.237 -0.236,1.713 -0.224,1.745 0.414,1.134 0.434,-0.417 0.672,-1.175 0.701,-2.237 z m 28.531,0.09 c 1.044,-0.868 1.048,-0.888 0.352,-1.443 -2.27,-1.814 -2.122,-1.807 -4.061,-0.184 -1.955,1.637 -1.941,1.932 0.152,3.209 0.993,0.605 1.057,0.603 1.764,-0.04 0.404,-0.365 1.211,-1.06 1.793,-1.545 z m 9.929,0.575 c 1.223,-0.922 2.228,-1.794 2.233,-1.937 0.01,-0.345 -3.232,-2.718 -3.731,-2.729 -0.358,0 -5.08,3.394 -5.08,3.66 0,0.322 3.363,2.681 3.822,2.681 0.292,0 1.532,-0.754 2.756,-1.675 z m -33.918,-1.998 1.411,-1.265 -1.235,-1.074 -1.235,-1.075 -1.146,1.246 c -1.191,1.293 -1.406,2.229 -0.779,3.4 0.439,0.819 0.916,0.622 2.984,-1.232 z m 48.044,-6.153 c -0.537,-0.234 -0.674,0.261 -0.931,3.369 -0.173,2.081 -0.131,3.271 0.127,3.605 0.29,0.376 0.471,-0.404 0.738,-3.175 0.194,-2.021 0.223,-3.73 0.07,-3.799 z m -39.384,5.37 c 1.252,-0.898 2.401,-1.746 2.554,-1.883 0.153,-0.137 -0.358,-0.689 -1.135,-1.228 l -1.412,-0.979 -2.393,1.681 c -1.317,0.925 -2.528,1.799 -2.693,1.944 -0.259,0.228 2.061,2.099 2.604,2.099 0.11,0 1.224,-0.735 2.475,-1.634 z m 10.504,-0.08 1.829,-1.365 -1.581,-1.458 c -0.87,-0.801 -1.8,-1.457 -2.067,-1.457 -0.744,0 -3.866,2.509 -3.53,2.837 0.21,0.204 2.842,2.305 3.495,2.789 0.01,0.01 0.848,-0.596 1.854,-1.346 z m 9.761,-0.993 c 1.263,-0.908 2.296,-1.755 2.296,-1.881 0,-0.126 -0.632,-0.737 -1.403,-1.357 l -1.403,-1.127 -2.478,1.802 c -1.362,0.991 -2.477,1.936 -2.477,2.101 0,0.412 2.192,2.105 2.731,2.11 0.241,0 1.471,-0.739 2.734,-1.648 z m 10.672,0.133 c 0.629,-0.426 1.145,-0.881 1.146,-1.011 0,-0.42 -3.331,-3.11 -3.859,-3.112 -0.616,0 -3.194,1.736 -3.194,2.154 0,0.163 0.818,0.943 1.817,1.733 1.933,1.527 2.162,1.541 4.09,0.236 z m 6.405,-1.392 c 0.04,-1.166 -0.08,-1.185 -1.435,-0.222 l -1.05,0.748 0.995,1.039 0.995,1.038 0.23,-0.816 c 0.127,-0.449 0.246,-1.253 0.265,-1.787 z m -49.762,0.159 1.062,-1.342 -0.735,-1.161 c -0.53,-0.837 -0.806,-1.029 -0.99,-0.687 -0.312,0.582 -0.81,4.531 -0.571,4.531 0.09,0 0.65,-0.604 1.234,-1.341 z m 9.099,-1.027 2.243,-1.647 -0.76,-0.809 c -1.357,-1.444 -1.896,-1.367 -4.557,0.652 l -2.477,1.879 1.159,0.976 c 0.636,0.537 1.381,0.891 1.653,0.786 0.273,-0.105 1.505,-0.931 2.739,-1.837 z m 19.476,-1.04 2.653,-1.997 -1.387,-1.175 c -2.104,-1.783 -2.362,-1.779 -5.01,0.09 -1.306,0.92 -2.453,1.74 -2.55,1.823 -0.163,0.14 3.167,3.236 3.496,3.252 0.08,0 1.339,-0.891 2.798,-1.989 z m 19.635,0.306 c 2.377,-1.798 2.417,-2.485 0.236,-4.086 -0.958,-0.704 -1.931,-1.279 -2.162,-1.279 -0.481,0 -4.248,2.865 -4.248,3.231 0,0.36 3.634,3.472 4.051,3.47 0.197,0 1.153,-0.602 2.123,-1.336 z m -30.082,-0.162 c 0.925,-0.63 1.682,-1.235 1.683,-1.344 0,-0.109 -0.489,-0.56 -1.086,-1.002 -1.286,-0.951 -2.104,-0.816 -3.833,0.63 l -1.214,1.016 1.038,0.912 c 0.571,0.502 1.194,0.918 1.384,0.924 0.19,0 1.102,-0.505 2.028,-1.136 z m 20.028,-0.963 1.234,-1.032 -1.3,-1.311 -1.3,-1.31 -1.324,1.029 c -0.729,0.567 -1.493,1.154 -1.699,1.305 -0.453,0.333 1.806,2.375 2.611,2.361 0.299,0 1.099,-0.474 1.778,-1.042 z m -33,-0.773 c 1.172,-0.81 2.198,-1.525 2.28,-1.589 0.251,-0.198 -1.481,-1.881 -2.731,-2.653 -1.18,-0.73 -1.185,-0.73 -1.883,-0.03 -0.966,0.967 -1.428,3.167 -0.965,4.599 0.203,0.631 0.549,1.147 0.768,1.147 0.219,0 1.358,-0.663 2.531,-1.472 z m 9.231,-1.028 c 0.87,-0.599 1.522,-1.273 1.448,-1.499 -0.07,-0.226 -0.657,-0.765 -1.295,-1.197 l -1.161,-0.786 -1.635,1.133 c -0.899,0.624 -1.713,1.188 -1.808,1.255 -0.213,0.147 2.175,2.16 2.58,2.173 0.159,0 1.001,-0.48 1.871,-1.079 z m 9.569,-1.296 c 1.213,-0.857 2.205,-1.631 2.205,-1.72 0,-0.365 -1.978,-1.871 -2.472,-1.881 -0.539,-0.01 -5.267,3.165 -5.281,3.548 -0.02,0.428 2.598,2.043 2.963,1.831 0.209,-0.121 1.373,-0.921 2.585,-1.778 z m -23.548,1.15 c 0,-0.291 -0.158,-0.529 -0.352,-0.529 -0.194,0 -0.353,0.238 -0.353,0.529 0,0.291 0.159,0.529 0.353,0.529 0.194,0 0.352,-0.238 0.352,-0.529 z m 52.013,-4.057 c 0.22,-2.936 0.188,-3.286 -0.261,-2.822 -0.534,0.55 -1.116,6.774 -0.676,7.214 0.394,0.393 0.678,-0.939 0.937,-4.392 z m -18.323,2.745 1.479,-1.135 -1.615,-1.334 c -0.888,-0.734 -1.784,-1.334 -1.992,-1.334 -0.667,0 -3.396,2.201 -3.098,2.498 0.683,0.682 3.138,2.422 3.428,2.431 0.175,0 0.984,-0.501 1.798,-1.126 z m 9.034,-0.33 c 1.92,-1.347 2.045,-1.515 1.547,-2.066 -0.299,-0.33 -1.075,-0.886 -1.724,-1.236 l -1.181,-0.636 -1.986,1.551 c -1.092,0.853 -1.985,1.66 -1.985,1.794 0,0.385 2.242,2.05 2.766,2.055 0.26,0 1.413,-0.656 2.563,-1.462 z m 7.018,-0.431 c 0,-0.46 0.1,-1.333 0.221,-1.94 0.275,-1.377 -0.109,-1.394 -1.764,-0.08 l -1.288,1.023 1.09,0.917 c 1.35,1.136 1.741,1.154 1.741,0.08 z m -39.681,-0.577 c 0.85,-0.585 1.629,-1.2 1.732,-1.366 0.204,-0.329 -3.406,-2.863 -4.078,-2.863 -0.225,0 -1.106,0.57 -1.956,1.266 l -1.545,1.267 1.862,1.364 c 1.024,0.75 1.992,1.37 2.151,1.379 0.159,0 0.985,-0.463 1.834,-1.047 z m -9.37,-0.757 c 0.597,-0.807 0.729,-1.262 0.482,-1.654 -0.606,-0.961 -1.103,-0.825 -1.343,0.368 -0.129,0.641 -0.313,1.443 -0.409,1.783 -0.274,0.973 0.369,0.722 1.27,-0.497 z m 19.058,-0.562 c 1.346,-0.921 2.45,-1.755 2.454,-1.852 0,-0.1 -0.608,-0.612 -1.361,-1.144 l -1.368,-0.967 -2.24,1.629 c -3.158,2.295 -3.09,2.183 -1.888,3.153 0.582,0.469 1.261,0.854 1.508,0.855 0.247,0 1.55,-0.752 2.895,-1.674 z m 18.673,-0.802 c 0.987,-0.78 1.795,-1.56 1.795,-1.733 0,-0.353 -2.797,-2.492 -3.26,-2.492 -0.432,0 -4.148,2.855 -4.148,3.187 0,0.384 2.859,2.458 3.389,2.458 0.235,0 1.236,-0.639 2.224,-1.42 z m -9.558,-0.07 c 0.811,-0.624 1.475,-1.25 1.475,-1.393 0,-0.304 -2.236,-2.059 -2.622,-2.059 -0.515,0 -3.007,1.947 -3.015,2.355 -0.01,0.387 2.039,2.218 2.486,2.227 0.111,0 0.865,-0.506 1.676,-1.13 z m 19.341,-0.834 c 1.039,-0.888 1.89,-1.753 1.89,-1.923 0,-0.17 -0.688,-0.782 -1.529,-1.36 l -1.528,-1.052 -1.965,1.542 c -1.081,0.848 -2.061,1.698 -2.179,1.889 -0.252,0.408 2.196,2.519 2.922,2.519 0.274,0 1.349,-0.727 2.389,-1.615 z m -32.03,-1.207 c 1.19,-0.873 2.161,-1.667 2.16,-1.764 0,-0.15 -3.275,-2.449 -3.912,-2.748 -0.292,-0.137 -5.443,3.381 -5.367,3.666 0.141,0.53 4.164,2.903 4.542,2.679 0.228,-0.135 1.388,-0.96 2.577,-1.833 z m -11.278,-1.999 -1.848,-1.165 -0.565,1.67 c -0.482,1.427 -0.494,1.783 -0.08,2.448 l 0.482,0.777 1.931,-1.282 1.932,-1.283 z m 20.328,0.852 c 0.857,-0.63 1.565,-1.243 1.573,-1.362 0.01,-0.118 -0.68,-0.583 -1.527,-1.032 l -1.54,-0.817 -1.635,1.339 c -0.899,0.737 -1.634,1.385 -1.634,1.439 0,0.233 2.333,1.569 2.748,1.574 0.251,0 1.158,-0.51 2.015,-1.141 z m 8.647,-0.325 2.088,-1.472 -1.311,-1.159 c -0.721,-0.638 -1.476,-1.166 -1.678,-1.174 -0.201,0 -1.287,0.66 -2.412,1.485 l -2.045,1.499 1.324,1.146 c 0.729,0.631 1.464,1.147 1.636,1.147 0.171,0 1.25,-0.663 2.398,-1.472 z m 10.137,-0.753 c 1.019,-0.763 1.853,-1.434 1.853,-1.492 0,-0.06 -0.788,-0.682 -1.752,-1.389 l -1.751,-1.285 -2.041,1.482 c -1.123,0.815 -2.177,1.603 -2.342,1.751 -0.399,0.354 3.308,2.839 3.8,2.547 0.21,-0.125 1.215,-0.851 2.233,-1.614 z m -42.319,0.02 c 0.238,-0.562 0.27,-0.97 0.08,-0.97 -0.443,0 -1.45,1.962 -1.158,2.254 0.282,0.282 0.553,-0.04 1.082,-1.284 z m 50.698,-2.381 c 0.207,-2.508 0.17,-2.924 -0.227,-2.542 -0.298,0.287 -0.521,1.533 -0.598,3.351 -0.165,3.858 0.493,3.213 0.825,-0.809 z m -42.592,1.538 c 1.026,-0.706 1.821,-1.312 1.767,-1.346 -0.05,-0.03 -1.685,0.03 -3.625,0.137 l -3.528,0.2 1.552,1.146 c 0.854,0.631 1.646,1.147 1.761,1.147 0.115,0 1.048,-0.578 2.073,-1.284 z m 40.491,-2.874 c -0.11,-0.11 -0.686,0.264 -1.28,0.832 l -1.08,1.033 1.172,0.984 1.172,0.984 0.108,-1.817 c 0.06,-0.999 0.02,-1.907 -0.09,-2.016 z m -29.184,2.319 c 1.825,-1.403 1.868,-1.846 0.152,-1.562 -0.727,0.12 -2.116,0.222 -3.087,0.227 l -1.763,0.01 1.411,1.216 c 0.776,0.669 1.501,1.222 1.611,1.229 0.111,0 0.865,-0.497 1.676,-1.12 z m 8.114,-0.719 1.651,-1.146 -1.225,-0.117 c -0.674,-0.06 -1.922,-0.01 -2.774,0.116 l -1.548,0.232 0.988,1.031 c 0.543,0.567 1.048,1.031 1.122,1.031 0.07,0 0.878,-0.516 1.786,-1.147 z m 9.291,-0.705 c 0.93,-0.631 1.695,-1.261 1.7,-1.4 0.01,-0.265 -5.681,0.06 -5.988,0.337 -0.169,0.155 2.092,2.209 2.431,2.209 0.09,0 0.926,-0.516 1.857,-1.146 z m 11.234,-1.911 c 0,-0.07 -1.204,-0.118 -2.675,-0.118 -2.98,0 -3.216,0.32 -1.231,1.664 l 1.154,0.783 1.376,-1.106 c 0.757,-0.608 1.376,-1.159 1.376,-1.223 z m 210.785,38.957 c 11.035,-3.328 28.032,-8.356 39.864,-11.793 5.511,-1.601 6.82,-2.201 8.184,-3.756 2.146,-2.444 2.025,-5.54 -0.59,-15.059 -3.366,-12.25 -4.123,-13.842 -6.889,-14.476 -0.794,-0.182 -14.29,-0.327 -30.868,-0.331 -28.583,0 -29.49,0.01 -30.584,0.68 -1.303,0.795 -2.108,1.908 -2.587,3.579 -0.335,1.169 -0.266,1.797 2.831,25.717 0.389,3.008 1.001,7.779 1.36,10.602 0.359,2.824 0.875,5.596 1.146,6.161 0.773,1.607 2.688,2.722 4.374,2.547 0.777,-0.08 6.968,-1.822 13.759,-3.871 z m -14.231,0.224 c -0.444,-0.31 -0.959,-0.965 -1.145,-1.455 -0.688,-1.809 -4.872,-31.975 -4.996,-36.016 l -0.09,-2.935 1.318,-1.21 1.318,-1.21 h 28.717 c 26.827,0 28.768,0.04 29.474,0.617 0.825,0.674 1.97,4.17 4.255,12.999 1.701,6.571 1.954,8.38 1.438,10.294 -0.46,1.71 -1.265,2.35 -4.187,3.33 -2.673,0.896 -24.753,7.44 -36.204,10.73 -5.032,1.446 -11.196,3.257 -13.697,4.025 -2.501,0.768 -4.738,1.396 -4.971,1.396 -0.233,0 -0.787,-0.254 -1.231,-0.565 z m 6.213,-3.694 c 2.081,-0.605 3.989,-1.214 4.239,-1.353 0.58,-0.321 0.04,-0.795 -3.38,-2.981 l -2.573,-1.643 -1.218,1.326 c -0.67,0.729 -1.218,1.423 -1.219,1.543 0,0.119 0.315,0.62 0.704,1.113 0.977,1.243 0.885,1.426 -0.386,0.769 -0.6,-0.31 -1.172,-0.484 -1.27,-0.385 -0.1,0.1 -0.07,0.835 0.07,1.637 0.179,1.059 0.384,1.407 0.749,1.267 0.276,-0.106 2.204,-0.688 4.286,-1.293 z m 12.075,-3.814 c 0,-0.137 -0.811,-0.866 -1.801,-1.622 l -1.801,-1.373 -0.68,0.86 c -1.34,1.694 -1.761,2.762 -1.374,3.485 0.354,0.661 0.427,0.656 3.009,-0.212 1.456,-0.489 2.647,-1.001 2.647,-1.138 z m -6.822,-0.658 c 0.331,-0.534 0.928,-1.338 1.326,-1.787 l 0.724,-0.818 -0.877,-0.695 c -0.483,-0.382 -1.581,-1.192 -2.441,-1.801 l -1.563,-1.107 -1.524,1.683 c -0.838,0.926 -1.516,1.866 -1.508,2.09 0.01,0.377 4.432,3.376 5.004,3.396 0.141,0 0.527,-0.427 0.859,-0.961 z m -10.519,-0.972 c -0.03,-0.874 0.03,-1.683 0.15,-1.799 0.408,-0.408 0.963,0.266 0.963,1.171 0,0.893 0.02,0.9 0.706,0.277 0.388,-0.351 0.705,-0.743 0.705,-0.871 0,-0.19 -1.142,-0.859 -2.91,-1.707 -0.327,-0.156 -0.356,3.957 -0.03,4.283 0.424,0.425 0.476,0.254 0.416,-1.354 z m 20.896,-1.092 1.541,-1.998 -1.11,-0.923 c -0.611,-0.508 -1.589,-1.205 -2.174,-1.549 l -1.064,-0.625 -1.306,1.411 c -2.546,2.752 -2.544,2.587 -0.06,4.344 1.213,0.859 2.302,1.511 2.419,1.449 0.118,-0.06 0.907,-1.01 1.755,-2.109 z m 3.107,1.206 2.606,-0.773 -1.018,-0.814 c -0.56,-0.448 -1.184,-0.816 -1.386,-0.816 -0.202,0 -1.068,0.712 -1.925,1.585 -0.857,0.873 -1.406,1.588 -1.22,1.589 0.186,0 1.51,-0.347 2.943,-0.771 z m 6.624,-2.111 c 1.133,-0.421 2.189,-0.876 2.348,-1.012 0.297,-0.254 -4.328,-4.299 -4.729,-4.136 -0.4,0.163 -3.144,3.477 -3.144,3.797 0,0.301 2.76,2.105 3.232,2.112 0.128,0 1.16,-0.341 2.293,-0.761 z m -26.133,-1.441 c 2.571,-2.806 2.566,-2.432 0.06,-4.402 -2.862,-2.249 -3.676,-2.696 -3.859,-2.118 -0.07,0.239 -0.05,1.748 0.05,3.353 0.18,2.762 0.247,2.956 1.249,3.614 0.582,0.382 1.146,0.696 1.253,0.697 0.108,0 0.668,-0.513 1.246,-1.144 z m 10.858,-1.523 c 0.943,-1.075 1.657,-1.992 1.587,-2.037 -0.07,-0.05 -1.015,-0.751 -2.1,-1.568 -1.085,-0.818 -2.117,-1.484 -2.293,-1.482 -0.32,0 -3.672,3.664 -3.672,4.008 0,0.296 3.96,3.044 4.379,3.039 0.211,0 1.155,-0.885 2.099,-1.96 z m 23.835,0.55 c 2.729,-0.825 3.377,-1.19 3.052,-1.717 -0.465,-0.751 -3.332,-2.509 -3.794,-2.325 -0.456,0.183 -1.945,2.105 -3.225,4.168 l -0.642,1.033 1.145,-0.229 c 0.63,-0.126 2.189,-0.544 3.464,-0.93 z m -13.941,-1.446 c 0.891,-0.991 1.62,-1.941 1.62,-2.112 0,-0.17 -0.913,-1.033 -2.029,-1.918 l -2.028,-1.609 -1.852,2.045 c -1.018,1.124 -1.851,2.155 -1.852,2.29 0,0.284 3.867,3.106 4.258,3.106 0.144,0 0.991,-0.811 1.883,-1.802 z m -25.897,-0.823 c 0,-1.893 -0.508,-2.885 -0.924,-1.803 -0.29,0.758 0.182,3.722 0.593,3.722 0.182,0 0.331,-0.863 0.331,-1.919 z m 36.197,-0.407 c 0.953,-1.336 1.511,-2.425 1.31,-2.558 -2.935,-1.938 -4.03,-2.568 -4.289,-2.468 -0.546,0.211 -3.268,3.539 -3.16,3.863 0.13,0.388 3.889,3.489 4.229,3.489 0.137,0 0.997,-1.047 1.91,-2.326 z m 12.754,0.02 c 2.446,-0.69 4.677,-1.382 4.957,-1.539 0.368,-0.206 -0.223,-0.689 -2.137,-1.745 -1.455,-0.803 -2.792,-1.46 -2.971,-1.46 -0.18,0 -1.142,1.024 -2.14,2.275 -1.871,2.348 -2.747,3.722 -2.373,3.722 0.118,0 2.217,-0.564 4.664,-1.253 z m -37.213,-3.545 c 0.191,-0.321 -0.526,-1 -2.365,-2.241 -1.451,-0.979 -2.784,-1.78 -2.962,-1.78 -0.406,0 -3.236,3.044 -3.236,3.48 0,0.177 1.218,1.204 2.706,2.282 l 2.706,1.962 1.439,-1.621 c 0.792,-0.891 1.562,-1.828 1.712,-2.082 z m 33.639,0.829 c 2.523,-3.163 2.491,-2.948 0.612,-4.14 l -1.673,-1.06 -0.847,0.792 c -1.482,1.386 -3.329,4.139 -3.129,4.662 0.166,0.433 2.482,1.889 3.077,1.936 0.11,0 0.992,-0.977 1.96,-2.19 z m -23.153,-2.394 c 10e-4,-0.235 -3.377,-2.774 -4.017,-3.019 -0.588,-0.226 -4.321,4.018 -3.883,4.415 0.174,0.158 1.189,0.871 2.257,1.586 l 1.94,1.3 1.851,-2.046 c 1.019,-1.126 1.852,-2.132 1.852,-2.236 z m 8.261,1.067 c 0.91,-0.972 1.563,-1.916 1.452,-2.096 -0.112,-0.18 -1.179,-0.921 -2.372,-1.645 l -2.168,-1.318 -1.521,1.738 c -0.836,0.956 -1.523,1.85 -1.527,1.986 -0.01,0.348 3.611,3.09 4.09,3.097 0.216,0 1.137,-0.789 2.046,-1.762 z m 27.051,0.236 c 0.179,-1.106 0.07,-1.537 -0.613,-2.345 -0.881,-1.046 -3.982,-3.178 -4.624,-3.178 -0.445,0 -2.609,2.843 -2.473,3.249 0.187,0.558 6.112,3.802 6.79,3.717 0.516,-0.06 0.759,-0.445 0.92,-1.443 z m -57.231,-0.08 c 0.07,-0.06 -0.459,-0.714 -1.176,-1.452 -0.944,-0.971 -1.255,-1.147 -1.125,-0.636 0.1,0.388 0.283,1.221 0.41,1.85 0.209,1.041 0.299,1.108 0.996,0.746 0.422,-0.219 0.824,-0.448 0.895,-0.508 z m 40.441,-1.748 c 0.97,-1.254 1.804,-2.478 1.852,-2.721 0.08,-0.425 -3.089,-2.734 -3.758,-2.734 -0.494,0 -4.352,4.509 -4.213,4.924 0.148,0.439 3.51,2.795 4.002,2.805 0.194,0 1.147,-1.02 2.117,-2.274 z m -36.441,-1.682 c 0.642,-0.895 0.658,-1.046 0.164,-1.587 -0.299,-0.329 -1.115,-0.904 -1.812,-1.278 l -1.268,-0.679 -1.033,1.209 c -0.568,0.664 -1.039,1.461 -1.047,1.771 -0.01,0.31 0.559,1.154 1.26,1.876 l 1.275,1.312 0.877,-0.817 c 0.481,-0.45 1.195,-1.263 1.584,-1.807 z m 10.6,0.474 c 0.922,-1.135 1.676,-2.145 1.676,-2.245 0,-0.27 -4.875,-3.766 -5.251,-3.766 -0.361,0 -3.926,3.802 -3.914,4.173 0.01,0.234 5.298,3.892 5.637,3.898 0.1,0 0.93,-0.926 1.852,-2.06 z m 9.76,-0.945 c 0.792,-0.901 1.441,-1.752 1.441,-1.891 0,-0.304 -3.736,-2.822 -4.187,-2.822 -0.398,0 -2.869,2.71 -2.869,3.146 0,0.358 3.461,3.204 3.897,3.204 0.152,0 0.925,-0.737 1.718,-1.637 z m 25.079,-0.659 c 0.602,-0.875 1.014,-1.721 0.916,-1.879 -0.1,-0.159 -0.844,-0.589 -1.657,-0.956 l -1.479,-0.667 -1.184,1.37 c -0.651,0.754 -1.184,1.481 -1.184,1.616 0,0.334 2.539,2.058 3.07,2.085 0.233,0.01 0.916,-0.695 1.518,-1.569 z m -14.284,-1.077 2.031,-2.314 -0.831,-0.596 c -1.859,-1.334 -3.632,-2.189 -4.178,-2.016 -0.608,0.193 -3.907,3.933 -3.907,4.429 0,0.356 3.882,2.811 4.444,2.811 0.225,0 1.323,-1.041 2.441,-2.314 z m -36.71,0.928 c 0.112,-0.181 0.04,-0.429 -0.155,-0.55 -0.197,-0.122 -0.359,0.03 -0.359,0.328 0,0.62 0.212,0.711 0.514,0.222 z m 58.309,-0.113 c -0.09,-0.243 -0.431,-1.357 -0.755,-2.476 -0.648,-2.24 -0.944,-2.296 -2.634,-0.489 l -0.834,0.891 1.893,1.24 c 2.031,1.331 2.593,1.532 2.33,0.834 z m -48.815,-2.807 1.951,-2.19 -1.996,-1.326 c -2.279,-1.513 -2.125,-1.562 -4.704,1.514 l -1.366,1.629 1.846,1.259 c 1.015,0.693 1.952,1.269 2.082,1.282 0.13,0.01 1.115,-0.964 2.187,-2.168 z m 36.886,0.522 c 0.596,-0.724 1.084,-1.421 1.084,-1.551 0,-0.13 -0.784,-0.739 -1.743,-1.354 -1.342,-0.861 -1.89,-1.039 -2.381,-0.773 -0.795,0.431 -2.758,2.468 -2.553,2.65 0.345,0.306 4.05,2.337 4.27,2.34 0.131,0 0.727,-0.589 1.323,-1.312 z m -46.538,0.43 c 0.359,-0.433 0.301,-0.87 -0.31,-2.34 -0.413,-0.995 -0.751,-2.422 -0.751,-3.172 0,-0.75 -0.159,-1.364 -0.353,-1.364 -0.194,0 -0.353,0.357 -0.353,0.794 0,1.552 0.817,6.614 1.069,6.614 0.141,0 0.455,-0.239 0.698,-0.532 z m 20.715,-1.158 1.425,-1.69 -1.274,-0.868 c -0.701,-0.477 -1.944,-1.299 -2.762,-1.826 l -1.488,-0.959 -1.342,1.416 c -0.738,0.779 -1.342,1.561 -1.342,1.737 0,0.291 4.652,3.766 5.148,3.846 0.115,0.02 0.851,-0.726 1.635,-1.656 z m 9.943,-1.27 c 0.987,-1.241 1.795,-2.34 1.795,-2.444 0,-0.299 -3.738,-2.357 -4.281,-2.357 -0.466,0 -3.351,3.314 -3.531,4.057 -0.08,0.323 3.446,2.963 3.989,2.988 0.129,0 1.041,-1.004 2.028,-2.244 z m 23.676,0.478 c 0.869,-1.221 0.639,-1.751 -1.169,-2.685 -0.989,-0.512 -1.079,-0.492 -2.054,0.442 -0.561,0.537 -1.018,1.145 -1.016,1.352 0,0.407 2.382,1.921 3.059,1.946 0.23,0 0.76,-0.466 1.18,-1.055 z m -50.171,-1.976 c 1.724,-2.038 2.202,-2.95 1.546,-2.95 -0.157,0 -1.208,-0.556 -2.336,-1.235 -1.128,-0.679 -2.186,-1.235 -2.352,-1.235 -0.166,0 -0.532,0.358 -0.814,0.794 -0.409,0.635 -0.44,1.179 -0.155,2.716 0.402,2.175 1.635,4.845 2.023,4.382 0.141,-0.169 1.08,-1.281 2.088,-2.472 z m 36.926,0.231 c 0.755,-0.772 1.268,-1.508 1.141,-1.635 -0.127,-0.127 -1.228,-0.848 -2.447,-1.602 l -2.215,-1.371 -1.364,1.449 c -0.922,0.98 -1.247,1.565 -1.005,1.807 0.398,0.398 4.023,2.685 4.326,2.729 0.106,0.01 0.81,-0.604 1.564,-1.377 z m 8.76,-0.987 0.993,-1.307 -0.993,-0.797 c -1.679,-1.348 -2.194,-1.347 -3.55,0.01 -1.383,1.383 -1.314,1.724 0.552,2.71 1.739,0.918 1.852,0.895 2.998,-0.616 z m -24.838,-1.198 c 0.969,-1.198 1.694,-2.289 1.61,-2.425 -0.23,-0.371 -4.998,-3.157 -5.404,-3.157 -0.193,0 -1.103,0.88 -2.022,1.955 -1.148,1.344 -1.557,2.069 -1.306,2.319 0.536,0.537 4.821,3.442 5.111,3.466 0.136,0.01 1.041,-0.959 2.011,-2.158 z m -10.898,0.193 1.505,-1.634 -1.885,-1.189 c -1.037,-0.653 -2.08,-1.188 -2.319,-1.188 -0.51,0 -3.138,3.105 -2.862,3.381 0.489,0.488 3.308,2.211 3.659,2.236 0.218,0.02 1.074,-0.708 1.902,-1.606 z m 41.976,-0.746 c -0.257,-1.117 -0.571,-2.153 -0.699,-2.302 -0.127,-0.149 -0.768,0.397 -1.423,1.212 -0.655,0.816 -1.041,1.536 -0.858,1.6 0.184,0.07 0.969,0.485 1.745,0.935 0.776,0.45 1.476,0.765 1.556,0.701 0.08,-0.06 -0.06,-1.03 -0.321,-2.146 z m -20.109,-2.262 c 0,-0.369 -3.027,-2.415 -3.574,-2.415 -0.552,0 -2.776,2.111 -2.776,2.635 0,0.209 0.83,0.89 1.843,1.513 l 1.843,1.133 1.332,-1.301 c 0.733,-0.715 1.332,-1.419 1.332,-1.565 z m 8.971,1.201 c 0.689,-0.727 1.254,-1.402 1.253,-1.499 0,-0.1 -1.143,-0.849 -2.54,-1.671 l -2.54,-1.494 -1.015,0.965 c -1.914,1.821 -1.881,1.983 0.73,3.56 1.305,0.788 2.482,1.44 2.616,1.448 0.133,0 0.806,-0.581 1.496,-1.309 z m -35.814,-1.633 1.202,-1.25 -0.849,-0.727 c -2.744,-2.348 -5.305,-2.629 -6.656,-0.732 -0.396,0.557 -0.72,1.147 -0.72,1.313 0,0.166 1.071,0.952 2.381,1.747 2.631,1.598 2.779,1.586 4.642,-0.351 z m 44.042,0.444 c 0.727,-0.799 1.38,-1.606 1.45,-1.793 0.07,-0.187 -0.402,-0.782 -1.049,-1.322 l -1.175,-0.981 -1.863,1.607 c -1.024,0.885 -1.86,1.776 -1.857,1.982 0.01,0.434 2.079,1.907 2.73,1.939 0.243,0.01 1.037,-0.632 1.764,-1.432 z m -53.888,-1.353 c 0,-0.417 -1.395,-1.56 -1.624,-1.33 -0.115,0.115 -0.1,0.888 0.05,1.717 l 0.255,1.508 0.662,-0.818 c 0.364,-0.45 0.662,-0.934 0.662,-1.077 z m 18.887,-0.04 c 1.679,-1.713 1.723,-1.807 1.066,-2.293 -0.377,-0.279 -1.276,-0.507 -1.999,-0.507 -0.724,0 -1.549,-0.09 -1.834,-0.2 -0.477,-0.183 -2.708,1.779 -2.712,2.385 0,0.318 2.883,2.364 3.363,2.385 0.201,0 1.153,-0.788 2.116,-1.77 z m 13.216,-2.825 c 0,-0.507 -8.369,-0.419 -8.684,0.09 -0.142,0.23 -0.03,0.551 0.244,0.713 0.276,0.162 1.535,0.921 2.796,1.687 l 2.293,1.392 1.676,-1.777 c 0.921,-0.978 1.675,-1.926 1.675,-2.106 z m 8.784,-0.06 c 0.02,-0.145 -1.651,-0.264 -3.712,-0.264 -4.235,0 -4.278,0.08 -1.198,2.324 l 1.581,1.15 1.647,-1.473 c 0.905,-0.809 1.662,-1.591 1.682,-1.737 z m 8.855,1.323 1.558,-1.587 h -3.954 c -2.175,0 -3.952,0.119 -3.949,0.264 0.01,0.33 3.917,2.901 4.42,2.907 0.202,0 1.068,-0.711 1.925,-1.584 z m -37.042,-0.529 0.754,-1.058 h -2.052 l -2.053,0.01 1.235,1.039 c 0.679,0.572 1.263,1.044 1.299,1.049 0.03,0 0.403,-0.467 0.817,-1.049 z m -10.653,0.282 c 0.681,-0.682 0.501,-0.941 -0.828,-1.19 -1.553,-0.292 -1.875,-0.01 -1.044,0.906 0.732,0.809 1.265,0.89 1.872,0.284 z m 19.296,-0.987 c 0.12,-0.194 0.05,-0.353 -0.155,-0.353 -0.206,0 -0.374,0.159 -0.374,0.353 0,0.194 0.07,0.352 0.156,0.352 0.09,0 0.254,-0.158 0.373,-0.352 z m 34.044,-0.156 c 0,-0.09 -0.159,-0.254 -0.353,-0.374 -0.194,-0.12 -0.353,-0.05 -0.353,0.156 0,0.205 0.159,0.374 0.353,0.374 0.194,0 0.353,-0.07 0.353,-0.156 z m -289.807,-5.661 c 9.313,-0.662 20.822,-1.456 25.576,-1.764 24.935,-1.614 31.32,-2.28 35.426,-3.696 3.52,-1.215 5.275,-2.644 10.575,-8.614 6.757,-7.611 11.629,-12.226 16.092,-15.242 11.255,-7.608 22.531,-12.046 36.437,-14.34 4,-0.66 6.076,-0.77 14.712,-0.779 8.884,0 10.587,0.08 14.64,0.788 11.371,1.978 22.161,5.888 31.632,11.461 3.398,2 10.441,7.189 16.76,12.349 3.797,3.101 9.955,7.606 11.415,8.352 1.392,0.712 -6.503,-7.126 -10.947,-10.868 -16.15,-13.595 -35.4,-22.017 -55.021,-24.071 -6.023,-0.631 -20.503,-0.234 -26.118,0.716 -14.509,2.455 -25.287,6.91 -36.133,14.936 -3.041,2.251 -6.38,5.291 -11.67,10.624 -11.647,11.741 -12.242,12.081 -22.576,12.895 -2.717,0.214 -8.908,0.709 -13.759,1.101 -4.85,0.391 -12.153,0.937 -16.228,1.214 -12.174,0.828 -22.986,1.577 -28.045,1.944 -8.539,0.618 -19.42,0.815 -21.659,0.39 -6.452,-1.223 -10.374,-5.245 -10.719,-10.994 -0.319,-5.303 2.52,-16.875 6.703,-27.328 8.6,-21.49 20.922,-39.657 38.776,-57.168 15.695,-15.394 31.311,-26.19 51.731,-35.766 17.788,-8.342 34.54,-13.58 51.387,-16.067 27.658,-4.083 49.408,-3.186 76.926,3.172 25.192,5.82 51.764,18.581 71.488,34.332 23.852,19.046 41.8,43.23 55.137,74.292 3.288,7.66 3.878,9.72 3.892,13.609 0.01,2.56 -0.133,3.307 -0.978,5.115 -2.357,5.043 -6.549,7.205 -17.355,8.951 -2.523,0.407 -4.983,0.814 -5.468,0.903 -1.246,0.23 5.942,-0.07 11.818,-0.5 7.042,-0.511 7.071,-0.519 9.176,-2.51 4.183,-3.956 5.5,-11.131 3.327,-18.129 -1.184,-3.814 -6.437,-15.948 -9.699,-22.405 -6.292,-12.454 -14.439,-24.728 -24.118,-36.332 -4.057,-4.865 -14.299,-15.209 -19.432,-19.626 -18.456,-15.884 -39.253,-27.75 -61.99,-35.37 -13.649,-4.574 -25.496,-7.116 -41.55,-8.916 -6.683,-0.749 -29.899,-0.645 -36.866,0.165 -26.065,3.03 -49.182,9.97 -73.025,21.922 -24.909,12.486 -45.017,29.009 -62.272,51.169 -11.057,14.2 -20.689,31.953 -25.693,47.355 -3.068,9.44 -3.573,11.974 -3.574,17.909 0,4.71 0.09,5.515 0.815,7.319 1.634,4.06 5.859,7.437 10.702,8.55 2.934,0.674 8.113,0.492 29.752,-1.048 z m 261.937,-4.068 c 21.933,-0.536 31.95,-1.282 40.746,-3.033 3.291,-0.656 4.676,-1.263 2.293,-1.007 -13.096,1.409 -65.361,1.958 -80.786,0.848 -9.901,-0.713 -12.294,-1.912 -27.922,-13.992 -5.09,-3.934 -9.12,-6.823 -9.115,-6.532 0.02,1.012 20.063,18.218 24.866,21.343 1.638,1.066 4.492,1.944 7.653,2.354 3.247,0.422 25.387,0.432 42.265,0.02 z m -270.757,-0.877 c 7.808,-0.532 24.088,-1.691 32.279,-2.297 2.426,-0.18 4.828,-0.331 5.339,-0.337 0.921,-0.01 0.924,-0.02 0.456,-1.333 -1.072,-3.005 -0.484,-4.317 3.491,-7.79 1.259,-1.1 3.217,-3.104 4.351,-4.455 5.968,-7.107 7.09,-7.829 11.681,-7.508 1.5,0.104 5.348,0.77 8.549,1.48 6.378,1.413 9.968,2.848 12.226,4.888 l 1.374,1.242 3.872,-3.699 c 13.56,-12.955 28.005,-20.044 47.105,-23.114 4.478,-0.72 6.317,-0.819 15.151,-0.816 7.917,0 10.916,0.139 14.111,0.638 11.194,1.748 20.522,4.7 30.868,9.769 10.477,5.133 19.724,11.924 29.651,21.778 4.7,4.666 5.954,5.72 7.383,6.207 1.526,0.52 4.02,0.586 22.031,0.585 25.223,0 37.104,-0.493 51.707,-2.14 13.148,-1.483 18.032,-3.335 20.435,-7.751 1.186,-2.178 1.544,-5.28 0.939,-8.123 -1.102,-5.182 -10.023,-24.359 -15.738,-33.83 -9.002,-14.921 -16.769,-25.029 -27.508,-35.805 -22.64,-22.715 -51.487,-38.884 -83.734,-46.933 -23.554,-5.879 -44.937,-7.273 -70.148,-4.573 -16.171,1.732 -33.947,6.343 -49.142,12.747 -18.193,7.669 -35.038,17.609 -48.507,28.623 -8.03,6.567 -18.658,17.154 -25.35,25.254 -5.838,7.066 -12.991,17.72 -17.607,26.227 -9.276,17.091 -15.945,39.487 -13.5,45.338 1.111,2.659 3.883,4.877 7.22,5.777 2.255,0.608 11.705,0.586 21.015,-0.05 z m 49.742,-3.692 c 2.522,-0.188 7.205,-0.521 10.407,-0.74 6.599,-0.453 7.828,-0.839 11.503,-3.621 2.103,-1.592 6.842,-6.343 6.84,-6.857 0,-0.367 -5.538,-3.484 -7.268,-4.092 -2.807,-0.985 -11.806,-2.692 -14.166,-2.686 -1.805,0 -2.714,0.196 -3.774,0.797 -1.612,0.913 -5.235,5.065 -6.226,7.135 -0.371,0.776 -0.475,1.109 -0.23,0.74 3.768,-5.678 7.52,-7.522 13.364,-6.568 4.595,0.75 11.415,2.478 12.582,3.188 1.19,0.723 1.483,1.645 0.628,1.974 -0.278,0.106 -3.076,-0.315 -6.218,-0.937 -9.12,-1.805 -10.882,-1.486 -16.289,2.948 -2.575,2.112 -3.724,2.544 -5.439,2.046 -1.262,-0.367 -2.621,0.274 -4.622,2.181 -1.226,1.168 -1.475,2.514 -0.794,4.304 0.343,0.904 0.41,0.921 2.734,0.728 1.31,-0.11 4.445,-0.352 6.968,-0.54 z m -4.763,-0.892 c 0,-0.151 0.278,-0.479 0.618,-0.729 0.574,-0.422 0.547,-0.527 -0.389,-1.507 -0.939,-0.983 -0.963,-1.075 -0.353,-1.387 0.36,-0.184 1.199,-0.438 1.865,-0.565 0.667,-0.127 2.334,-1.049 3.704,-2.05 4.904,-3.578 7.672,-4.271 13.253,-3.314 3.915,0.671 7.945,1.868 8.487,2.521 0.56,0.675 -0.428,1.984 -2.903,3.844 -2.401,1.806 -2.582,1.846 -9.499,2.119 -2.831,0.113 -6.483,0.365 -8.113,0.562 -5.99,0.724 -6.67,0.775 -6.67,0.506 z"
       id="path12" /></g><path
     style="fill:#ffffff;stroke-width:2.15117"
     d="m 802.38605,1716.4193 c -85.12576,-8.4718 -175.02613,-30.9503 -244.3104,-61.087 C 411.34454,1591.5084 282.09062,1481.8255 190.49039,1343.4051 152.86536,1286.5485 134.31379,1251.537 111.84144,1194.9744 26.410907,979.947 36.095441,745.03855 138.85664,539.6929 213.51779,390.499 320.77456,271.47841 451.17167,193.12346 537.83126,141.05015 618.44931,112.37565 712.68492,100.10755 734.10564,97.31888 773.36658,95.675229 757.2115,98.243452 633.04856,117.98201 519.01186,161.87899 442.06523,219.555 c -18.22455,13.66037 -33.77606,27.82944 -30.54472,27.82944 0.7987,0 9.93405,-4.87234 20.30079,-10.82741 28.07433,-16.12705 85.24001,-43.79083 115.11936,-55.70891 77.20249,-30.79403 155.89894,-49.66687 247.49613,-59.35409 27.43891,-2.90191 48.39861,-3.3988 108.63403,-2.57539 78.02796,1.06663 95.48478,2.70857 155.30438,14.60747 190.8666,37.96588 346.8168,131.31728 466.6878,279.35813 42.1837,52.09697 74.9664,103.47641 114.4945,179.44432 12.2213,23.48769 22.5098,41.27767 22.8633,39.53326 1.196,-5.90265 -21.0459,-62.6788 -38.1156,-97.29632 -28.0836,-56.95362 -67.9235,-115.9906 -114.6823,-169.94235 -25.5864,-29.52241 -92.461,-95.34568 -121.0433,-119.14043 -38.7247,-32.23827 -92.2876,-70.36455 -128.6295,-91.55898 -19.4587,-11.3482 -8.4182,-7.89977 19.5035,6.09182 100.3927,50.30689 178.8256,114.66437 253.289,207.83434 22.645,28.33389 64.1311,90.76759 82.6757,124.42115 100.8438,183.00524 131.1983,404.15264 81.9624,597.13585 -52.0717,204.0984 -161.0977,366.692 -320.6325,478.1684 -26.8941,18.7926 -62.0682,40.3808 -63.4849,38.9641 -0.487,-0.487 9.4838,-8.6785 22.1572,-18.2033 188.3484,-141.5533 319.1403,-364.794 345.7821,-590.19367 12.0185,-101.68213 1.4679,-219.5458 -26.0577,-291.09639 -14.7633,-38.37586 -29.1136,-63.24078 -50.7132,-87.87125 -9.7234,-11.08771 -14.9868,-19.967 -23.183,-39.10905 C 1544.555,494.36852 1498.2248,422.15709 1437.5018,356.01847 1291.3779,196.86232 1085.3291,116.55126 854.97449,128.96839 722.28329,136.12103 606.2513,169.88707 495.62893,233.54021 398.84309,289.23167 320.45806,361.86081 258.96995,452.82108 216.77699,515.23774 183.27716,582.57921 149.2821,673.3159 c -8.64381,23.07129 -15.75957,39.93536 -15.81281,37.47571 -0.16107,-7.44065 18.26677,-68.98603 29.57778,-98.78402 35.32537,-93.06194 68.59347,-149.61037 161.16828,-273.95039 20.56826,-27.62585 37.07017,-51.20878 36.67092,-52.40651 -0.39924,-1.19774 -11.33808,7.49555 -24.30853,19.31842 -68.1038,62.07819 -142.43376,161.29019 -186.5747,249.03076 -29.57085,58.77906 -51.540508,126.21604 -64.800791,198.90929 -9.767958,53.54823 -10.995322,70.24472 -10.832107,147.35508 0.166628,78.72164 2.648894,110.59146 12.98508,166.71556 47.441518,257.6011 232.503948,476.2891 487.028458,575.5209 69.59538,27.1332 149.62966,45.1873 233.69016,52.7156 44.28092,3.9657 146.88849,1.6147 184.69066,-4.2317 111.5724,-17.2556 196.4227,-49.8571 286.1055,-109.9285 101.2529,-67.8213 195.6202,-170.3928 258.2243,-280.6744 17.8858,-31.5071 45.0717,-87.4519 55.9258,-115.0876 10.5829,-26.945 29.8176,-84.0533 33.3287,-98.9537 1.5333,-6.5073 3.1633,-10.7156 3.6221,-9.3519 0.4588,1.3638 -1.7197,13.9482 -4.8412,27.9652 -26.146,117.4114 -97.6002,254.1122 -186.4831,356.7657 -27.1831,31.3945 -78.8001,81.5778 -108.1486,105.1447 -69.7386,56.0002 -154.7037,100.7574 -235.553,124.0826 -28.5559,8.2385 -77.0806,18.0547 -111.86076,22.6288 -31.81456,4.184 -148.74079,6.0242 -180.69819,2.8438 z"
     id="path1"
     transform="scale(0.26458333)" /><path
     style="fill:#ffffff;stroke-width:2.15117"
     d="m 473.25719,964.57166 c -20.70501,-6.54334 -66.20223,-20.90083 -101.10495,-31.90553 -34.90272,-11.0047 -67.23779,-21.59954 -71.85572,-23.5441 l -8.39623,-3.53556 1.32644,-29.55073 c 2.01722,-44.94032 12.79829,-96.1961 21.80622,-103.67202 4.42754,-3.67453 167.24794,-17.30339 206.71911,-17.30339 20.19864,0 21.32439,2.02009 19.46402,34.92674 -1.75105,30.97267 -11.36024,150.70234 -13.32411,166.01719 -1.36465,10.64201 -8.32876,20.71627 -14.20259,20.54544 -1.53271,-0.0446 -19.72719,-5.43469 -40.43219,-11.97804 z m 44.0699,-0.80091 c 2.61603,-4.23284 13.17619,-135.7833 14.28587,-177.96273 0.60179,-22.87484 0.32913,-23.05394 -32.56282,-21.38923 -30.79155,1.55841 -155.69668,11.48126 -169.23897,13.44487 -8.07081,1.17025 -9.35825,2.20514 -12.49456,10.04357 -4.50128,11.2498 -13.27433,63.27711 -15.22647,90.29841 l -1.51459,20.96478 9.43652,4.16065 c 7.5786,3.34146 96.2057,31.80829 180.45447,57.96156 15.48667,4.80752 24.88502,5.6746 26.86055,2.47812 z"
     id="path2"
     transform="scale(0.26458333)" /><path
     style="fill:#ffffff;stroke-width:2.15117"
     d="m 857.24086,1208.8214 c -105.06509,-7.0423 -201.5393,-72.187 -250.16613,-168.926 -28.14134,-55.98481 -38.70709,-122.72874 -28.68623,-181.21115 5.33992,-31.1641 14.02474,-58.49055 27.12221,-85.33899 15.43344,-31.63692 30.20996,-51.83515 59.11984,-80.81176 46.99667,-47.10515 94.76254,-73.62235 157.17378,-87.25496 28.01594,-6.11958 86.00563,-5.61178 115.8483,1.01446 63.00727,13.99004 111.48457,40.62514 157.26767,86.40821 63.4982,63.49822 92.9166,136.50073 89.7114,222.62121 -1.7688,47.52569 -9.2765,77.20892 -30.4688,120.46548 -16.3537,33.3801 -31.1414,54.5571 -56.3552,80.7043 -24.2393,25.1367 -46.3216,42.0585 -74.3239,56.9549 -33.07414,17.5945 -79.87506,32.074 -111.38813,34.4619 -8.87358,0.6724 -19.52186,1.5096 -23.66286,1.8605 -4.141,0.3509 -18.17738,-0.076 -31.19195,-0.9481 z m 73.06234,-18.196 c 117.8265,-20.5472 211.4226,-111.6873 235.8138,-229.62577 5.9093,-28.57311 6.4643,-79.75188 1.1644,-107.37751 -11.0763,-57.7362 -37.7385,-107.26825 -80.8442,-150.18985 -46.0055,-45.8091 -92.51199,-71.01955 -154.98101,-84.01293 -31.54074,-6.56038 -76.06071,-6.55583 -107.55785,0.011 -118.13322,24.62956 -210.90782,119.34625 -231.26992,236.1112 -4.1057,23.54381 -4.13577,72.18265 -0.0591,95.56011 9.70094,55.62935 36.12285,111.11645 70.17699,147.37475 35.09022,37.3614 69.16762,60.4672 115.48216,78.3013 47.34974,18.2328 99.6299,22.9933 152.07471,13.8477 z"
     id="path3"
     transform="scale(0.26458333)" /><path
     style="fill:#ffffff;stroke-width:2.15117"
     d="m 856.16527,1029.0627 c -40.67077,-7.8586 -77.77783,-35.282 -96.43111,-71.26579 -35.04914,-67.61282 -7.5754,-150.7991 60.93682,-184.50738 20.27599,-9.97586 37.05865,-13.92686 59.15715,-13.92686 62.23139,0 116.47754,42.20727 132.19307,102.85534 4.3536,16.80125 4.3138,50.82347 -0.079,67.85208 -10.7035,41.48793 -45.51173,78.65311 -87.35475,93.26971 -12.4043,4.3331 -20.70695,5.6247 -39.381,6.1264 -13.01457,0.3496 -26.08292,0.1681 -29.04078,-0.4035 z m 56.56888,-16.9142 c 42.76641,-11.1392 77.34628,-47.43279 86.54227,-90.83108 13.58778,-64.12403 -25.19789,-127.1548 -88.36884,-143.60874 -16.05983,-4.18305 -45.9422,-4.22391 -61.8343,-0.0845 -53.48982,13.93233 -89.71061,62.03284 -89.71061,119.13396 0,34.37496 10.34676,60.07152 33.56562,83.36141 24.80608,24.88195 49.48038,35.11615 84.83451,35.18685 13.29046,0.027 27.76239,-1.2802 34.97135,-3.1579 z"
     id="path4"
     transform="scale(0.26458333)" /><path
     style="fill:#ffffff;stroke-width:2.15117"
     d=""
     id="path5"
     transform="scale(0.26458333)" /><path
     style="fill:#ffffff;stroke-width:2.15117"
     d="m 861.42437,987.44589 c -11.17317,-1.68347 -32.58286,-10.02248 -30.66242,-11.94292 0.59158,-0.59157 5.61205,0.93111 11.15662,3.38373 12.88258,5.69858 35.49402,7.60498 51.2887,4.32422 28.00232,-5.81645 54.16048,-26.09552 65.4393,-50.73171 10.68732,-23.34417 11.08136,-56.74206 0.93996,-79.66837 -2.48582,-5.6196 -4.13433,-10.60279 -3.66337,-11.07375 1.68168,-1.68169 9.66581,13.59067 14.29037,27.3352 6.50464,19.33224 5.31921,47.16801 -2.76845,65.00762 -16.57591,36.56281 -62.87365,59.86698 -106.02071,53.36598 z"
     id="path6"
     transform="scale(0.26458333)" /><path
     style="fill:#ffffff;stroke-width:2.15117"
     d="m 1182.0674,732.83688 c -5.9157,-1.55052 -13.6599,-4.35098 -17.2094,-6.22326 -7.8671,-4.14978 -72.5726,-57.80862 -71.2747,-59.10653 0.5089,-0.50893 13.306,8.29086 28.438,19.55508 32.808,24.4223 48.3107,32.4565 69.8064,36.17695 17.5282,3.03373 220.8069,4.02867 279.5719,1.36835 31.1453,-1.40997 31.1665,-1.40771 14.1663,1.51148 -31.6566,5.43588 -79.3861,7.63674 -186.2598,8.58863 -83.3765,0.74261 -108.8169,0.33668 -117.2387,-1.8707 z"
     id="path7"
     transform="scale(0.26458333)" /><path
     style="fill:#ffffff;stroke-width:2.15117"
     d="m 245.21934,753.21041 c -15.38853,-5.13764 -28.4212,-16.24753 -35.48685,-30.25127 -3.10265,-6.14928 -3.55122,-11.64458 -2.72169,-33.34312 0.92619,-24.22714 1.74066,-28.21869 12.06932,-59.14902 10.20267,-30.55302 44.13829,-105.52302 46.63533,-103.02598 0.58676,0.58676 -5.13722,14.04612 -12.71996,29.90969 -27.41082,57.34519 -40.56173,100.56417 -40.89318,134.39084 -0.19663,20.06744 0.2103,22.29197 5.5591,30.38976 3.76994,5.70746 9.6977,10.69398 17.09393,14.37968 10.85329,5.40843 12.80465,5.64232 47.07214,5.64232 50.5083,0 284.10491,-16.60457 300.67786,-21.37285 12.65242,-3.64029 22.41473,-11.3302 57.44918,-45.25361 56.84748,-55.04464 94.00127,-76.62686 158.12919,-91.85543 18.99985,-4.51193 29.81271,-5.55073 68.08035,-6.54051 49.24202,-1.27365 66.77172,0.30244 102.1429,9.18362 49.42234,12.40921 97.81084,36.22245 141.09464,69.43642 19.4179,14.90038 47.8453,41.00889 44.7006,41.05426 -1.1832,0.0171 -15.7036,-10.73907 -32.2676,-23.90252 -65.2187,-51.82946 -106.3906,-72.46334 -170.7676,-85.58254 -30.77674,-6.2719 -99.92727,-6.2473 -132.54439,0.0472 -43.51146,8.39684 -84.52995,24.79132 -121.00104,48.3623 -14.07443,9.09621 -28.60336,22.06112 -57.54879,51.35378 -35.73638,36.1651 -39.633,39.45953 -50.55247,42.73992 -17.19238,5.1649 -38.32163,7.24822 -159.18651,15.69561 -115.86595,8.09804 -176.27469,10.60938 -185.01446,7.69149 z"
     id="path8"
     transform="scale(0.26458333)" /><path
     style="fill:#ffffff;stroke-width:2.15117"
     d="m 600.73931,692.26893 c 0.41768,-3.83894 -1.4764,-5.4707 -10.24341,-8.82475 -13.31731,-5.09487 -43.14908,-7.32785 -52.82671,-3.95421 -11.18732,3.89992 -10.18382,0.79179 1.40401,-4.34861 l 10.55049,-4.68024 27.96482,4.54696 c 19.00229,3.0897 28.65437,3.84295 30.11636,2.35029 3.98027,-4.06378 -6.58742,-9.64898 -28.02885,-14.81373 -21.82691,-5.25761 -38.46508,-6.50894 -49.41286,-3.71628 l -6.4535,1.64623 5.07844,-4.33519 c 6.52153,-5.56706 16.22742,-5.55455 43.76093,0.0564 20.21539,4.11963 44.72022,14.02393 48.05749,19.42376 1.42762,2.30993 -15.34075,21.35917 -18.80172,21.35917 -0.92286,0 -1.44733,-2.11942 -1.16549,-4.70983 z"
     id="path9"
     transform="scale(0.26458333)" /><path
     style="fill:#ffffff;stroke-width:2.15117"
     d="m 481.22038,719.28309 c -0.83033,-0.83033 -1.50969,-4.16638 -1.50969,-7.41345 0,-8.8843 10.79542,-17.08656 22.21453,-16.87839 l 8.97742,0.16366 -6.83691,2.5253 c -8.96629,3.31182 -10.43056,5.02078 -7.41511,8.65417 1.37215,1.65335 1.83108,4.73576 1.01985,6.84981 -1.3559,3.5334 -0.36027,3.72379 12.3321,2.35819 21.00607,-2.2601 62.20839,-4.30298 62.20839,-3.08441 0,0.59354 -17.66648,2.23828 -39.25883,3.65497 -21.59236,1.4167 -41.72556,3.04922 -44.74045,3.62782 -3.01489,0.57861 -6.16097,0.37266 -6.9913,-0.45767 z"
     id="path10"
     transform="scale(0.26458333)" /><path
     style="fill:#ffffff;stroke-width:2.15117"
     d="m 1244.6493,930.91839 c -6.0941,-5.44236 -6.3186,-6.70051 -18.7476,-105.10845 -6.0391,-47.81489 -6.5844,-55.99674 -4.1274,-61.92832 1.557,-3.759 4.8762,-8.00758 7.376,-9.4413 3.4119,-1.95683 33.0862,-2.57267 119.0201,-2.47008 107.1513,0.12792 114.7489,0.38465 118.7581,4.01294 7.586,6.86521 25.9681,69.64762 25.9774,88.72341 0.01,15.15915 -6.3402,22.58819 -24.2559,28.38844 -7.3613,2.38325 -55.0093,16.54269 -105.8844,31.46543 -50.8752,14.92274 -95.3068,28.04706 -98.737,29.16516 -9.4402,3.07712 -13.4388,2.4979 -19.3793,-2.80723 z m 161.9752,-47.90558 c 46.7456,-13.86927 68.9195,-21.43347 72.0642,-24.58342 6.5988,-6.60981 5.5762,-21.35005 -3.8836,-55.97884 -11.348,-41.54076 -9.9709,-39.60064 -29.2377,-41.19334 -8.8636,-0.73272 -58.6558,-1.45874 -110.6493,-1.61338 l -94.5337,-0.28116 -5.754,5.51267 c -6.477,6.20532 -6.4488,3.95552 -0.6711,53.64447 3.5787,30.77698 13.0922,94.54653 15.024,100.70645 0.6733,2.14712 3.2483,4.65258 5.722,5.56769 4.6426,1.71741 13.7731,-0.79365 151.9192,-41.78114 z"
     id="path11"
     transform="scale(0.26458333)" /><path
     style="fill:#ffffff;stroke-width:2.15117"
     d="m 824.09133,1564.1011 c -12.13186,-2.1197 -16.30222,-7.3699 -19.33685,-24.3437 -7.00486,-39.1807 -35.06241,-241.6205 -35.36211,-255.1434 -0.32919,-14.8538 0.005,-16.0733 5.76449,-21.0412 l 6.11394,-5.2736 89.97952,0.6052 89.97953,0.6051 5.54927,5.2151 c 4.57168,4.2963 5.53959,7.1386 5.4943,16.1337 -0.0302,6.0053 -6.62307,69.7629 -14.65074,141.6837 -14.56311,130.4726 -14.60865,130.7779 -20.36803,136.5372 l -5.77229,5.7723 -48.95218,0.4536 c -26.9237,0.2495 -53.22118,-0.2923 -58.43885,-1.204 z m 107.06892,-10.4193 c 4.07508,-3.4219 5.27677,-11.2031 13.20567,-85.5089 4.79745,-44.9595 11.11555,-101.871 14.04022,-126.4702 6.1801,-51.9802 6.57376,-64.496 2.16724,-68.9025 -2.34535,-2.3454 -11.8273,-3.559 -37.10766,-4.7495 -36.90473,-1.7379 -134.9425,-0.2079 -140.8961,2.1989 -2.02546,0.8188 -4.2403,3.2457 -4.92186,5.3931 -2.12368,6.6912 32.48405,253.4864 37.95415,270.6593 1.25097,3.9273 4.35531,7.98 6.89854,9.0061 2.54322,1.0261 27.0234,1.9269 54.4004,2.0019 44.38778,0.1216 50.26168,-0.2712 54.2594,-3.6282 z"
     id="path13"
     transform="scale(0.26458333)" /><path
     style="fill:#ffffff;stroke-width:2.15117"
     d="m 980.98332,1622.2549 c -11.8153,-7.9352 -20.94882,-21.6057 -22.83388,-34.1762 -4.34934,-29.0035 7.69547,-142.8229 29.42081,-278.0168 10.85356,-67.5402 18.67215,-94.5734 31.82255,-110.0276 3.9972,-4.6975 17.5032,-15.7562 30.0132,-24.5748 44.089,-31.0793 62.121,-48.9895 118.5099,-117.7084 12.3301,-15.0263 22.8346,-26.9042 23.3434,-26.3954 1.4518,1.4518 -44.519,64.559 -63.7788,87.5534 -23.0829,27.5589 -48.0355,50.4331 -75.1477,68.8881 -12.2404,8.3319 -24.0501,18.1003 -26.2438,21.7075 -6.2186,10.2257 -11.8463,34.0232 -24.5432,103.784 -20.66037,113.5141 -33.53349,211.0477 -33.49872,253.8039 0.0184,22.6256 0.65425,27.208 5.10042,36.7563 2.79367,5.9996 8.81293,13.9858 13.37613,17.7472 10.34149,8.5243 6.79847,8.9456 -5.54031,0.6588 z"
     id="path14"
     transform="scale(0.26458333)" /><path
     style="fill:#ffffff;stroke-width:2.15117"
     d="m 762.38761,1617.1413 c 17.29972,-23.5886 16.64216,-35.0116 -15.01471,-260.8292 -12.48203,-89.0379 -15.42661,-105.6218 -21.38956,-120.4655 -1.52843,-3.8048 -1.06873,-3.7013 3.97505,0.8949 11.58394,10.556 13.7027,19.0299 23.97995,95.9077 5.37765,40.2269 14.73047,107.0207 20.78406,148.4307 12.7161,86.9855 13.86761,107.4831 6.78246,120.7326 -4.7445,8.8725 -16.18072,20.1689 -20.41846,20.1689 -1.23667,0 -0.65113,-2.178 1.30121,-4.8401 z"
     id="path15"
     transform="scale(0.26458333)" /><path
     style="fill:#ffffff;stroke-width:2.15117"
     d="m 671.16474,1191.2343 c -22.30391,-18.9935 -57.35032,-53.8423 -72.66841,-72.2587 -6.22839,-7.4882 -20.70537,-26.8487 -32.17105,-43.0234 -25.87478,-36.5016 -36.7705,-48.3128 -50.85239,-55.1251 -6.06307,-2.9331 -46.84072,-16.0686 -90.61701,-29.19007 -43.77629,-13.12144 -100.88273,-30.64552 -126.9032,-38.94239 l -47.30994,-15.08523 -30.13214,0.68793 c -26.12116,0.59637 -31.39882,1.33025 -39.64797,5.51324 -5.2337,2.65391 -9.89541,4.44572 -10.35934,3.98178 -1.70295,-1.70295 13.99582,-12.04801 23.24965,-15.32086 11.41708,-4.03795 40.44696,-4.58182 59.54464,-1.11555 19.85675,3.60404 64.66515,17.12949 114.55232,34.57772 24.25443,8.48307 70.9777,24.45547 103.82947,35.49423 32.85177,11.0387 63.05276,22.1237 67.11333,24.6333 8.63191,5.3348 19.12419,17.6779 36.61158,43.0698 35.68525,51.8154 56.09668,76.7883 91.86815,112.3986 13.96485,13.9019 24.66761,25.2761 23.78393,25.276 -0.88368,-10e-5 -9.83491,-7.0072 -19.89162,-15.5713 z"
     id="path16"
     transform="scale(0.26458333)" /><path
     style="fill:#ffffff;stroke-width:2.15117"
     d="m 1029.3436,1230.2903 c 2.9612,-13.7373 7.4936,-18.9479 29.5683,-33.9928 47.9964,-32.7116 67.2219,-52.9649 118.6714,-125.0153 34.9556,-48.9523 47.3112,-63.1345 64.7168,-74.2841 37.474,-24.00494 141.8827,-67.52616 205.6739,-85.73209 32.8139,-9.36507 79.813,-20.72175 85.1546,-20.57646 2.1349,0.0581 -24.1911,9.57855 -58.5022,21.15662 -109.1178,36.82108 -194.821,70.53056 -225.6002,88.73493 -22.9695,13.5853 -40.0239,32.4344 -71.7543,79.3057 -46.8535,69.2107 -61.1136,85.0454 -110.4554,122.6525 -13.696,10.4387 -28.0869,22.607 -31.9796,27.0406 l -7.0778,8.0612 z"
     id="path17"
     transform="scale(0.26458333)" /><path
     style="fill:#ffffff;stroke-width:2.15117"
     d="m 990.19743,1610.6878 c -11.56016,-12.7379 -12.50631,-16.103 -12.22402,-43.476 0.15936,-15.4536 3.4103,-50.626 8.06046,-87.2075 7.96195,-62.6345 22.16453,-152.8443 24.37893,-154.8469 1.3863,-1.2537 0.886,3.8911 -6.6903,68.8001 -9.50773,81.4567 -14.87,144.3516 -15.06777,176.7327 -0.18078,29.5986 0.10768,31.9361 4.71197,38.1832 5.65783,7.6766 3.34999,8.9978 -3.16927,1.8144 z"
     id="path18"
     transform="scale(0.26458333)" /><path
     style="fill:#ffffff;stroke-width:2.15117"
     d="m 822.82215,1783.9591 c -24.45462,-1.6727 -79.95398,-9.5478 -109.9812,-15.6058 -134.1335,-27.0614 -243.79549,-78.1821 -349.18337,-162.7775 -28.70378,-23.0406 -101.21496,-91.8482 -101.21496,-96.0452 0,-1.203 16.21444,13.6926 36.03208,33.1012 109.0236,106.7734 218.99344,170.8011 350.10276,203.8404 134.97557,34.0135 254.98247,39.2046 378.58384,16.3762 34.6152,-6.3931 86.859,-19.5733 115.1095,-29.04 92.7134,-31.068 209.5925,-101.1547 302.2392,-181.2379 29.4764,-25.4793 83.6651,-80.5728 103.0843,-104.8057 73.2878,-91.4545 145.4077,-253.6203 173.4854,-390.0918 23.1206,-112.3778 25.3844,-208.9947 7.2848,-310.90758 C 1703.6702,607.72022 1649.2877,473.40581 1576.5323,371.76858 1537.187,316.80438 1485.607,260.67974 1436.9809,219.92147 1319.6269,121.55566 1174.4443,58.024459 1018.3067,36.711694 832.1672,11.303676 648.05634,41.593079 481.06216,125.09766 448.05788,141.60129 439.0143,143.66731 467.32246,128.23652 570.84538,71.806136 681.4894,37.468836 805.6128,23.251398 c 36.85641,-4.221635 145.74437,-3.514722 182.84937,1.187078 137.24253,17.390838 268.32443,66.060596 382.95363,142.187934 47.2612,31.38695 82.1377,60.52879 131.268,109.68379 43.8508,43.87274 66.0033,70.00459 96.8482,114.24529 74.9322,107.47505 125.5465,242.57238 140.8065,375.83457 7.0952,61.96098 5.99,197.70162 -2.0441,251.04764 -15.2128,101.0127 -38.9643,177.8757 -82.7948,267.9353 -42.7596,87.859 -90.1042,157.1909 -154.5839,226.3739 -87.9088,94.3209 -204.6767,175.6745 -315.6216,219.8972 -63.1562,25.1741 -141.8683,42.9689 -223.58684,50.5471 -31.79471,2.9485 -107.53087,3.9126 -138.88511,1.7679 z"
     id="path19"
     transform="scale(0.26458333)" /><path
     style="fill:#ffffff;stroke-width:2.15117"
     d="M 59.522268,1166.6065 C 47.296422,1129.3932 42.666536,1111.9255 35.681619,1076.6601 21.655064,1005.8429 18.246421,967.27829 18.569261,883.05488 18.862663,806.51145 21.865548,772.56284 33.506179,714.18812 46.233163,650.3656 74.479785,565.27469 96.90153,523.21419 c 8.88172,-16.66104 6.75774,-9.06013 -6.478153,23.18274 -32.296738,78.67546 -50.937706,150.6653 -61.829358,238.77976 -5.462187,44.1896 -5.394398,171.74607 0.115995,218.26241 7.261103,61.295 18.459312,114.8188 34.82947,166.4734 4.255619,13.4282 7.289124,24.8633 6.74112,25.4113 -0.548001,0.548 -5.389255,-12.3747 -10.758336,-28.7173 z"
     id="path20"
     transform="scale(0.26458333)" /><path
     style="fill:#ffffff;stroke-width:0.537792"
     d="m 259.76358,544.02119 c -0.005,-0.27141 1.28664,-3.5385 2.87133,-7.26019 3.96305,-9.30736 4.30491,-10.99849 1.77559,-8.78345 -1.03007,0.90207 -1.05899,0.89832 -0.69673,-0.0905 1.22111,-3.33321 16.35927,-28.08329 26.34172,-43.0673 40.98779,-61.52414 96.2667,-119.9526 155.50539,-164.36541 33.29638,-24.96317 67.17245,-45.67665 108.36514,-66.25974 81.93815,-40.94269 161.76929,-66.00525 250.3423,-78.59362 32.55789,-4.62726 45.14443,-5.30797 98.68488,-5.33709 44.002,-0.0239 53.13823,0.36414 76.0976,3.23239 43.135,5.38874 75.8065,11.84335 111.323,21.9931 68.7196,19.63839 131.2303,47.92034 189.7882,85.86653 29.9034,19.37782 62.057,43.92864 85.8753,65.57012 8.0309,7.29693 47.468,46.67801 50.6688,50.59688 1.9253,2.35721 2.0342,2.68759 1.8823,5.70885 l -0.1613,3.20685 -2.8872,-3.29502 c -18.6145,-21.24432 -46.9563,-48.54174 -71.8659,-69.2179 C 1266.6235,269.97026 1164.4271,219.78028 1063.2608,196.21104 963.14199,172.88586 879.83641,169.12629 779.52988,183.4063 c -69.69397,9.9219 -132.20066,29.24658 -203.82327,63.01436 -75.9999,35.83154 -134.98238,76.9817 -194.06397,135.39214 -22.79985,22.54084 -38.9446,40.29791 -56.00403,61.59692 -24.87005,31.05072 -42.23679,57.49848 -63.38817,96.53371 -1.36231,2.51417 -2.4814,4.34917 -2.48686,4.07776 z"
     id="path21"
     transform="scale(0.26458333)" /><path
     style="fill:#ffffff;stroke-width:0.537792"
     d=""
     id="path22"
     transform="scale(0.26458333)" /><path
     style="fill:#ffffff;stroke-width:1.52111"
     d="m 1503.369,709.66617 c 17.7518,-3.99794 32.3005,-10.03631 40.1244,-16.65338 2.692,-2.27673 7.0635,-8.54521 9.7144,-13.92994 4.624,-9.39269 4.7874,-10.36214 4.0238,-23.86351 -0.8927,-15.78149 -3.6004,-24.34795 -17.9822,-56.89083 -29.8205,-67.47713 -66.5787,-127.77288 -109.0281,-178.84272 -6.0661,-7.29791 -11.0108,-14.48514 -10.9883,-15.97162 0.049,-3.23438 2.4694,-0.5354 24.8586,27.71944 20.9357,26.4205 37.1837,49.86623 54.2879,78.33697 20.1835,33.5964 49.1139,94.46044 59.1649,124.4715 7.3902,22.06642 5.2479,45.1265 -5.6653,60.98165 -10.048,14.59807 -13.8105,16.02858 -46.0082,17.49238 l -18.9896,0.86334 z"
     id="path23"
     transform="scale(0.26458333)" /><path
     style="fill:#ffffff;stroke-width:1.52111"
     d=""
     id="path24"
     transform="scale(0.26458333)" /><path
     style="fill:#ffffff;stroke-width:0.760553"
     d="m 211.45606,338.91529 c -0.0272,-0.81804 11.05395,-14.00316 24.51373,-29.16825 12.94075,-14.58031 47.0472,-48.7019 62.51904,-62.5468 32.72856,-29.28701 65.09032,-54.29141 103.84376,-80.23519 17.09014,-11.44112 46.93373,-30.06549 48.17677,-30.06549 0.24799,0 0.23873,0.55287 -0.0206,1.2286 -0.51561,1.34365 0.62809,1.15546 5.76971,-0.94941 4.17361,-1.70859 3.62529,-0.56268 -0.80171,1.67542 -12.20154,6.16859 -40.03375,22.48522 -57.96113,33.97971 -59.60076,38.21416 -118.82722,89.91427 -169.62908,148.07303 -16.6078,19.01287 -16.38529,18.76869 -16.41052,18.00838 z"
     id="path25"
     transform="scale(0.26458333)" /><path
     style="fill:#ffffff;stroke-width:1.07558"
     d="m 100.02936,514.2787 c 0,-2.51413 35.28049,-67.40787 36.16594,-66.52242 0.25408,0.25408 -4.3377,9.84682 -10.20394,21.31721 -5.86625,11.47039 -13.18198,26.43869 -16.25719,33.26289 -4.30419,9.55143 -6.06475,12.40764 -7.64805,12.40764 -1.13122,0 -2.05676,-0.2094 -2.05676,-0.46532 z"
     id="path26"
     transform="scale(0.26458333)" /></svg>
